<svg width="805" height="1600" viewBox="0 0 805 1600" fill="none" xmlns="http://www.w3.org/2000/svg">
<path d="M41.1015 73.6781V50.1345H10.1965V73.6781H0V16.7109H10.1965V39.9392H41.1015V16.7109H51.298V73.6781H41.1015Z" fill="black"/>
<path d="M94.6067 26.9062H75.2649V42.672H94.6067C97.6552 42.672 99.9678 41.9362 101.439 40.3597C102.911 38.7831 103.752 36.9963 103.752 34.7891C103.752 32.5819 103.016 30.7951 101.439 29.2185C99.9678 27.6419 97.6552 26.9062 94.6067 26.9062ZM103.437 73.6781L92.8197 52.7621H75.2649V73.6781H65.0684V16.7109H94.817C97.5501 16.7109 100.073 17.1314 102.386 18.0773C104.698 19.0233 106.695 20.2845 108.377 21.8611C110.059 23.4377 111.426 25.3296 112.372 27.5368C113.318 29.744 113.843 32.0563 113.843 34.5789C113.843 38.1524 112.897 41.4107 111.005 44.3537C109.113 47.2966 106.485 49.5038 103.332 50.9753L115.63 73.7832H103.542L103.437 73.6781Z" fill="black"/>
<path d="M141.805 48.8732H160.727L151.266 24.3836L141.7 48.8732H141.805ZM170.397 73.6781L164.721 59.0684H137.916L132.344 73.6781H121.412L143.382 16.7109H159.465L181.435 73.6781H170.503H170.397Z" fill="black"/>
<path d="M200.04 26.9062V63.4829H212.865C218.331 63.4829 222.746 61.8012 226.005 58.5429C229.263 55.2846 230.945 50.7651 230.945 45.1945C230.945 39.6239 229.263 35.2095 226.005 31.8461C222.746 28.5879 218.331 26.9062 212.865 26.9062H200.04ZM212.865 16.7109C216.859 16.7109 220.644 17.4467 224.007 18.813C227.476 20.1794 230.42 22.1764 232.942 24.6989C235.465 27.2215 237.463 30.1644 238.829 33.6329C240.301 37.1014 241.037 40.9903 241.037 45.1945C241.037 49.3987 240.301 53.1825 238.829 56.7561C237.357 60.3297 235.465 63.2726 232.942 65.7952C230.42 68.3177 227.476 70.2096 224.007 71.6811C220.538 73.0475 216.859 73.7832 212.865 73.7832H189.844V16.7109H212.865Z" fill="black"/>
<path d="M298.432 26.9062H262.271V40.1495H297.696V50.1345H262.271V63.4829H298.852V73.6781H252.074V16.7109H298.432V26.9062Z" fill="black"/>
<path d="M363.185 56.9662C361.398 62.6419 358.14 66.9512 353.514 70.1044C348.784 73.2576 343.423 74.8342 337.326 74.8342C333.332 74.8342 329.547 74.0984 326.184 72.6269C322.715 71.1555 319.771 69.0534 317.248 66.4257C314.726 63.7981 312.728 60.6449 311.362 57.0713C309.89 53.3926 309.154 49.5037 309.154 45.1944C309.154 40.8851 309.89 36.9962 311.362 33.3175C312.833 29.6388 314.726 26.5908 317.248 23.9631C319.771 21.3355 322.715 19.2334 326.184 17.7619C329.652 16.2904 333.332 15.5547 337.326 15.5547C343.423 15.5547 348.784 17.0262 353.304 20.0742C357.824 23.1223 361.188 27.4316 363.185 33.2124L354.04 37.4166C352.884 34.0532 350.886 31.2154 348.048 29.0082C345.21 26.801 341.636 25.7499 337.431 25.7499C331.965 25.7499 327.55 27.5367 324.291 31.1103C321.033 34.6839 319.351 39.4136 319.351 45.1944C319.351 50.9752 321.033 55.705 324.291 59.2785C327.55 62.8521 331.965 64.6389 337.431 64.6389C341.741 64.6389 345.42 63.4828 348.258 61.2756C351.097 59.0683 353.094 56.2305 354.145 52.6569L363.29 56.8611L363.185 56.9662Z" fill="black"/>
<path d="M436.558 73.6781L418.478 44.2486L406.284 55.7051V73.6781H396.192V16.7109H406.284V41.9362L432.774 16.7109H447.385L426.361 36.7861L449.908 73.6781H436.558Z" fill="black"/>
<path d="M488.802 26.9062H469.46V42.672H488.802C491.85 42.672 494.163 41.9362 495.635 40.3597C497.106 38.7831 497.947 36.9963 497.947 34.7891C497.947 32.5819 497.212 30.7951 495.635 29.2185C494.163 27.6419 491.85 26.9062 488.802 26.9062ZM497.632 73.6781L487.015 52.7621H469.46V73.6781H459.264V16.7109H489.012C491.745 16.7109 494.268 17.1314 496.581 18.0773C498.893 19.0233 500.891 20.2845 502.573 21.8611C504.255 23.4377 505.621 25.3296 506.567 27.5368C507.513 29.744 508.039 32.0563 508.039 34.5789C508.039 38.1524 507.093 41.4107 505.201 44.3537C503.308 47.2966 500.68 49.5038 497.527 50.9753L509.826 73.7832H497.737L497.632 73.6781Z" fill="black"/>
<path d="M536 48.874H554.922L545.461 24.3845L535.895 48.874H536ZM564.593 73.6789L558.916 59.0692H532.111L526.54 73.6789H515.607L537.577 16.7118H553.66L575.63 73.6789H564.698H564.593ZM554.712 0L556.814 9.14417L536.106 13.1382L534.319 5.67569L554.606 0.105105L554.712 0Z" fill="black"/>
<path d="M594.236 63.4829H627.558V73.6781H584.039V16.7109H594.236V63.4829Z" fill="black"/>
<path d="M678.751 45.1944C678.751 39.4136 677.069 34.6839 673.811 31.1103C670.552 27.5367 666.137 25.7499 660.671 25.7499C655.205 25.7499 650.79 27.5367 647.531 31.1103C644.272 34.6839 642.59 39.4136 642.59 45.1944C642.59 50.9752 644.272 55.705 647.531 59.2785C650.79 62.8521 655.205 64.6389 660.671 64.6389C666.137 64.6389 670.552 62.8521 673.811 59.2785C677.069 55.705 678.751 50.9752 678.751 45.1944ZM632.499 45.1944C632.499 40.8851 633.235 36.9962 634.707 33.3175C636.178 29.6388 638.07 26.5908 640.593 23.9631C643.116 21.3355 646.059 19.2334 649.528 17.7619C652.997 16.2904 656.676 15.5547 660.671 15.5547C664.665 15.5547 668.45 16.2904 671.814 17.7619C675.177 19.2334 678.226 21.3355 680.749 23.9631C683.272 26.5908 685.269 29.7439 686.635 33.3175C688.107 36.9962 688.738 40.8851 688.738 45.1944C688.738 49.5037 688.002 53.3926 686.635 57.0713C685.164 60.75 683.272 63.7981 680.749 66.4257C678.226 69.0534 675.282 71.1555 671.814 72.6269C668.345 74.0984 664.665 74.8342 660.671 74.8342C656.676 74.8342 652.892 74.0984 649.528 72.6269C646.059 71.1555 643.116 69.0534 640.593 66.4257C638.07 63.7981 636.073 60.6449 634.707 57.0713C633.235 53.3926 632.499 49.5037 632.499 45.1944Z" fill="black"/>
<path d="M704.821 16.7109L721.114 64.4288L737.513 16.7109H748.445L728.998 73.6781H713.335L693.783 16.7109H704.821Z" fill="black"/>
<path d="M790.282 0L792.384 9.14417L771.676 13.1382L769.889 5.67569L790.177 0.105105L790.282 0ZM803.737 26.907H767.576V40.0452H803.001V50.1353H767.576V63.4837H804.158V73.6789H757.38V16.7118H803.737V26.907Z" fill="black"/>
<path d="M41.1015 175.315V151.772H10.1965V175.315H0V118.453H10.1965V141.576H41.1015V118.453H51.298V175.315H41.1015Z" fill="black"/>
<path d="M94.6067 128.543H75.2649V144.309H94.6067C97.6552 144.309 99.9678 143.573 101.439 141.996C102.911 140.42 103.752 138.633 103.752 136.426C103.752 134.219 103.016 132.432 101.439 130.855C99.9678 129.279 97.6552 128.543 94.6067 128.543ZM103.437 175.315L92.8197 154.399H75.2649V175.315H65.0684V118.348H94.817C97.5501 118.348 100.073 118.768 102.386 119.714C104.698 120.66 106.695 121.921 108.377 123.498C110.059 125.074 111.426 126.966 112.372 129.174C113.318 131.381 113.843 133.693 113.843 136.216C113.843 139.789 112.897 143.047 111.005 145.99C109.113 148.933 106.485 151.141 103.332 152.612L115.63 175.42H103.542L103.437 175.315Z" fill="black"/>
<path d="M141.805 150.51H160.727L151.266 126.02L141.7 150.51H141.805ZM170.397 175.315L164.721 160.705H137.916L132.344 175.315H121.412L143.382 118.348H159.465L181.435 175.315H170.503H170.397Z" fill="black"/>
<path d="M200.04 128.543V165.12H212.865C218.331 165.12 222.746 163.438 226.005 160.18C229.263 156.921 230.945 152.402 230.945 146.831C230.945 141.261 229.263 136.846 226.005 133.483C222.746 130.225 218.331 128.543 212.865 128.543H200.04ZM212.865 118.348C216.859 118.348 220.644 119.083 224.007 120.45C227.476 121.816 230.42 123.813 232.942 126.336C235.465 128.858 237.463 131.801 238.829 135.27C240.301 138.738 241.037 142.627 241.037 146.831C241.037 151.035 240.301 154.819 238.829 158.393C237.357 161.966 235.465 164.909 232.942 167.432C230.42 169.954 227.476 171.846 224.007 173.318C220.538 174.684 216.859 175.42 212.865 175.42H189.844V118.453H212.865V118.348Z" fill="black"/>
<path d="M298.432 128.543H262.271V141.787H297.696V151.877H262.271V165.225H298.852V175.315H252.074V118.453H298.432V128.543Z" fill="black"/>
<path d="M363.185 158.708C361.398 164.384 358.14 168.693 353.514 171.847C348.784 175 343.423 176.576 337.326 176.576C333.332 176.576 329.547 175.841 326.184 174.369C322.715 172.898 319.771 170.796 317.248 168.168C314.726 165.54 312.728 162.387 311.362 158.814C309.89 155.135 309.154 151.246 309.154 146.937C309.154 142.627 309.89 138.738 311.362 135.06C312.833 131.381 314.726 128.333 317.248 125.705C319.771 123.078 322.715 120.976 326.184 119.504C329.652 118.033 333.332 117.297 337.326 117.297C343.423 117.297 348.784 118.768 353.304 121.816C357.824 124.864 361.188 129.174 363.185 134.955L354.04 139.159C352.884 135.795 350.886 132.958 348.048 130.75C345.21 128.543 341.636 127.492 337.431 127.492C331.965 127.492 327.55 129.279 324.291 132.852C321.033 136.426 319.351 141.156 319.351 146.937C319.351 152.717 321.033 157.447 324.291 161.021C327.55 164.594 331.965 166.381 337.431 166.381C341.741 166.381 345.42 165.225 348.258 163.018C351.097 160.811 353.094 157.973 354.145 154.399L363.29 158.603L363.185 158.708Z" fill="black"/>
<path d="M436.558 175.315L418.478 145.886L406.284 157.342V175.315H396.192V118.453H406.284V143.678L432.774 118.453H447.385L426.361 138.423L449.908 175.315H436.558Z" fill="black"/>
<path d="M488.802 128.543H469.46V144.309H488.802C491.85 144.309 494.163 143.573 495.635 141.996C497.106 140.42 497.947 138.633 497.947 136.426C497.947 134.219 497.212 132.432 495.635 130.855C494.163 129.279 491.85 128.543 488.802 128.543ZM497.632 175.315L487.015 154.399H469.46V175.315H459.264V118.348H489.012C491.745 118.348 494.268 118.768 496.581 119.714C498.893 120.66 500.891 121.921 502.573 123.498C504.255 125.074 505.621 126.966 506.567 129.174C507.513 131.381 508.039 133.693 508.039 136.216C508.039 139.789 507.093 143.047 505.201 145.99C503.308 148.933 500.68 151.141 497.527 152.612L509.826 175.42H497.737L497.632 175.315Z" fill="black"/>
<path d="M536 150.511H554.922L545.461 126.021L535.895 150.511H536ZM564.593 175.316L558.916 160.706H532.111L526.54 175.316H515.607L537.577 118.348H553.66L575.63 175.316H564.698H564.593ZM554.712 101.637L556.814 110.781L536.106 114.775L534.319 107.312L554.606 101.742L554.712 101.637Z" fill="black"/>
<path d="M594.236 165.225H627.558V175.315H584.039V118.453H594.236V165.225Z" fill="black"/>
<path d="M678.751 146.937C678.751 141.156 677.069 136.426 673.811 132.852C670.552 129.279 666.137 127.492 660.671 127.492C655.205 127.492 650.79 129.279 647.531 132.852C644.272 136.426 642.59 141.156 642.59 146.937C642.59 152.717 644.272 157.447 647.531 161.021C650.79 164.594 655.205 166.381 660.671 166.381C666.137 166.381 670.552 164.594 673.811 161.021C677.069 157.447 678.751 152.717 678.751 146.937ZM632.499 146.937C632.499 142.627 633.235 138.738 634.707 135.06C636.178 131.381 638.07 128.333 640.593 125.705C643.116 123.078 646.059 120.976 649.528 119.504C652.997 118.033 656.676 117.297 660.671 117.297C664.665 117.297 668.45 118.033 671.814 119.504C675.177 120.976 678.226 123.078 680.749 125.705C683.272 128.333 685.269 131.486 686.635 135.06C688.107 138.738 688.738 142.627 688.738 146.937C688.738 151.246 688.002 155.135 686.635 158.814C685.164 162.492 683.272 165.54 680.749 168.168C678.226 170.796 675.282 172.898 671.814 174.369C668.345 175.841 664.665 176.576 660.671 176.576C656.676 176.576 652.892 175.841 649.528 174.369C646.059 172.898 643.116 170.796 640.593 168.168C638.07 165.54 636.073 162.387 634.707 158.814C633.235 155.135 632.499 151.246 632.499 146.937Z" fill="black"/>
<path d="M704.821 118.453L721.114 166.066L737.513 118.453H748.445L728.998 175.315H713.335L693.783 118.453H704.821Z" fill="black"/>
<path d="M790.282 101.637L792.384 110.781L771.676 114.775L769.889 107.312L790.177 101.742L790.282 101.637ZM803.737 128.544H767.576V141.682H803.001V151.772H767.576V165.12H804.158V175.316H757.38V118.348H803.737V128.544Z" fill="black"/>
<path d="M41.1015 277.057V253.408H10.1965V277.057H0V220.09H10.1965V243.318H41.1015V220.09H51.298V277.057H41.1015Z" fill="black"/>
<path d="M94.6067 230.285H75.2649V246.051H94.6067C97.6552 246.051 99.9678 245.315 101.439 243.739C102.911 242.162 103.752 240.375 103.752 238.168C103.752 235.961 103.016 234.174 101.439 232.597C99.9678 231.021 97.6552 230.285 94.6067 230.285ZM103.437 277.057L92.8197 256.141H75.2649V277.057H65.0684V220.09H94.817C97.5501 220.09 100.073 220.51 102.386 221.456C104.698 222.402 106.695 223.663 108.377 225.24C110.059 226.817 111.426 228.708 112.372 230.916C113.318 233.123 113.843 235.435 113.843 237.958C113.843 241.531 112.897 244.79 111.005 247.733C109.113 250.676 106.485 252.883 103.332 254.354L115.63 277.162H103.542L103.437 277.057Z" fill="black"/>
<path d="M141.805 252.252H160.727L151.266 227.763L141.7 252.252H141.805ZM170.397 277.057L164.721 262.447H137.916L132.344 277.057H121.412L143.382 220.09H159.465L181.435 277.057H170.503H170.397Z" fill="black"/>
<path d="M200.04 230.285V266.862H212.865C218.331 266.862 222.746 265.18 226.005 261.922C229.263 258.664 230.945 254.144 230.945 248.573C230.945 243.003 229.263 238.588 226.005 235.225C222.746 231.967 218.331 230.285 212.865 230.285H200.04ZM212.865 220.09C216.859 220.09 220.644 220.826 224.007 222.192C227.476 223.558 230.42 225.555 232.942 228.078C235.465 230.6 237.463 233.543 238.829 237.012C240.301 240.48 241.037 244.369 241.037 248.573C241.037 252.778 240.301 256.561 238.829 260.135C237.357 263.709 235.465 266.652 232.942 269.174C230.42 271.697 227.476 273.589 224.007 275.06C220.538 276.426 216.859 277.162 212.865 277.162H189.844V220.195H212.865V220.09Z" fill="black"/>
<path d="M298.432 230.285H262.271V243.423H297.696V253.513H262.271V266.862H298.852V277.057H252.074V220.09H298.432V230.285Z" fill="black"/>
<path d="M363.185 260.345C361.398 266.021 358.14 270.33 353.514 273.483C348.784 276.636 343.423 278.213 337.326 278.213C333.332 278.213 329.547 277.477 326.184 276.006C322.715 274.534 319.771 272.432 317.248 269.805C314.726 267.177 312.728 264.024 311.362 260.45C309.89 256.772 309.154 252.883 309.154 248.573C309.154 244.264 309.89 240.375 311.362 236.696C312.833 233.018 314.726 229.97 317.248 227.342C319.771 224.714 322.715 222.612 326.184 221.141C329.652 219.669 333.332 218.934 337.326 218.934C343.423 218.934 348.784 220.405 353.304 223.453C357.824 226.501 361.188 230.811 363.185 236.591L354.04 240.796C352.884 237.432 350.886 234.594 348.048 232.387C345.21 230.18 341.636 229.129 337.431 229.129C331.965 229.129 327.55 230.916 324.291 234.489C321.033 238.063 319.351 242.793 319.351 248.573C319.351 254.354 321.033 259.084 324.291 262.657C327.55 266.231 331.965 268.018 337.431 268.018C341.741 268.018 345.42 266.862 348.258 264.654C351.097 262.447 353.094 259.609 354.145 256.036L363.29 260.24L363.185 260.345Z" fill="black"/>
<path d="M436.558 277.057L418.478 247.627L406.284 259.084V277.057H396.192V220.09H406.284V245.315L432.774 220.09H447.385L426.361 240.06L449.908 277.057H436.558Z" fill="black"/>
<path d="M488.802 230.285H469.46V246.051H488.802C491.85 246.051 494.163 245.315 495.635 243.739C497.106 242.162 497.947 240.375 497.947 238.168C497.947 235.961 497.212 234.174 495.635 232.597C494.163 231.021 491.85 230.285 488.802 230.285ZM497.632 277.057L487.015 256.141H469.46V277.057H459.264V220.09H489.012C491.745 220.09 494.268 220.51 496.581 221.456C498.893 222.402 500.891 223.663 502.573 225.24C504.255 226.817 505.621 228.708 506.567 230.916C507.513 233.123 508.039 235.435 508.039 237.958C508.039 241.531 507.093 244.79 505.201 247.733C503.308 250.676 500.68 252.883 497.527 254.354L509.826 277.162H497.737L497.632 277.057Z" fill="black"/>
<path d="M536 252.253H554.922L545.461 227.763L535.895 252.253H536ZM564.593 277.058L558.916 262.448H532.111L526.54 277.058H515.607L537.577 220.091H553.66L575.63 277.058H564.698H564.593ZM554.712 203.379L556.814 212.523L536.106 216.517L534.319 209.055L554.606 203.484L554.712 203.379Z" fill="black"/>
<path d="M594.236 266.862H627.558V277.057H584.039V220.09H594.236V266.862Z" fill="black"/>
<path d="M678.751 248.573C678.751 242.793 677.069 238.063 673.811 234.489C670.552 230.916 666.137 229.129 660.671 229.129C655.205 229.129 650.79 230.916 647.531 234.489C644.272 238.063 642.59 242.793 642.59 248.573C642.59 254.354 644.272 259.084 647.531 262.657C650.79 266.231 655.205 268.018 660.671 268.018C666.137 268.018 670.552 266.231 673.811 262.657C677.069 259.084 678.751 254.354 678.751 248.573ZM632.499 248.573C632.499 244.264 633.235 240.375 634.707 236.696C636.178 233.018 638.07 229.97 640.593 227.342C643.116 224.714 646.059 222.612 649.528 221.141C652.997 219.669 656.676 218.934 660.671 218.934C664.665 218.934 668.45 219.669 671.814 221.141C675.177 222.612 678.226 224.714 680.749 227.342C683.272 229.97 685.269 233.123 686.635 236.696C688.107 240.375 688.738 244.264 688.738 248.573C688.738 252.883 688.002 256.772 686.635 260.45C685.164 264.129 683.272 267.177 680.749 269.805C678.226 272.432 675.282 274.534 671.814 276.006C668.345 277.477 664.665 278.213 660.671 278.213C656.676 278.213 652.892 277.477 649.528 276.006C646.059 274.534 643.116 272.432 640.593 269.805C638.07 267.177 636.073 264.024 634.707 260.45C633.235 256.772 632.499 252.883 632.499 248.573Z" fill="black"/>
<path d="M704.821 220.09L721.114 267.808L737.513 220.09H748.445L728.998 277.057H713.335L693.783 220.09H704.821Z" fill="black"/>
<path d="M790.282 203.379L792.384 212.523L771.676 216.517L769.889 209.055L790.177 203.484L790.282 203.379ZM803.737 230.286H767.576V243.424H803.001V253.514H767.576V266.863H804.158V277.058H757.38V220.091H803.737V230.286Z" fill="black"/>
<path d="M41.1015 378.694V355.15H10.1965V378.694H0V321.727H10.1965V344.955H41.1015V321.727H51.298V378.694H41.1015Z" fill="black"/>
<path d="M94.6067 331.922H75.2649V347.688H94.6067C97.6552 347.688 99.9678 346.952 101.439 345.375C102.911 343.799 103.752 342.012 103.752 339.805C103.752 337.597 103.016 335.811 101.439 334.234C99.9678 332.658 97.6552 331.922 94.6067 331.922ZM103.437 378.694L92.8197 357.778H75.2649V378.694H65.0684V321.727H94.817C97.5501 321.727 100.073 322.147 102.386 323.093C104.698 324.039 106.695 325.3 108.377 326.877C110.059 328.453 111.426 330.345 112.372 332.552C113.318 334.76 113.843 337.072 113.843 339.594C113.843 343.168 112.897 346.426 111.005 349.369C109.113 352.312 106.485 354.519 103.332 355.991L115.63 378.799H103.542L103.437 378.694Z" fill="black"/>
<path d="M141.805 353.889H160.727L151.266 329.399L141.7 353.889H141.805ZM170.397 378.694L164.721 364.084H137.916L132.344 378.694H121.412L143.382 321.727H159.465L181.435 378.694H170.503H170.397Z" fill="black"/>
<path d="M200.04 331.922V368.498H212.865C218.331 368.498 222.746 366.817 226.005 363.559C229.263 360.3 230.945 355.781 230.945 350.21C230.945 344.64 229.263 340.225 226.005 336.862C222.746 333.603 218.331 331.922 212.865 331.922H200.04ZM212.865 321.727C216.859 321.727 220.644 322.462 224.007 323.829C227.476 325.195 230.42 327.192 232.942 329.715C235.465 332.237 237.463 335.18 238.829 338.649C240.301 342.117 241.037 346.006 241.037 350.21C241.037 354.414 240.301 358.198 238.829 361.772C237.357 365.345 235.465 368.288 232.942 370.811C230.42 373.333 227.476 375.225 224.007 376.697C220.538 378.063 216.859 378.799 212.865 378.799H189.844V321.832H212.865V321.727Z" fill="black"/>
<path d="M298.432 331.922H262.271V345.06H297.696V355.15H262.271V368.498H298.852V378.694H252.074V321.727H298.432V331.922Z" fill="black"/>
<path d="M363.185 361.982C361.398 367.658 358.14 371.967 353.514 375.12C348.784 378.273 343.423 379.85 337.326 379.85C333.332 379.85 329.547 379.114 326.184 377.643C322.715 376.171 319.771 374.069 317.248 371.441C314.726 368.814 312.728 365.661 311.362 362.087C309.89 358.408 309.154 354.519 309.154 350.21C309.154 345.901 309.89 342.012 311.362 338.333C312.833 334.654 314.726 331.606 317.248 328.979C319.771 326.351 322.715 324.249 326.184 322.778C329.652 321.306 333.332 320.57 337.326 320.57C343.423 320.57 348.784 322.042 353.304 325.09C357.824 328.138 361.188 332.447 363.185 338.228L354.04 342.432C352.884 339.069 350.886 336.231 348.048 334.024C345.21 331.817 341.636 330.766 337.431 330.766C331.965 330.766 327.55 332.552 324.291 336.126C321.033 339.699 319.351 344.429 319.351 350.21C319.351 355.991 321.033 360.721 324.291 364.294C327.55 367.868 331.965 369.655 337.431 369.655C341.741 369.655 345.42 368.498 348.258 366.291C351.097 364.084 353.094 361.246 354.145 357.673L363.29 361.877L363.185 361.982Z" fill="black"/>
<path d="M436.558 378.694L418.478 349.264L406.284 360.721V378.694H396.192V321.727H406.284V346.952L432.774 321.727H447.385L426.361 341.802L449.908 378.694H436.558Z" fill="black"/>
<path d="M488.802 331.922H469.46V347.688H488.802C491.85 347.688 494.163 346.952 495.635 345.375C497.106 343.799 497.947 342.012 497.947 339.805C497.947 337.597 497.212 335.811 495.635 334.234C494.163 332.658 491.85 331.922 488.802 331.922ZM497.632 378.694L487.015 357.778H469.46V378.694H459.264V321.727H489.012C491.745 321.727 494.268 322.147 496.581 323.093C498.893 324.039 500.891 325.3 502.573 326.877C504.255 328.453 505.621 330.345 506.567 332.552C507.513 334.76 508.039 337.072 508.039 339.594C508.039 343.168 507.093 346.426 505.201 349.369C503.308 352.312 500.68 354.519 497.527 355.991L509.826 378.799H497.737L497.632 378.694Z" fill="black"/>
<path d="M536 353.89H554.922L545.461 329.4L535.895 353.89H536ZM564.593 378.695L558.916 364.085H532.111L526.54 378.695H515.607L537.577 321.727H553.66L575.63 378.695H564.698H564.593ZM554.712 305.016L556.814 314.16L536.106 318.154L534.319 310.691L554.606 305.121L554.712 305.016Z" fill="black"/>
<path d="M594.236 368.498H627.558V378.694H584.039V321.727H594.236V368.498Z" fill="black"/>
<path d="M678.751 350.21C678.751 344.429 677.069 339.699 673.811 336.126C670.552 332.552 666.137 330.766 660.671 330.766C655.205 330.766 650.79 332.552 647.531 336.126C644.272 339.699 642.59 344.429 642.59 350.21C642.59 355.991 644.272 360.721 647.531 364.294C650.79 367.868 655.205 369.655 660.671 369.655C666.137 369.655 670.552 367.868 673.811 364.294C677.069 360.721 678.751 355.991 678.751 350.21ZM632.499 350.21C632.499 345.901 633.235 342.012 634.707 338.333C636.178 334.654 638.07 331.606 640.593 328.979C643.116 326.351 646.059 324.249 649.528 322.778C652.997 321.306 656.676 320.57 660.671 320.57C664.665 320.57 668.45 321.306 671.814 322.778C675.177 324.249 678.226 326.351 680.749 328.979C683.272 331.606 685.269 334.76 686.635 338.333C688.107 342.012 688.738 345.901 688.738 350.21C688.738 354.519 688.002 358.408 686.635 362.087C685.164 365.766 683.272 368.814 680.749 371.441C678.226 374.069 675.282 376.171 671.814 377.643C668.345 379.114 664.665 379.85 660.671 379.85C656.676 379.85 652.892 379.114 649.528 377.643C646.059 376.171 643.116 374.069 640.593 371.441C638.07 368.814 636.073 365.661 634.707 362.087C633.235 358.408 632.499 354.519 632.499 350.21Z" fill="black"/>
<path d="M704.821 321.727L721.114 369.444L737.513 321.727H748.445L728.998 378.694H713.335L693.783 321.727H704.821Z" fill="black"/>
<path d="M790.282 305.016L792.384 314.16L771.676 318.154L769.889 310.691L790.177 305.121L790.282 305.016ZM803.737 331.923H767.576V345.061H803.001V355.151H767.576V368.499H804.158V378.695H757.38V321.727H803.737V331.923Z" fill="black"/>
<path d="M41.1015 480.331V456.787H10.1965V480.331H0V423.469H10.1965V446.592H41.1015V423.469H51.298V480.331H41.1015Z" fill="black"/>
<path d="M94.6067 433.559H75.2649V449.324H94.6067C97.6552 449.324 99.9678 448.589 101.439 447.012C102.911 445.435 103.752 443.649 103.752 441.441C103.752 439.234 103.016 437.447 101.439 435.871C99.9678 434.294 97.6552 433.559 94.6067 433.559ZM103.437 480.33L92.8197 459.414H75.2649V480.33H65.0684V423.363H94.817C97.5501 423.363 100.073 423.784 102.386 424.73C104.698 425.676 106.695 426.937 108.377 428.513C110.059 430.09 111.426 431.982 112.372 434.189C113.318 436.396 113.843 438.709 113.843 441.231C113.843 444.805 112.897 448.063 111.005 451.006C109.113 453.949 106.485 456.156 103.332 457.628L115.63 480.436H103.542L103.437 480.33Z" fill="black"/>
<path d="M141.805 455.526H160.727L151.266 431.036L141.7 455.526H141.805ZM170.397 480.33L164.721 465.721H137.916L132.344 480.33H121.412L143.382 423.363H159.465L181.435 480.33H170.503H170.397Z" fill="black"/>
<path d="M200.04 433.559V470.135H212.865C218.331 470.135 222.746 468.454 226.005 465.195C229.263 461.937 230.945 457.417 230.945 451.847C230.945 446.276 229.263 441.862 226.005 438.498C222.746 435.24 218.331 433.559 212.865 433.559H200.04ZM212.865 423.363C216.859 423.363 220.644 424.099 224.007 425.465C227.476 426.832 230.42 428.829 232.942 431.351C235.465 433.874 237.463 436.817 238.829 440.285C240.301 443.754 241.037 447.643 241.037 451.847C241.037 456.051 240.301 459.835 238.829 463.408C237.357 466.982 235.465 469.925 232.942 472.448C230.42 474.97 227.476 476.862 224.007 478.333C220.538 479.7 216.859 480.436 212.865 480.436H189.844V423.468H212.865V423.363Z" fill="black"/>
<path d="M298.432 433.559H262.271V446.802H297.696V456.892H262.271V470.241H298.852V480.331H252.074V423.469H298.432V433.559Z" fill="black"/>
<path d="M363.185 463.724C361.398 469.4 358.14 473.709 353.514 476.862C348.784 480.015 343.423 481.592 337.326 481.592C333.332 481.592 329.547 480.856 326.184 479.385C322.715 477.913 319.771 475.811 317.248 473.184C314.726 470.556 312.728 467.403 311.362 463.829C309.89 460.15 309.154 456.262 309.154 451.952C309.154 447.643 309.89 443.754 311.362 440.075C312.833 436.397 314.726 433.349 317.248 430.721C319.771 428.093 322.715 425.991 326.184 424.52C329.652 423.048 333.332 422.312 337.326 422.312C343.423 422.312 348.784 423.784 353.304 426.832C357.824 429.88 361.188 434.189 363.185 439.97L354.04 444.174C352.884 440.811 350.886 437.973 348.048 435.766C345.21 433.559 341.636 432.508 337.431 432.508C331.965 432.508 327.55 434.295 324.291 437.868C321.033 441.442 319.351 446.171 319.351 451.952C319.351 457.733 321.033 462.463 324.291 466.036C327.55 469.61 331.965 471.397 337.431 471.397C341.741 471.397 345.42 470.241 348.258 468.033C351.097 465.826 353.094 462.988 354.145 459.415L363.29 463.619L363.185 463.724Z" fill="black"/>
<path d="M436.558 480.331L418.478 450.901L406.284 462.358V480.331H396.192V423.469H406.284V448.694L432.774 423.469H447.385L426.361 443.439L449.908 480.331H436.558Z" fill="black"/>
<path d="M488.802 433.559H469.46V449.324H488.802C491.85 449.324 494.163 448.589 495.635 447.012C497.106 445.435 497.947 443.649 497.947 441.441C497.947 439.234 497.212 437.447 495.635 435.871C494.163 434.294 491.85 433.559 488.802 433.559ZM497.632 480.33L487.015 459.414H469.46V480.33H459.264V423.363H489.012C491.745 423.363 494.268 423.784 496.581 424.73C498.893 425.676 500.891 426.937 502.573 428.513C504.255 430.09 505.621 431.982 506.567 434.189C507.513 436.396 508.039 438.709 508.039 441.231C508.039 444.805 507.093 448.063 505.201 451.006C503.308 453.949 500.68 456.156 497.527 457.628L509.826 480.436H497.737L497.632 480.33Z" fill="black"/>
<path d="M536 455.526H554.922L545.461 431.037L535.895 455.526H536ZM564.593 480.331L558.916 465.722H532.111L526.54 480.331H515.607L537.577 423.364H553.66L575.63 480.331H564.698H564.593ZM554.712 406.652L556.814 415.797L536.106 419.791L534.319 412.328L554.606 406.757L554.712 406.652Z" fill="black"/>
<path d="M594.236 470.241H627.558V480.331H584.039V423.469H594.236V470.241Z" fill="black"/>
<path d="M678.751 451.952C678.751 446.171 677.069 441.442 673.811 437.868C670.552 434.295 666.137 432.508 660.671 432.508C655.205 432.508 650.79 434.295 647.531 437.868C644.272 441.442 642.59 446.171 642.59 451.952C642.59 457.733 644.272 462.463 647.531 466.036C650.79 469.61 655.205 471.397 660.671 471.397C666.137 471.397 670.552 469.61 673.811 466.036C677.069 462.463 678.751 457.733 678.751 451.952ZM632.499 451.952C632.499 447.643 633.235 443.754 634.707 440.075C636.178 436.397 638.07 433.349 640.593 430.721C643.116 428.093 646.059 425.991 649.528 424.52C652.997 423.048 656.676 422.312 660.671 422.312C664.665 422.312 668.45 423.048 671.814 424.52C675.177 425.991 678.226 428.093 680.749 430.721C683.272 433.349 685.269 436.502 686.635 440.075C688.107 443.754 688.738 447.643 688.738 451.952C688.738 456.262 688.002 460.15 686.635 463.829C685.164 467.508 683.272 470.556 680.749 473.184C678.226 475.811 675.282 477.913 671.814 479.385C668.345 480.856 664.665 481.592 660.671 481.592C656.676 481.592 652.892 480.856 649.528 479.385C646.059 477.913 643.116 475.811 640.593 473.184C638.07 470.556 636.073 467.403 634.707 463.829C633.235 460.15 632.499 456.262 632.499 451.952Z" fill="black"/>
<path d="M704.821 423.469L721.114 471.081L737.513 423.469H748.445L728.998 480.331H713.335L693.783 423.469H704.821Z" fill="black"/>
<path d="M790.282 406.652L792.384 415.797L771.676 419.791L769.889 412.328L790.177 406.757L790.282 406.652ZM803.737 433.559H767.576V446.698H803.001V456.788H767.576V470.136H804.158V480.331H757.38V423.364H803.737V433.559Z" fill="black"/>
<path d="M41.1015 582.073V558.424H10.1965V582.073H0V525.105H10.1965V548.334H41.1015V525.105H51.298V582.073H41.1015Z" fill="black"/>
<path d="M94.6067 535.301H75.2649V551.067H94.6067C97.6552 551.067 99.9678 550.331 101.439 548.754C102.911 547.178 103.752 545.391 103.752 543.184C103.752 540.976 103.016 539.19 101.439 537.613C99.9678 536.036 97.6552 535.301 94.6067 535.301ZM103.437 582.073L92.8197 561.157H75.2649V582.073H65.0684V525.105H94.817C97.5501 525.105 100.073 525.526 102.386 526.472C104.698 527.418 106.695 528.679 108.377 530.256C110.059 531.832 111.426 533.724 112.372 535.931C113.318 538.139 113.843 540.451 113.843 542.973C113.843 546.547 112.897 549.805 111.005 552.748C109.113 555.691 106.485 557.898 103.332 559.37L115.63 582.178H103.542L103.437 582.073Z" fill="black"/>
<path d="M141.805 557.268H160.727L151.266 532.778L141.7 557.268H141.805ZM170.397 582.073L164.721 567.463H137.916L132.344 582.073H121.412L143.382 525.105H159.465L181.435 582.073H170.503H170.397Z" fill="black"/>
<path d="M200.04 535.301V571.877H212.865C218.331 571.877 222.746 570.196 226.005 566.937C229.263 563.679 230.945 559.16 230.945 553.589C230.945 548.018 229.263 543.604 226.005 540.241C222.746 536.982 218.331 535.301 212.865 535.301H200.04ZM212.865 525.105C216.859 525.105 220.644 525.841 224.007 527.208C227.476 528.574 230.42 530.571 232.942 533.094C235.465 535.616 237.463 538.559 238.829 542.027C240.301 545.496 241.037 549.385 241.037 553.589C241.037 557.793 240.301 561.577 238.829 565.151C237.357 568.724 235.465 571.667 232.942 574.19C230.42 576.712 227.476 578.604 224.007 580.076C220.538 581.442 216.859 582.178 212.865 582.178H189.844V525.211H212.865V525.105Z" fill="black"/>
<path d="M298.432 535.301H262.271V548.439H297.696V558.529H262.271V571.877H298.852V582.073H252.074V525.105H298.432V535.301Z" fill="black"/>
<path d="M363.185 565.361C361.398 571.036 358.14 575.346 353.514 578.499C348.784 581.652 343.423 583.229 337.326 583.229C333.332 583.229 329.547 582.493 326.184 581.021C322.715 579.55 319.771 577.448 317.248 574.82C314.726 572.193 312.728 569.039 311.362 565.466C309.89 561.787 309.154 557.898 309.154 553.589C309.154 549.28 309.89 545.391 311.362 541.712C312.833 538.033 314.726 534.985 317.248 532.358C319.771 529.73 322.715 527.628 326.184 526.156C329.652 524.685 333.332 523.949 337.326 523.949C343.423 523.949 348.784 525.421 353.304 528.469C357.824 531.517 361.188 535.826 363.185 541.607L354.04 545.811C352.884 542.448 350.886 539.61 348.048 537.403C345.21 535.196 341.636 534.144 337.431 534.144C331.965 534.144 327.55 535.931 324.291 539.505C321.033 543.078 319.351 547.808 319.351 553.589C319.351 559.37 321.033 564.099 324.291 567.673C327.55 571.247 331.965 573.033 337.431 573.033C341.741 573.033 345.42 571.877 348.258 569.67C351.097 567.463 353.094 564.625 354.145 561.051L363.29 565.256L363.185 565.361Z" fill="black"/>
<path d="M436.558 582.073L418.478 552.643L406.284 564.1V582.073H396.192V525.105H406.284V550.331L432.774 525.105H447.385L426.361 545.076L449.908 582.073H436.558Z" fill="black"/>
<path d="M488.802 535.301H469.46V551.067H488.802C491.85 551.067 494.163 550.331 495.635 548.754C497.106 547.178 497.947 545.391 497.947 543.184C497.947 540.976 497.212 539.19 495.635 537.613C494.163 536.036 491.85 535.301 488.802 535.301ZM497.632 582.073L487.015 561.157H469.46V582.073H459.264V525.105H489.012C491.745 525.105 494.268 525.526 496.581 526.472C498.893 527.418 500.891 528.679 502.573 530.256C504.255 531.832 505.621 533.724 506.567 535.931C507.513 538.139 508.039 540.451 508.039 542.973C508.039 546.547 507.093 549.805 505.201 552.748C503.308 555.691 500.68 557.898 497.527 559.37L509.826 582.178H497.737L497.632 582.073Z" fill="black"/>
<path d="M536 557.269H554.922L545.461 532.779L535.895 557.269H536ZM564.593 582.073L558.916 567.464H532.111L526.54 582.073H515.607L537.577 525.106H553.66L575.63 582.073H564.698H564.593ZM554.712 508.395L556.814 517.539L536.106 521.533L534.319 514.07L554.606 508.5L554.712 508.395Z" fill="black"/>
<path d="M594.236 571.877H627.558V582.073H584.039V525.105H594.236V571.877Z" fill="black"/>
<path d="M678.751 553.589C678.751 547.808 677.069 543.078 673.811 539.505C670.552 535.931 666.137 534.144 660.671 534.144C655.205 534.144 650.79 535.931 647.531 539.505C644.272 543.078 642.59 547.808 642.59 553.589C642.59 559.37 644.272 564.099 647.531 567.673C650.79 571.247 655.205 573.033 660.671 573.033C666.137 573.033 670.552 571.247 673.811 567.673C677.069 564.099 678.751 559.37 678.751 553.589ZM632.499 553.589C632.499 549.28 633.235 545.391 634.707 541.712C636.178 538.033 638.07 534.985 640.593 532.358C643.116 529.73 646.059 527.628 649.528 526.156C652.997 524.685 656.676 523.949 660.671 523.949C664.665 523.949 668.45 524.685 671.814 526.156C675.177 527.628 678.226 529.73 680.749 532.358C683.272 534.985 685.269 538.138 686.635 541.712C688.107 545.391 688.738 549.28 688.738 553.589C688.738 557.898 688.002 561.787 686.635 565.466C685.164 569.145 683.272 572.193 680.749 574.82C678.226 577.448 675.282 579.55 671.814 581.021C668.345 582.493 664.665 583.229 660.671 583.229C656.676 583.229 652.892 582.493 649.528 581.021C646.059 579.55 643.116 577.448 640.593 574.82C638.07 572.193 636.073 569.039 634.707 565.466C633.235 561.787 632.499 557.898 632.499 553.589Z" fill="black"/>
<path d="M704.821 525.105L721.114 572.718L737.513 525.105H748.445L728.998 582.073H713.335L693.783 525.105H704.821Z" fill="black"/>
<path d="M790.282 508.395L792.384 517.539L771.676 521.533L769.889 514.07L790.177 508.5L790.282 508.395ZM803.737 535.302H767.576V548.44H803.001V558.53H767.576V571.878H804.158V582.073H757.38V525.106H803.737V535.302Z" fill="black"/>
<path d="M41.1015 683.711V660.168H10.1965V683.711H0V626.744H10.1965V649.972H41.1015V626.744H51.298V683.711H41.1015Z" fill="black"/>
<path d="M94.6067 636.939H75.2649V652.705H94.6067C97.6552 652.705 99.9678 651.969 101.439 650.393C102.911 648.816 103.752 647.029 103.752 644.822C103.752 642.615 103.016 640.828 101.439 639.252C99.9678 637.675 97.6552 636.939 94.6067 636.939ZM103.437 683.711L92.8197 662.795H75.2649V683.711H65.0684V626.744H94.817C97.5501 626.744 100.073 627.165 102.386 628.11C104.698 629.056 106.695 630.318 108.377 631.894C110.059 633.471 111.426 635.363 112.372 637.57C113.318 639.777 113.843 642.09 113.843 644.612C113.843 648.186 112.897 651.444 111.005 654.387C109.113 657.33 106.485 659.537 103.332 661.008L115.63 683.816H103.542L103.437 683.711Z" fill="black"/>
<path d="M141.805 658.906H160.727L151.266 634.417L141.7 658.906H141.805ZM170.397 683.711L164.721 669.102H137.916L132.344 683.711H121.412L143.382 626.744H159.465L181.435 683.711H170.503H170.397Z" fill="black"/>
<path d="M200.04 636.939V673.516H212.865C218.331 673.516 222.746 671.834 226.005 668.576C229.263 665.318 230.945 660.798 230.945 655.228C230.945 649.657 229.263 645.243 226.005 641.879C222.746 638.621 218.331 636.939 212.865 636.939H200.04ZM212.865 626.744C216.859 626.744 220.644 627.48 224.007 628.846C227.476 630.213 230.42 632.21 232.942 634.732C235.465 637.255 237.463 640.198 238.829 643.666C240.301 647.135 241.037 651.023 241.037 655.228C241.037 659.432 240.301 663.216 238.829 666.789C237.357 670.363 235.465 673.306 232.942 675.828C230.42 678.351 227.476 680.243 224.007 681.714C220.538 683.081 216.859 683.816 212.865 683.816H189.844V626.849H212.865V626.744Z" fill="black"/>
<path d="M298.432 636.939H262.271V650.078H297.696V660.168H262.271V673.516H298.852V683.711H252.074V626.744H298.432V636.939Z" fill="black"/>
<path d="M363.185 666.999C361.398 672.675 358.14 676.984 353.514 680.138C348.784 683.291 343.423 684.867 337.326 684.867C333.332 684.867 329.547 684.132 326.184 682.66C322.715 681.189 319.771 679.087 317.248 676.459C314.726 673.831 312.728 670.678 311.362 667.105C309.89 663.426 309.154 659.537 309.154 655.228C309.154 650.918 309.89 647.029 311.362 643.351C312.833 639.672 314.726 636.624 317.248 633.996C319.771 631.369 322.715 629.267 326.184 627.795C329.652 626.324 333.332 625.588 337.326 625.588C343.423 625.588 348.784 627.059 353.304 630.107C357.824 633.155 361.188 637.465 363.185 643.246L354.04 647.45C352.884 644.086 350.886 641.249 348.048 639.041C345.21 636.834 341.636 635.783 337.431 635.783C331.965 635.783 327.55 637.57 324.291 641.143C321.033 644.717 319.351 649.447 319.351 655.228C319.351 661.008 321.033 665.738 324.291 669.312C327.55 672.885 331.965 674.672 337.431 674.672C341.741 674.672 345.42 673.516 348.258 671.309C351.097 669.102 353.094 666.264 354.145 662.69L363.29 666.894L363.185 666.999Z" fill="black"/>
<path d="M436.558 683.711L418.478 654.282L406.284 665.738V683.711H396.192V626.744H406.284V651.969L432.774 626.744H447.385L426.361 646.819L449.908 683.711H436.558Z" fill="black"/>
<path d="M488.802 636.939H469.46V652.705H488.802C491.85 652.705 494.163 651.969 495.635 650.393C497.106 648.816 497.947 647.029 497.947 644.822C497.947 642.615 497.212 640.828 495.635 639.252C494.163 637.675 491.85 636.939 488.802 636.939ZM497.632 683.711L487.015 662.795H469.46V683.711H459.264V626.744H489.012C491.745 626.744 494.268 627.165 496.581 628.11C498.893 629.056 500.891 630.318 502.573 631.894C504.255 633.471 505.621 635.363 506.567 637.57C507.513 639.777 508.039 642.09 508.039 644.612C508.039 648.186 507.093 651.444 505.201 654.387C503.308 657.33 500.68 659.537 497.527 661.008L509.826 683.816H497.737L497.632 683.711Z" fill="black"/>
<path d="M536 658.905H554.922L545.461 634.416L535.895 658.905H536ZM564.593 683.71L558.916 669.1H532.111L526.54 683.71H515.607L537.577 626.743H553.66L575.63 683.71H564.698H564.593ZM554.712 610.031L556.814 619.175L536.106 623.169L534.319 615.707L554.606 610.136L554.712 610.031Z" fill="black"/>
<path d="M594.236 673.516H627.558V683.711H584.039V626.744H594.236V673.516Z" fill="black"/>
<path d="M678.751 655.228C678.751 649.447 677.069 644.717 673.811 641.143C670.552 637.57 666.137 635.783 660.671 635.783C655.205 635.783 650.79 637.57 647.531 641.143C644.272 644.717 642.59 649.447 642.59 655.228C642.59 661.008 644.272 665.738 647.531 669.312C650.79 672.885 655.205 674.672 660.671 674.672C666.137 674.672 670.552 672.885 673.811 669.312C677.069 665.738 678.751 661.008 678.751 655.228ZM632.499 655.228C632.499 650.918 633.235 647.029 634.707 643.351C636.178 639.672 638.07 636.624 640.593 633.996C643.116 631.369 646.059 629.267 649.528 627.795C652.997 626.324 656.676 625.588 660.671 625.588C664.665 625.588 668.45 626.324 671.814 627.795C675.177 629.267 678.226 631.369 680.749 633.996C683.272 636.624 685.269 639.777 686.635 643.351C688.107 647.029 688.738 650.918 688.738 655.228C688.738 659.537 688.002 663.426 686.635 667.105C685.164 670.783 683.272 673.831 680.749 676.459C678.226 679.087 675.282 681.189 671.814 682.66C668.345 684.132 664.665 684.867 660.671 684.867C656.676 684.867 652.892 684.132 649.528 682.66C646.059 681.189 643.116 679.087 640.593 676.459C638.07 673.831 636.073 670.678 634.707 667.105C633.235 663.426 632.499 659.537 632.499 655.228Z" fill="black"/>
<path d="M704.821 626.744L721.114 674.462L737.513 626.744H748.445L728.998 683.711H713.335L693.783 626.744H704.821Z" fill="black"/>
<path d="M790.282 610.031L792.384 619.175L771.676 623.169L769.889 615.707L790.177 610.136L790.282 610.031ZM803.737 636.938H767.576V650.076H803.001V660.167H767.576V673.515H804.158V683.71H757.38V626.743H803.737V636.938Z" fill="black"/>
<path d="M41.1015 785.346V761.803H10.1965V785.346H0V728.484H10.1965V751.608H41.1015V728.484H51.298V785.346H41.1015Z" fill="black"/>
<path d="M94.6067 738.576H75.2649V754.342H94.6067C97.6552 754.342 99.9678 753.606 101.439 752.03C102.911 750.453 103.752 748.666 103.752 746.459C103.752 744.252 103.016 742.465 101.439 740.888C99.9678 739.312 97.6552 738.576 94.6067 738.576ZM103.437 785.348L92.8197 764.432H75.2649V785.348H65.0684V728.381H94.817C97.5501 728.381 100.073 728.801 102.386 729.747C104.698 730.693 106.695 731.954 108.377 733.531C110.059 735.108 111.426 736.999 112.372 739.207C113.318 741.414 113.843 743.726 113.843 746.249C113.843 749.822 112.897 753.081 111.005 756.024C109.113 758.967 106.485 761.174 103.332 762.645L115.63 785.453H103.542L103.437 785.348Z" fill="black"/>
<path d="M141.805 760.543H160.727L151.266 736.054L141.7 760.543H141.805ZM170.397 785.348L164.721 770.738H137.916L132.344 785.348H121.412L143.382 728.381H159.465L181.435 785.348H170.503H170.397Z" fill="black"/>
<path d="M200.04 738.576V775.153H212.865C218.331 775.153 222.746 773.471 226.005 770.213C229.263 766.955 230.945 762.435 230.945 756.864C230.945 751.294 229.263 746.879 226.005 743.516C222.746 740.258 218.331 738.576 212.865 738.576H200.04ZM212.865 728.381C216.859 728.381 220.644 729.117 224.007 730.483C227.476 731.849 230.42 733.846 232.942 736.369C235.465 738.891 237.463 741.834 238.829 745.303C240.301 748.771 241.037 752.66 241.037 756.864C241.037 761.069 240.301 764.852 238.829 768.426C237.357 772 235.465 774.943 232.942 777.465C230.42 779.988 227.476 781.879 224.007 783.351C220.538 784.717 216.859 785.453 212.865 785.453H189.844V728.486H212.865V728.381Z" fill="black"/>
<path d="M298.432 738.574H262.271V751.818H297.696V761.908H262.271V775.256H298.852V785.346H252.074V728.484H298.432V738.574Z" fill="black"/>
<path d="M363.185 768.742C361.398 774.417 358.14 778.727 353.514 781.88C348.784 785.033 343.423 786.61 337.326 786.61C333.332 786.61 329.547 785.874 326.184 784.402C322.715 782.931 319.771 780.829 317.248 778.201C314.726 775.574 312.728 772.42 311.362 768.847C309.89 765.168 309.154 761.279 309.154 756.97C309.154 752.66 309.89 748.772 311.362 745.093C312.833 741.414 314.726 738.366 317.248 735.739C319.771 733.111 322.715 731.009 326.184 729.537C329.652 728.066 333.332 727.33 337.326 727.33C343.423 727.33 348.784 728.802 353.304 731.85C357.824 734.898 361.188 739.207 363.185 744.988L354.04 749.192C352.884 745.829 350.886 742.991 348.048 740.784C345.21 738.576 341.636 737.525 337.431 737.525C331.965 737.525 327.55 739.312 324.291 742.886C321.033 746.459 319.351 751.189 319.351 756.97C319.351 762.751 321.033 767.48 324.291 771.054C327.55 774.628 331.965 776.414 337.431 776.414C341.741 776.414 345.42 775.258 348.258 773.051C351.097 770.844 353.094 768.006 354.145 764.432L363.29 768.637L363.185 768.742Z" fill="black"/>
<path d="M436.558 785.346L418.478 755.917L406.284 767.373V785.346H396.192V728.484H406.284V753.71L432.774 728.484H447.385L426.361 748.454L449.908 785.346H436.558Z" fill="black"/>
<path d="M488.802 738.576H469.46V754.342H488.802C491.85 754.342 494.163 753.606 495.635 752.03C497.106 750.453 497.947 748.666 497.947 746.459C497.947 744.252 497.212 742.465 495.635 740.888C494.163 739.312 491.85 738.576 488.802 738.576ZM497.632 785.348L487.015 764.432H469.46V785.348H459.264V728.381H489.012C491.745 728.381 494.268 728.801 496.581 729.747C498.893 730.693 500.891 731.954 502.573 733.531C504.255 735.108 505.621 736.999 506.567 739.207C507.513 741.414 508.039 743.726 508.039 746.249C508.039 749.822 507.093 753.081 505.201 756.024C503.308 758.967 500.68 761.174 497.527 762.645L509.826 785.453H497.737L497.632 785.348Z" fill="black"/>
<path d="M536 760.542H554.922L545.461 736.052L535.895 760.542H536ZM564.593 785.347L558.916 770.737H532.111L526.54 785.347H515.607L537.577 728.38H553.66L575.63 785.347H564.698H564.593ZM554.712 711.668L556.814 720.812L536.106 724.806L534.319 717.344L554.606 711.773L554.712 711.668Z" fill="black"/>
<path d="M594.236 775.256H627.558V785.346H584.039V728.484H594.236V775.256Z" fill="black"/>
<path d="M678.751 756.864C678.751 751.084 677.069 746.354 673.811 742.78C670.552 739.207 666.137 737.42 660.671 737.42C655.205 737.42 650.79 739.207 647.531 742.78C644.272 746.354 642.59 751.084 642.59 756.864C642.59 762.645 644.272 767.375 647.531 770.948C650.79 774.522 655.205 776.309 660.671 776.309C666.137 776.309 670.552 774.522 673.811 770.948C677.069 767.375 678.751 762.645 678.751 756.864ZM632.499 756.864C632.499 752.555 633.235 748.666 634.707 744.987C636.178 741.309 638.07 738.261 640.593 735.633C643.116 733.005 646.059 730.903 649.528 729.432C652.997 727.96 656.676 727.225 660.671 727.225C664.665 727.225 668.45 727.96 671.814 729.432C675.177 730.903 678.226 733.005 680.749 735.633C683.272 738.261 685.269 741.414 686.635 744.987C688.107 748.666 688.738 752.555 688.738 756.864C688.738 761.174 688.002 765.063 686.635 768.741C685.164 772.42 683.272 775.468 680.749 778.096C678.226 780.723 675.282 782.825 671.814 784.297C668.345 785.768 664.665 786.504 660.671 786.504C656.676 786.504 652.892 785.768 649.528 784.297C646.059 782.825 643.116 780.723 640.593 778.096C638.07 775.468 636.073 772.315 634.707 768.741C633.235 765.063 632.499 761.174 632.499 756.864Z" fill="black"/>
<path d="M704.821 728.484L721.114 776.097L737.513 728.484H748.445L728.998 785.346H713.335L693.783 728.484H704.821Z" fill="black"/>
<path d="M790.282 711.668L792.384 720.812L771.676 724.806L769.889 717.344L790.177 711.773L790.282 711.668ZM803.737 738.575H767.576V751.713H803.001V761.803H767.576V775.152H804.158V785.347H757.38V728.38H803.737V738.575Z" fill="black"/>
<path d="M41.1015 887.09V863.441H10.1965V887.09H0V830.123H10.1965V853.246H41.1015V830.123H51.298V887.09H41.1015Z" fill="black"/>
<path d="M94.6067 840.318H75.2649V856.084H94.6067C97.6552 856.084 99.9678 855.348 101.439 853.772C102.911 852.195 103.752 850.408 103.752 848.201C103.752 845.994 103.016 844.207 101.439 842.631C99.9678 841.054 97.6552 840.318 94.6067 840.318ZM103.437 887.09L92.8197 866.174H75.2649V887.09H65.0684V830.123H94.817C97.5501 830.123 100.073 830.543 102.386 831.489C104.698 832.435 106.695 833.697 108.377 835.273C110.059 836.85 111.426 838.742 112.372 840.949C113.318 843.156 113.843 845.468 113.843 847.991C113.843 851.565 112.897 854.823 111.005 857.766C109.113 860.709 106.485 862.916 103.332 864.387L115.63 887.195H103.542L103.437 887.09Z" fill="black"/>
<path d="M141.805 862.285H160.727L151.266 837.796L141.7 862.285H141.805ZM170.397 887.09L164.721 872.481H137.916L132.344 887.09H121.412L143.382 830.123H159.465L181.435 887.09H170.503H170.397Z" fill="black"/>
<path d="M200.04 840.318V876.895H212.865C218.331 876.895 222.746 875.213 226.005 871.955C229.263 868.697 230.945 864.177 230.945 858.607C230.945 853.036 229.263 848.622 226.005 845.258C222.746 842 218.331 840.318 212.865 840.318H200.04ZM212.865 830.123C216.859 830.123 220.644 830.859 224.007 832.225C227.476 833.591 230.42 835.588 232.942 838.111C235.465 840.634 237.463 843.576 238.829 847.045C240.301 850.513 241.037 854.402 241.037 858.607C241.037 862.811 240.301 866.595 238.829 870.168C237.357 873.742 235.465 876.685 232.942 879.207C230.42 881.73 227.476 883.622 224.007 885.093C220.538 886.46 216.859 887.195 212.865 887.195H189.844V830.228H212.865V830.123Z" fill="black"/>
<path d="M298.432 840.318H262.271V853.456H297.696V863.547H262.271V876.895H298.852V887.09H252.074V830.123H298.432V840.318Z" fill="black"/>
<path d="M363.185 870.378C361.398 876.054 358.14 880.363 353.514 883.516C348.784 886.67 343.423 888.246 337.326 888.246C333.332 888.246 329.547 887.511 326.184 886.039C322.715 884.568 319.771 882.465 317.248 879.838C314.726 877.21 312.728 874.057 311.362 870.483C309.89 866.805 309.154 862.916 309.154 858.607C309.154 854.297 309.89 850.408 311.362 846.73C312.833 843.051 314.726 840.003 317.248 837.375C319.771 834.748 322.715 832.645 326.184 831.174C329.652 829.703 333.332 828.967 337.326 828.967C343.423 828.967 348.784 830.438 353.304 833.486C357.824 836.534 361.188 840.844 363.185 846.625L354.04 850.829C352.884 847.465 350.886 844.627 348.048 842.42C345.21 840.213 341.636 839.162 337.431 839.162C331.965 839.162 327.55 840.949 324.291 844.522C321.033 848.096 319.351 852.826 319.351 858.607C319.351 864.387 321.033 869.117 324.291 872.691C327.55 876.264 331.965 878.051 337.431 878.051C341.741 878.051 345.42 876.895 348.258 874.688C351.097 872.48 353.094 869.643 354.145 866.069L363.29 870.273L363.185 870.378Z" fill="black"/>
<path d="M436.558 887.09L418.478 857.661L406.284 869.117V887.09H396.192V830.123H406.284V855.348L432.774 830.123H447.385L426.361 850.093L449.908 887.09H436.558Z" fill="black"/>
<path d="M488.802 840.318H469.46V856.084H488.802C491.85 856.084 494.163 855.348 495.635 853.772C497.106 852.195 497.947 850.408 497.947 848.201C497.947 845.994 497.212 844.207 495.635 842.631C494.163 841.054 491.85 840.318 488.802 840.318ZM497.632 887.09L487.015 866.174H469.46V887.09H459.264V830.123H489.012C491.745 830.123 494.268 830.543 496.581 831.489C498.893 832.435 500.891 833.697 502.573 835.273C504.255 836.85 505.621 838.742 506.567 840.949C507.513 843.156 508.039 845.468 508.039 847.991C508.039 851.565 507.093 854.823 505.201 857.766C503.308 860.709 500.68 862.916 497.527 864.387L509.826 887.195H497.737L497.632 887.09Z" fill="black"/>
<path d="M536 862.284H554.922L545.461 837.795L535.895 862.284H536ZM564.593 887.089L558.916 872.479H532.111L526.54 887.089H515.607L537.577 830.122H553.66L575.63 887.089H564.698H564.593ZM554.712 813.41L556.814 822.554L536.106 826.548L534.319 819.086L554.606 813.515L554.712 813.41Z" fill="black"/>
<path d="M594.236 876.895H627.558V887.09H584.039V830.123H594.236V876.895Z" fill="black"/>
<path d="M678.751 858.607C678.751 852.826 677.069 848.096 673.811 844.522C670.552 840.949 666.137 839.162 660.671 839.162C655.205 839.162 650.79 840.949 647.531 844.522C644.272 848.096 642.59 852.826 642.59 858.607C642.59 864.387 644.272 869.117 647.531 872.691C650.79 876.264 655.205 878.051 660.671 878.051C666.137 878.051 670.552 876.264 673.811 872.691C677.069 869.117 678.751 864.387 678.751 858.607ZM632.499 858.607C632.499 854.297 633.235 850.408 634.707 846.73C636.178 843.051 638.07 840.003 640.593 837.375C643.116 834.748 646.059 832.645 649.528 831.174C652.997 829.703 656.676 828.967 660.671 828.967C664.665 828.967 668.45 829.703 671.814 831.174C675.177 832.645 678.226 834.748 680.749 837.375C683.272 840.003 685.269 843.156 686.635 846.73C688.107 850.408 688.738 854.297 688.738 858.607C688.738 862.916 688.002 866.805 686.635 870.483C685.164 874.162 683.272 877.21 680.749 879.838C678.226 882.465 675.282 884.568 671.814 886.039C668.345 887.511 664.665 888.246 660.671 888.246C656.676 888.246 652.892 887.511 649.528 886.039C646.059 884.568 643.116 882.465 640.593 879.838C638.07 877.21 636.073 874.057 634.707 870.483C633.235 866.805 632.499 862.916 632.499 858.607Z" fill="black"/>
<path d="M704.821 830.123L721.114 877.736L737.513 830.123H748.445L728.998 887.09H713.335L693.783 830.123H704.821Z" fill="black"/>
<path d="M790.282 813.41L792.384 822.554L771.676 826.548L769.889 819.086L790.177 813.515L790.282 813.41ZM803.737 840.317H767.576V853.455H803.001V863.545H767.576V876.894H804.158V887.089H757.38V830.122H803.737V840.317Z" fill="black"/>
<path d="M41.1015 988.727V965.183H10.1965V988.727H0V931.76H10.1965V954.988H41.1015V931.76H51.298V988.727H41.1015Z" fill="black"/>
<path d="M94.6067 941.955H75.2649V957.721H94.6067C97.6552 957.721 99.9678 956.985 101.439 955.408C102.911 953.832 103.752 952.045 103.752 949.838C103.752 947.631 103.016 945.844 101.439 944.267C99.9678 942.691 97.6552 941.955 94.6067 941.955ZM103.437 988.727L92.8197 967.811H75.2649V988.727H65.0684V931.76H94.817C97.5501 931.76 100.073 932.18 102.386 933.126C104.698 934.072 106.695 935.333 108.377 936.91C110.059 938.486 111.426 940.378 112.372 942.586C113.318 944.793 113.843 947.105 113.843 949.628C113.843 953.201 112.897 956.46 111.005 959.402C109.113 962.345 106.485 964.553 103.332 966.024L115.63 988.832H103.542L103.437 988.727Z" fill="black"/>
<path d="M141.805 963.922H160.727L151.266 939.432L141.7 963.922H141.805ZM170.397 988.727L164.721 974.117H137.916L132.344 988.727H121.412L143.382 931.76H159.465L181.435 988.727H170.503H170.397Z" fill="black"/>
<path d="M200.04 941.955V978.532H212.865C218.331 978.532 222.746 976.85 226.005 973.592C229.263 970.333 230.945 965.814 230.945 960.243C230.945 954.673 229.263 950.258 226.005 946.895C222.746 943.637 218.331 941.955 212.865 941.955H200.04ZM212.865 931.76C216.859 931.76 220.644 932.495 224.007 933.862C227.476 935.228 230.42 937.225 232.942 939.748C235.465 942.27 237.463 945.213 238.829 948.682C240.301 952.15 241.037 956.039 241.037 960.243C241.037 964.448 240.301 968.231 238.829 971.805C237.357 975.378 235.465 978.321 232.942 980.844C230.42 983.367 227.476 985.258 224.007 986.73C220.538 988.096 216.859 988.832 212.865 988.832H189.844V931.865H212.865V931.76Z" fill="black"/>
<path d="M298.432 941.955H262.271V955.093H297.696V965.183H262.271V978.532H298.852V988.727H252.074V931.76H298.432V941.955Z" fill="black"/>
<path d="M363.185 972.015C361.398 977.691 358.14 982 353.514 985.153C348.784 988.306 343.423 989.883 337.326 989.883C333.332 989.883 329.547 989.147 326.184 987.676C322.715 986.204 319.771 984.102 317.248 981.475C314.726 978.847 312.728 975.694 311.362 972.12C309.89 968.441 309.154 964.553 309.154 960.243C309.154 955.934 309.89 952.045 311.362 948.366C312.833 944.688 314.726 941.64 317.248 939.012C319.771 936.384 322.715 934.282 326.184 932.811C329.652 931.339 333.332 930.604 337.326 930.604C343.423 930.604 348.784 932.075 353.304 935.123C357.824 938.171 361.188 942.48 363.185 948.261L354.04 952.465C352.884 949.102 350.886 946.264 348.048 944.057C345.21 941.85 341.636 940.799 337.431 940.799C331.965 940.799 327.55 942.585 324.291 946.159C321.033 949.733 319.351 954.462 319.351 960.243C319.351 966.024 321.033 970.754 324.291 974.327C327.55 977.901 331.965 979.688 337.431 979.688C341.741 979.688 345.42 978.532 348.258 976.324C351.097 974.117 353.094 971.279 354.145 967.706L363.29 971.91L363.185 972.015Z" fill="black"/>
<path d="M436.558 988.727L418.478 959.297L406.284 970.754V988.727H396.192V931.76H406.284V956.985L432.774 931.76H447.385L426.361 951.835L449.908 988.727H436.558Z" fill="black"/>
<path d="M488.802 941.955H469.46V957.721H488.802C491.85 957.721 494.163 956.985 495.635 955.408C497.106 953.832 497.947 952.045 497.947 949.838C497.947 947.631 497.212 945.844 495.635 944.267C494.163 942.691 491.85 941.955 488.802 941.955ZM497.632 988.727L487.015 967.811H469.46V988.727H459.264V931.76H489.012C491.745 931.76 494.268 932.18 496.581 933.126C498.893 934.072 500.891 935.333 502.573 936.91C504.255 938.486 505.621 940.378 506.567 942.586C507.513 944.793 508.039 947.105 508.039 949.628C508.039 953.201 507.093 956.46 505.201 959.402C503.308 962.345 500.68 964.553 497.527 966.024L509.826 988.832H497.737L497.632 988.727Z" fill="black"/>
<path d="M536 963.921H554.922L545.461 939.431L535.895 963.921H536ZM564.593 988.726L558.916 974.116H532.111L526.54 988.726H515.607L537.577 931.759H553.66L575.63 988.726H564.698H564.593ZM554.712 915.047L556.814 924.191L536.106 928.185L534.319 920.723L554.606 915.152L554.712 915.047Z" fill="black"/>
<path d="M594.236 978.532H627.558V988.727H584.039V931.76H594.236V978.532Z" fill="black"/>
<path d="M678.751 960.243C678.751 954.462 677.069 949.733 673.811 946.159C670.552 942.585 666.137 940.799 660.671 940.799C655.205 940.799 650.79 942.585 647.531 946.159C644.272 949.733 642.59 954.462 642.59 960.243C642.59 966.024 644.272 970.754 647.531 974.327C650.79 977.901 655.205 979.688 660.671 979.688C666.137 979.688 670.552 977.901 673.811 974.327C677.069 970.754 678.751 966.024 678.751 960.243ZM632.499 960.243C632.499 955.934 633.235 952.045 634.707 948.366C636.178 944.688 638.07 941.64 640.593 939.012C643.116 936.384 646.059 934.282 649.528 932.811C652.997 931.339 656.676 930.604 660.671 930.604C664.665 930.604 668.45 931.339 671.814 932.811C675.177 934.282 678.226 936.384 680.749 939.012C683.272 941.64 685.269 944.793 686.635 948.366C688.107 952.045 688.738 955.934 688.738 960.243C688.738 964.553 688.002 968.441 686.635 972.12C685.164 975.799 683.272 978.847 680.749 981.475C678.226 984.102 675.282 986.204 671.814 987.676C668.345 989.147 664.665 989.883 660.671 989.883C656.676 989.883 652.892 989.147 649.528 987.676C646.059 986.204 643.116 984.102 640.593 981.475C638.07 978.847 636.073 975.694 634.707 972.12C633.235 968.441 632.499 964.553 632.499 960.243Z" fill="black"/>
<path d="M704.821 931.76L721.114 979.478L737.513 931.76H748.445L728.998 988.727H713.335L693.783 931.76H704.821Z" fill="black"/>
<path d="M790.282 915.047L792.384 924.191L771.676 928.185L769.889 920.723L790.177 915.152L790.282 915.047ZM803.737 941.954H767.576V955.092H803.001V965.182H767.576V978.531H804.158V988.726H757.38V931.759H803.737V941.954Z" fill="black"/>
<path d="M41.1015 1090.36V1066.82H10.1965V1090.36H0V1033.5H10.1965V1056.63H41.1015V1033.5H51.298V1090.36H41.1015Z" fill="black"/>
<path d="M94.6067 1043.59H75.2649V1059.36H94.6067C97.6552 1059.36 99.9678 1058.62 101.439 1057.05C102.911 1055.47 103.752 1053.68 103.752 1051.47C103.752 1049.27 103.016 1047.48 101.439 1045.9C99.9678 1044.33 97.6552 1043.59 94.6067 1043.59ZM103.437 1090.36L92.8197 1069.45H75.2649V1090.36H65.0684V1033.4H94.817C97.5501 1033.4 100.073 1033.82 102.386 1034.76C104.698 1035.71 106.695 1036.97 108.377 1038.55C110.059 1040.12 111.426 1042.02 112.372 1044.22C113.318 1046.43 113.843 1048.74 113.843 1051.26C113.843 1054.84 112.897 1058.1 111.005 1061.04C109.113 1063.98 106.485 1066.19 103.332 1067.66L115.63 1090.47H103.542L103.437 1090.36Z" fill="black"/>
<path d="M141.805 1065.56H160.727L151.266 1041.07L141.7 1065.56H141.805ZM170.397 1090.36L164.721 1075.75H137.916L132.344 1090.36H121.412L143.382 1033.4H159.465L181.435 1090.36H170.503H170.397Z" fill="black"/>
<path d="M200.04 1043.59V1080.17H212.865C218.331 1080.17 222.746 1078.49 226.005 1075.23C229.263 1071.97 230.945 1067.45 230.945 1061.88C230.945 1056.31 229.263 1051.9 226.005 1048.53C222.746 1045.27 218.331 1043.59 212.865 1043.59H200.04ZM212.865 1033.4C216.859 1033.4 220.644 1034.13 224.007 1035.5C227.476 1036.86 230.42 1038.86 232.942 1041.38C235.465 1043.91 237.463 1046.85 238.829 1050.32C240.301 1053.79 241.037 1057.68 241.037 1061.88C241.037 1066.08 240.301 1069.87 238.829 1073.44C237.357 1077.02 235.465 1079.96 232.942 1082.48C230.42 1085 227.476 1086.9 224.007 1088.37C220.538 1089.73 216.859 1090.47 212.865 1090.47H189.844V1033.5H212.865V1033.4Z" fill="black"/>
<path d="M298.432 1043.59H262.271V1056.84H297.696V1066.93H262.271V1080.27H298.852V1090.36H252.074V1033.5H298.432V1043.59Z" fill="black"/>
<path d="M363.185 1073.76C361.398 1079.43 358.14 1083.74 353.514 1086.9C348.784 1090.05 343.423 1091.63 337.326 1091.63C333.332 1091.63 329.547 1090.89 326.184 1089.42C322.715 1087.95 319.771 1085.84 317.248 1083.22C314.726 1080.59 312.728 1077.44 311.362 1073.86C309.89 1070.18 309.154 1066.29 309.154 1061.99C309.154 1057.68 309.89 1053.79 311.362 1050.11C312.833 1046.43 314.726 1043.38 317.248 1040.75C319.771 1038.13 322.715 1036.02 326.184 1034.55C329.652 1033.08 333.332 1032.35 337.326 1032.35C343.423 1032.35 348.784 1033.82 353.304 1036.87C357.824 1039.91 361.188 1044.22 363.185 1050L354.04 1054.21C352.884 1050.84 350.886 1048.01 348.048 1045.8C345.21 1043.59 341.636 1042.54 337.431 1042.54C331.965 1042.54 327.55 1044.33 324.291 1047.9C321.033 1051.47 319.351 1056.2 319.351 1061.99C319.351 1067.77 321.033 1072.5 324.291 1076.07C327.55 1079.64 331.965 1081.43 337.431 1081.43C341.741 1081.43 345.42 1080.27 348.258 1078.07C351.097 1075.86 353.094 1073.02 354.145 1069.45L363.29 1073.65L363.185 1073.76Z" fill="black"/>
<path d="M436.558 1090.36L418.478 1060.93L406.284 1072.39V1090.36H396.192V1033.5H406.284V1058.62L432.774 1033.5H447.385L426.361 1053.47L449.908 1090.36H436.558Z" fill="black"/>
<path d="M488.802 1043.59H469.46V1059.36H488.802C491.85 1059.36 494.163 1058.62 495.635 1057.05C497.106 1055.47 497.947 1053.68 497.947 1051.47C497.947 1049.27 497.212 1047.48 495.635 1045.9C494.163 1044.33 491.85 1043.59 488.802 1043.59ZM497.632 1090.36L487.015 1069.45H469.46V1090.36H459.264V1033.4H489.012C491.745 1033.4 494.268 1033.82 496.581 1034.76C498.893 1035.71 500.891 1036.97 502.573 1038.55C504.255 1040.12 505.621 1042.02 506.567 1044.22C507.513 1046.43 508.039 1048.74 508.039 1051.26C508.039 1054.84 507.093 1058.1 505.201 1061.04C503.308 1063.98 500.68 1066.19 497.527 1067.66L509.826 1090.47H497.737L497.632 1090.36Z" fill="black"/>
<path d="M536 1065.56H554.922L545.461 1041.07L535.895 1065.56H536ZM564.593 1090.36L558.916 1075.75H532.111L526.54 1090.36H515.607L537.577 1033.4H553.66L575.63 1090.36H564.698H564.593ZM554.712 1016.68L556.814 1025.83L536.106 1029.82L534.319 1022.36L554.606 1016.79L554.712 1016.68Z" fill="black"/>
<path d="M594.236 1080.27H627.558V1090.36H584.039V1033.5H594.236V1080.27Z" fill="black"/>
<path d="M678.751 1061.88C678.751 1056.1 677.069 1051.37 673.811 1047.8C670.552 1044.22 666.137 1042.44 660.671 1042.44C655.205 1042.44 650.79 1044.22 647.531 1047.8C644.272 1051.37 642.59 1056.1 642.59 1061.88C642.59 1067.66 644.272 1072.39 647.531 1075.96C650.79 1079.54 655.205 1081.32 660.671 1081.32C666.137 1081.32 670.552 1079.54 673.811 1075.96C677.069 1072.39 678.751 1067.66 678.751 1061.88ZM632.499 1061.88C632.499 1057.57 633.235 1053.68 634.707 1050C636.178 1046.32 638.07 1043.28 640.593 1040.65C643.116 1038.02 646.059 1035.92 649.528 1034.45C652.997 1032.98 656.676 1032.24 660.671 1032.24C664.665 1032.24 668.45 1032.98 671.814 1034.45C675.177 1035.92 678.226 1038.02 680.749 1040.65C683.272 1043.28 685.269 1046.43 686.635 1050C688.107 1053.68 688.738 1057.57 688.738 1061.88C688.738 1066.19 688.002 1070.08 686.635 1073.76C685.164 1077.44 683.272 1080.48 680.749 1083.11C678.226 1085.74 675.282 1087.84 671.814 1089.31C668.345 1090.78 664.665 1091.52 660.671 1091.52C656.676 1091.52 652.892 1090.78 649.528 1089.31C646.059 1087.84 643.116 1085.74 640.593 1083.11C638.07 1080.48 636.073 1077.33 634.707 1073.76C633.235 1070.08 632.499 1066.19 632.499 1061.88Z" fill="black"/>
<path d="M704.821 1033.5L721.114 1081.11L737.513 1033.5H748.445L728.998 1090.36H713.335L693.783 1033.5H704.821Z" fill="black"/>
<path d="M790.282 1016.68L792.384 1025.83L771.676 1029.82L769.889 1022.36L790.177 1016.79L790.282 1016.68ZM803.737 1043.59H767.576V1056.73H803.001V1066.82H767.576V1080.17H804.158V1090.36H757.38V1033.4H803.737V1043.59Z" fill="black"/>
<path d="M41.1015 1192.11V1168.46H10.1965V1192.11H0V1135.14H10.1965V1158.26H41.1015V1135.14H51.298V1192.11H41.1015Z" fill="black"/>
<path d="M94.6067 1145.33H75.2649V1161.1H94.6067C97.6552 1161.1 99.9678 1160.36 101.439 1158.79C102.911 1157.21 103.752 1155.42 103.752 1153.22C103.752 1151.01 103.016 1149.22 101.439 1147.65C99.9678 1146.07 97.6552 1145.33 94.6067 1145.33ZM103.437 1192.11L92.8197 1171.19H75.2649V1192.11H65.0684V1135.14H94.817C97.5501 1135.14 100.073 1135.56 102.386 1136.51C104.698 1137.45 106.695 1138.71 108.377 1140.29C110.059 1141.87 111.426 1143.76 112.372 1145.96C113.318 1148.17 113.843 1150.48 113.843 1153.01C113.843 1156.58 112.897 1159.84 111.005 1162.78C109.113 1165.72 106.485 1167.93 103.332 1169.4L115.63 1192.21H103.542L103.437 1192.11Z" fill="black"/>
<path d="M141.805 1167.3H160.727L151.266 1142.81L141.7 1167.3H141.805ZM170.397 1192.11L164.721 1177.5H137.916L132.344 1192.11H121.412L143.382 1135.14H159.465L181.435 1192.11H170.503H170.397Z" fill="black"/>
<path d="M200.04 1145.33V1181.91H212.865C218.331 1181.91 222.746 1180.23 226.005 1176.97C229.263 1173.71 230.945 1169.19 230.945 1163.62C230.945 1158.05 229.263 1153.64 226.005 1150.27C222.746 1147.02 218.331 1145.33 212.865 1145.33H200.04ZM212.865 1135.14C216.859 1135.14 220.644 1135.87 224.007 1137.24C227.476 1138.61 230.42 1140.6 232.942 1143.13C235.465 1145.65 237.463 1148.59 238.829 1152.06C240.301 1155.53 241.037 1159.42 241.037 1163.62C241.037 1167.83 240.301 1171.61 238.829 1175.18C237.357 1178.76 235.465 1181.7 232.942 1184.22C230.42 1186.75 227.476 1188.64 224.007 1190.11C220.538 1191.48 216.859 1192.21 212.865 1192.21H189.844V1135.24H212.865V1135.14Z" fill="black"/>
<path d="M298.432 1145.33H262.271V1158.47H297.696V1168.56H262.271V1181.91H298.852V1192.11H252.074V1135.14H298.432V1145.33Z" fill="black"/>
<path d="M363.185 1175.39C361.398 1181.07 358.14 1185.38 353.514 1188.53C348.784 1191.69 343.423 1193.26 337.326 1193.26C333.332 1193.26 329.547 1192.53 326.184 1191.05C322.715 1189.58 319.771 1187.48 317.248 1184.85C314.726 1182.23 312.728 1179.07 311.362 1175.5C309.89 1171.82 309.154 1167.93 309.154 1163.62C309.154 1159.31 309.89 1155.42 311.362 1151.75C312.833 1148.07 314.726 1145.02 317.248 1142.39C319.771 1139.76 322.715 1137.66 326.184 1136.19C329.652 1134.72 333.332 1133.98 337.326 1133.98C343.423 1133.98 348.784 1135.45 353.304 1138.5C357.824 1141.55 361.188 1145.86 363.185 1151.64L354.04 1155.84C352.884 1152.48 350.886 1149.64 348.048 1147.44C345.21 1145.23 341.636 1144.18 337.431 1144.18C331.965 1144.18 327.55 1145.96 324.291 1149.54C321.033 1153.11 319.351 1157.84 319.351 1163.62C319.351 1169.4 321.033 1174.13 324.291 1177.71C327.55 1181.28 331.965 1183.07 337.431 1183.07C341.741 1183.07 345.42 1181.91 348.258 1179.7C351.097 1177.5 353.094 1174.66 354.145 1171.08L363.29 1175.29L363.185 1175.39Z" fill="black"/>
<path d="M436.558 1192.11L418.478 1162.57L406.284 1174.13V1192.11H396.192V1135.14H406.284V1160.36L432.774 1135.14H447.385L426.361 1155.11L449.908 1192.11H436.558Z" fill="black"/>
<path d="M488.802 1145.33H469.46V1161.1H488.802C491.85 1161.1 494.163 1160.36 495.635 1158.79C497.106 1157.21 497.947 1155.42 497.947 1153.22C497.947 1151.01 497.212 1149.22 495.635 1147.65C494.163 1146.07 491.85 1145.33 488.802 1145.33ZM497.632 1192.11L487.015 1171.19H469.46V1192.11H459.264V1135.14H489.012C491.745 1135.14 494.268 1135.56 496.581 1136.51C498.893 1137.45 500.891 1138.71 502.573 1140.29C504.255 1141.87 505.621 1143.76 506.567 1145.96C507.513 1148.17 508.039 1150.48 508.039 1153.01C508.039 1156.58 507.093 1159.84 505.201 1162.78C503.308 1165.72 500.68 1167.93 497.527 1169.4L509.826 1192.21H497.737L497.632 1192.11Z" fill="black"/>
<path d="M536 1167.3H554.922L545.461 1142.81L535.895 1167.3H536ZM564.593 1192.1L558.916 1177.49H532.111L526.54 1192.1H515.607L537.577 1135.14H553.66L575.63 1192.1H564.698H564.593ZM554.712 1118.43L556.814 1127.57L536.106 1131.56L534.319 1124.1L554.606 1118.53L554.712 1118.43Z" fill="black"/>
<path d="M594.236 1181.91H627.558V1192.11H584.039V1135.14H594.236V1181.91Z" fill="black"/>
<path d="M678.751 1163.62C678.751 1157.84 677.069 1153.11 673.811 1149.54C670.552 1145.96 666.137 1144.18 660.671 1144.18C655.205 1144.18 650.79 1145.96 647.531 1149.54C644.272 1153.11 642.59 1157.84 642.59 1163.62C642.59 1169.4 644.272 1174.13 647.531 1177.71C650.79 1181.28 655.205 1183.07 660.671 1183.07C666.137 1183.07 670.552 1181.28 673.811 1177.71C677.069 1174.13 678.751 1169.4 678.751 1163.62ZM632.499 1163.62C632.499 1159.31 633.235 1155.42 634.707 1151.75C636.178 1148.07 638.07 1145.02 640.593 1142.39C643.116 1139.76 646.059 1137.66 649.528 1136.19C652.997 1134.72 656.676 1133.98 660.671 1133.98C664.665 1133.98 668.45 1134.72 671.814 1136.19C675.177 1137.66 678.226 1139.76 680.749 1142.39C683.272 1145.02 685.269 1148.17 686.635 1151.75C688.107 1155.42 688.738 1159.31 688.738 1163.62C688.738 1167.93 688.002 1171.82 686.635 1175.5C685.164 1179.18 683.272 1182.23 680.749 1184.85C678.226 1187.48 675.282 1189.58 671.814 1191.05C668.345 1192.53 664.665 1193.26 660.671 1193.26C656.676 1193.26 652.892 1192.53 649.528 1191.05C646.059 1189.58 643.116 1187.48 640.593 1184.85C638.07 1182.23 636.073 1179.07 634.707 1175.5C633.235 1171.82 632.499 1167.93 632.499 1163.62Z" fill="black"/>
<path d="M704.821 1135.14L721.114 1182.75L737.513 1135.14H748.445L728.998 1192.11H713.335L693.783 1135.14H704.821Z" fill="black"/>
<path d="M790.282 1118.32L792.384 1127.47L771.676 1131.46L769.889 1124L790.177 1118.43L790.282 1118.32ZM803.737 1145.23H767.576V1158.37H803.001V1168.46H767.576V1181.81H804.158V1192H757.38V1135.03H803.737V1145.23Z" fill="black"/>
<path d="M41.1015 1293.74V1270.09H10.1965V1293.74H0V1236.78H10.1965V1260H41.1015V1236.78H51.298V1293.74H41.1015Z" fill="black"/>
<path d="M94.6067 1246.97H75.2649V1262.74H94.6067C97.6552 1262.74 99.9678 1262 101.439 1260.42C102.911 1258.85 103.752 1257.06 103.752 1254.85C103.752 1252.65 103.016 1250.86 101.439 1249.28C99.9678 1247.71 97.6552 1246.97 94.6067 1246.97ZM103.437 1293.74L92.8197 1272.83H75.2649V1293.74H65.0684V1236.78H94.817C97.5501 1236.78 100.073 1237.2 102.386 1238.14C104.698 1239.09 106.695 1240.35 108.377 1241.93C110.059 1243.5 111.426 1245.39 112.372 1247.6C113.318 1249.81 113.843 1252.12 113.843 1254.64C113.843 1258.22 112.897 1261.48 111.005 1264.42C109.113 1267.36 106.485 1269.57 103.332 1271.04L115.63 1293.85H103.542L103.437 1293.74Z" fill="black"/>
<path d="M141.805 1268.94H160.727L151.266 1244.45L141.7 1268.94H141.805ZM170.397 1293.74L164.721 1279.13H137.916L132.344 1293.74H121.412L143.382 1236.78H159.465L181.435 1293.74H170.503H170.397Z" fill="black"/>
<path d="M200.04 1246.97V1283.55H212.865C218.331 1283.55 222.746 1281.87 226.005 1278.61C229.263 1275.35 230.945 1270.83 230.945 1265.26C230.945 1259.69 229.263 1255.27 226.005 1251.91C222.746 1248.65 218.331 1246.97 212.865 1246.97H200.04ZM212.865 1236.78C216.859 1236.78 220.644 1237.51 224.007 1238.88C227.476 1240.24 230.42 1242.24 232.942 1244.76C235.465 1247.29 237.463 1250.23 238.829 1253.7C240.301 1257.17 241.037 1261.05 241.037 1265.26C241.037 1269.46 240.301 1273.25 238.829 1276.82C237.357 1280.39 235.465 1283.34 232.942 1285.86C230.42 1288.38 227.476 1290.27 224.007 1291.75C220.538 1293.11 216.859 1293.85 212.865 1293.85H189.844V1236.88H212.865V1236.78Z" fill="black"/>
<path d="M298.432 1246.97H262.271V1260.11H297.696V1270.2H262.271V1283.55H298.852V1293.74H252.074V1236.78H298.432V1246.97Z" fill="black"/>
<path d="M363.185 1277.03C361.398 1282.71 358.14 1287.02 353.514 1290.17C348.784 1293.32 343.423 1294.9 337.326 1294.9C333.332 1294.9 329.547 1294.16 326.184 1292.69C322.715 1291.22 319.771 1289.12 317.248 1286.49C314.726 1283.86 312.728 1280.71 311.362 1277.14C309.89 1273.46 309.154 1269.57 309.154 1265.26C309.154 1260.95 309.89 1257.06 311.362 1253.38C312.833 1249.7 314.726 1246.66 317.248 1244.03C319.771 1241.4 322.715 1239.3 326.184 1237.83C329.652 1236.35 333.332 1235.62 337.326 1235.62C343.423 1235.62 348.784 1237.09 353.304 1240.14C357.824 1243.19 361.188 1247.5 363.185 1253.28L354.04 1257.48C352.884 1254.12 350.886 1251.28 348.048 1249.07C345.21 1246.87 341.636 1245.81 337.431 1245.81C331.965 1245.81 327.55 1247.6 324.291 1251.17C321.033 1254.75 319.351 1259.48 319.351 1265.26C319.351 1271.04 321.033 1275.77 324.291 1279.34C327.55 1282.92 331.965 1284.7 337.431 1284.7C341.741 1284.7 345.42 1283.55 348.258 1281.34C351.097 1279.13 353.094 1276.29 354.145 1272.72L363.29 1276.93L363.185 1277.03Z" fill="black"/>
<path d="M436.558 1293.74L418.478 1264.31L406.284 1275.77V1293.74H396.192V1236.78H406.284V1262L432.774 1236.78H447.385L426.361 1256.85L449.908 1293.74H436.558Z" fill="black"/>
<path d="M488.802 1246.97H469.46V1262.74H488.802C491.85 1262.74 494.163 1262 495.635 1260.42C497.106 1258.85 497.947 1257.06 497.947 1254.85C497.947 1252.65 497.212 1250.86 495.635 1249.28C494.163 1247.71 491.85 1246.97 488.802 1246.97ZM497.632 1293.74L487.015 1272.83H469.46V1293.74H459.264V1236.78H489.012C491.745 1236.78 494.268 1237.2 496.581 1238.14C498.893 1239.09 500.891 1240.35 502.573 1241.93C504.255 1243.5 505.621 1245.39 506.567 1247.6C507.513 1249.81 508.039 1252.12 508.039 1254.64C508.039 1258.22 507.093 1261.48 505.201 1264.42C503.308 1267.36 500.68 1269.57 497.527 1271.04L509.826 1293.85H497.737L497.632 1293.74Z" fill="black"/>
<path d="M536 1268.94H554.922L545.461 1244.45L535.895 1268.94H536ZM564.593 1293.74L558.916 1279.13H532.111L526.54 1293.74H515.607L537.577 1236.77H553.66L575.63 1293.74H564.698H564.593ZM554.712 1220.06L556.814 1229.21L536.106 1233.2L534.319 1225.74L554.606 1220.17L554.712 1220.06Z" fill="black"/>
<path d="M594.236 1283.55H627.558V1293.74H584.039V1236.78H594.236V1283.55Z" fill="black"/>
<path d="M678.751 1265.26C678.751 1259.48 677.069 1254.75 673.811 1251.17C670.552 1247.6 666.137 1245.81 660.671 1245.81C655.205 1245.81 650.79 1247.6 647.531 1251.17C644.272 1254.75 642.59 1259.48 642.59 1265.26C642.59 1271.04 644.272 1275.77 647.531 1279.34C650.79 1282.92 655.205 1284.7 660.671 1284.7C666.137 1284.7 670.552 1282.92 673.811 1279.34C677.069 1275.77 678.751 1271.04 678.751 1265.26ZM632.499 1265.26C632.499 1260.95 633.235 1257.06 634.707 1253.38C636.178 1249.7 638.07 1246.66 640.593 1244.03C643.116 1241.4 646.059 1239.3 649.528 1237.83C652.997 1236.35 656.676 1235.62 660.671 1235.62C664.665 1235.62 668.45 1236.35 671.814 1237.83C675.177 1239.3 678.226 1241.4 680.749 1244.03C683.272 1246.66 685.269 1249.81 686.635 1253.38C688.107 1257.06 688.738 1260.95 688.738 1265.26C688.738 1269.57 688.002 1273.46 686.635 1277.14C685.164 1280.81 683.272 1283.86 680.749 1286.49C678.226 1289.12 675.282 1291.22 671.814 1292.69C668.345 1294.16 664.665 1294.9 660.671 1294.9C656.676 1294.9 652.892 1294.16 649.528 1292.69C646.059 1291.22 643.116 1289.12 640.593 1286.49C638.07 1283.86 636.073 1280.71 634.707 1277.14C633.235 1273.46 632.499 1269.57 632.499 1265.26Z" fill="black"/>
<path d="M704.821 1236.78L721.114 1284.49L737.513 1236.78H748.445L728.998 1293.74H713.335L693.783 1236.78H704.821Z" fill="black"/>
<path d="M790.282 1220.06L792.384 1229.21L771.676 1233.2L769.889 1225.74L790.177 1220.17L790.282 1220.06ZM803.737 1246.97H767.576V1260.11H803.001V1270.2H767.576V1283.55H804.158V1293.74H757.38V1236.77H803.737V1246.97Z" fill="black"/>
<path d="M41.1015 1395.38V1371.84H10.1965V1395.38H0V1338.52H10.1965V1361.64H41.1015V1338.52H51.298V1395.38H41.1015Z" fill="black"/>
<path d="M94.6067 1348.61H75.2649V1364.37H94.6067C97.6552 1364.37 99.9678 1363.64 101.439 1362.06C102.911 1360.48 103.752 1358.7 103.752 1356.49C103.752 1354.28 103.016 1352.5 101.439 1350.92C99.9678 1349.34 97.6552 1348.61 94.6067 1348.61ZM103.437 1395.38L92.8197 1374.46H75.2649V1395.38H65.0684V1338.41H94.817C97.5501 1338.41 100.073 1338.83 102.386 1339.78C104.698 1340.72 106.695 1341.99 108.377 1343.56C110.059 1345.14 111.426 1347.03 112.372 1349.24C113.318 1351.45 113.843 1353.76 113.843 1356.28C113.843 1359.85 112.897 1363.11 111.005 1366.05C109.113 1369 106.485 1371.21 103.332 1372.68L115.63 1395.48H103.542L103.437 1395.38Z" fill="black"/>
<path d="M141.805 1370.57H160.727L151.266 1346.08L141.7 1370.57H141.805ZM170.397 1395.38L164.721 1380.77H137.916L132.344 1395.38H121.412L143.382 1338.41H159.465L181.435 1395.38H170.503H170.397Z" fill="black"/>
<path d="M200.04 1348.61V1385.18H212.865C218.331 1385.18 222.746 1383.5 226.005 1380.24C229.263 1376.99 230.945 1372.47 230.945 1366.9C230.945 1361.33 229.263 1356.91 226.005 1353.55C222.746 1350.29 218.331 1348.61 212.865 1348.61H200.04ZM212.865 1338.41C216.859 1338.41 220.644 1339.15 224.007 1340.51C227.476 1341.88 230.42 1343.88 232.942 1346.4C235.465 1348.92 237.463 1351.87 238.829 1355.33C240.301 1358.8 241.037 1362.69 241.037 1366.9C241.037 1371.1 240.301 1374.88 238.829 1378.46C237.357 1382.03 235.465 1384.97 232.942 1387.5C230.42 1390.02 227.476 1391.91 224.007 1393.38C220.538 1394.75 216.859 1395.48 212.865 1395.48H189.844V1338.52H212.865V1338.41Z" fill="black"/>
<path d="M298.432 1348.61H262.271V1361.85H297.696V1371.94H262.271V1385.18H298.852V1395.38H252.074V1338.52H298.432V1348.61Z" fill="black"/>
<path d="M363.185 1378.77C361.398 1384.45 358.14 1388.76 353.514 1391.91C348.784 1395.06 343.423 1396.64 337.326 1396.64C333.332 1396.64 329.547 1395.91 326.184 1394.43C322.715 1392.96 319.771 1390.86 317.248 1388.23C314.726 1385.6 312.728 1382.45 311.362 1378.88C309.89 1375.2 309.154 1371.31 309.154 1367C309.154 1362.69 309.89 1358.8 311.362 1355.12C312.833 1351.45 314.726 1348.4 317.248 1345.77C319.771 1343.14 322.715 1341.04 326.184 1339.57C329.652 1338.1 333.332 1337.36 337.326 1337.36C343.423 1337.36 348.784 1338.83 353.304 1341.88C357.824 1344.93 361.188 1349.24 363.185 1355.02L354.04 1359.22C352.884 1355.86 350.886 1353.02 348.048 1350.81C345.21 1348.61 341.636 1347.56 337.431 1347.56C331.965 1347.56 327.55 1349.34 324.291 1352.92C321.033 1356.49 319.351 1361.22 319.351 1367C319.351 1372.78 321.033 1377.51 324.291 1381.09C327.55 1384.66 331.965 1386.45 337.431 1386.45C341.741 1386.45 345.42 1385.29 348.258 1383.08C351.097 1380.87 353.094 1378.04 354.145 1374.46L363.29 1378.67L363.185 1378.77Z" fill="black"/>
<path d="M436.558 1395.38L418.478 1365.95L406.284 1377.41V1395.38H396.192V1338.52H406.284V1363.64L432.774 1338.52H447.385L426.361 1358.49L449.908 1395.38H436.558Z" fill="black"/>
<path d="M488.802 1348.61H469.46V1364.37H488.802C491.85 1364.37 494.163 1363.64 495.635 1362.06C497.106 1360.48 497.947 1358.7 497.947 1356.49C497.947 1354.28 497.212 1352.5 495.635 1350.92C494.163 1349.34 491.85 1348.61 488.802 1348.61ZM497.632 1395.38L487.015 1374.46H469.46V1395.38H459.264V1338.41H489.012C491.745 1338.41 494.268 1338.83 496.581 1339.78C498.893 1340.72 500.891 1341.99 502.573 1343.56C504.255 1345.14 505.621 1347.03 506.567 1349.24C507.513 1351.45 508.039 1353.76 508.039 1356.28C508.039 1359.85 507.093 1363.11 505.201 1366.05C503.308 1369 500.68 1371.21 497.527 1372.68L509.826 1395.48H497.737L497.632 1395.38Z" fill="black"/>
<path d="M536 1370.58H554.922L545.461 1346.09L535.895 1370.58H536ZM564.593 1395.38L558.916 1380.77H532.111L526.54 1395.38H515.607L537.577 1338.41H553.66L575.63 1395.38H564.698H564.593ZM554.712 1321.7L556.814 1330.85L536.106 1334.84L534.319 1327.38L554.606 1321.81L554.712 1321.7Z" fill="black"/>
<path d="M594.236 1385.18H627.558V1395.38H584.039V1338.52H594.236V1385.18Z" fill="black"/>
<path d="M678.751 1366.9C678.751 1361.11 677.069 1356.39 673.811 1352.81C670.552 1349.24 666.137 1347.45 660.671 1347.45C655.205 1347.45 650.79 1349.24 647.531 1352.81C644.272 1356.39 642.59 1361.11 642.59 1366.9C642.59 1372.68 644.272 1377.41 647.531 1380.98C650.79 1384.55 655.205 1386.34 660.671 1386.34C666.137 1386.34 670.552 1384.55 673.811 1380.98C677.069 1377.41 678.751 1372.68 678.751 1366.9ZM632.499 1366.9C632.499 1362.59 633.235 1358.7 634.707 1355.02C636.178 1351.34 638.07 1348.29 640.593 1345.66C643.116 1343.04 646.059 1340.93 649.528 1339.46C652.997 1337.99 656.676 1337.26 660.671 1337.26C664.665 1337.26 668.45 1337.99 671.814 1339.46C675.177 1340.93 678.226 1343.04 680.749 1345.66C683.272 1348.29 685.269 1351.45 686.635 1355.02C688.107 1358.7 688.738 1362.59 688.738 1366.9C688.738 1371.2 688.002 1375.09 686.635 1378.77C685.164 1382.45 683.272 1385.5 680.749 1388.13C678.226 1390.75 675.282 1392.86 671.814 1394.33C668.345 1395.8 664.665 1396.54 660.671 1396.54C656.676 1396.54 652.892 1395.8 649.528 1394.33C646.059 1392.86 643.116 1390.75 640.593 1388.13C638.07 1385.5 636.073 1382.35 634.707 1378.77C633.235 1375.09 632.499 1371.2 632.499 1366.9Z" fill="black"/>
<path d="M704.821 1338.52L721.114 1386.13L737.513 1338.52H748.445L728.998 1395.38H713.335L693.783 1338.52H704.821Z" fill="black"/>
<path d="M790.282 1321.7L792.384 1330.85L771.676 1334.84L769.889 1327.38L790.177 1321.81L790.282 1321.7ZM803.737 1348.61H767.576V1361.75H803.001V1371.84H767.576V1385.18H804.158V1395.38H757.38V1338.41H803.737V1348.61Z" fill="black"/>
<path d="M41.1015 1497.12V1473.47H10.1965V1497.12H0V1440.15H10.1965V1463.28H41.1015V1440.15H51.298V1497.12H41.1015Z" fill="black"/>
<path d="M94.6067 1450.35H75.2649V1466.12H94.6067C97.6552 1466.12 99.9678 1465.38 101.439 1463.8C102.911 1462.23 103.752 1460.44 103.752 1458.23C103.752 1456.03 103.016 1454.24 101.439 1452.66C99.9678 1451.09 97.6552 1450.35 94.6067 1450.35ZM103.437 1497.12L92.8197 1476.21H75.2649V1497.12H65.0684V1440.15H94.817C97.5501 1440.15 100.073 1440.57 102.386 1441.52C104.698 1442.47 106.695 1443.73 108.377 1445.3C110.059 1446.88 111.426 1448.77 112.372 1450.98C113.318 1453.19 113.843 1455.5 113.843 1458.02C113.843 1461.6 112.897 1464.85 111.005 1467.8C109.113 1470.74 106.485 1472.95 103.332 1474.42L115.63 1497.23H103.542L103.437 1497.12Z" fill="black"/>
<path d="M141.805 1472.32H160.727L151.266 1447.83L141.7 1472.32H141.805ZM170.397 1497.12L164.721 1482.51H137.916L132.344 1497.12H121.412L143.382 1440.15H159.465L181.435 1497.12H170.503H170.397Z" fill="black"/>
<path d="M200.04 1450.35V1486.93H212.865C218.331 1486.93 222.746 1485.24 226.005 1481.99C229.263 1478.73 230.945 1474.21 230.945 1468.64C230.945 1463.07 229.263 1458.65 226.005 1455.29C222.746 1452.03 218.331 1450.35 212.865 1450.35H200.04ZM212.865 1440.15C216.859 1440.15 220.644 1440.89 224.007 1442.26C227.476 1443.62 230.42 1445.62 232.942 1448.14C235.465 1450.66 237.463 1453.61 238.829 1457.08C240.301 1460.54 241.037 1464.43 241.037 1468.64C241.037 1472.84 240.301 1476.63 238.829 1480.2C237.357 1483.77 235.465 1486.72 232.942 1489.24C230.42 1491.76 227.476 1493.65 224.007 1495.12C220.538 1496.49 216.859 1497.23 212.865 1497.23H189.844V1440.26H212.865V1440.15Z" fill="black"/>
<path d="M298.432 1450.35H262.271V1463.49H297.696V1473.58H262.271V1486.93H298.852V1497.12H252.074V1440.15H298.432V1450.35Z" fill="black"/>
<path d="M363.185 1480.41C361.398 1486.09 358.14 1490.39 353.514 1493.55C348.784 1496.7 343.423 1498.28 337.326 1498.28C333.332 1498.28 329.547 1497.54 326.184 1496.07C322.715 1494.6 319.771 1492.5 317.248 1489.87C314.726 1487.24 312.728 1484.09 311.362 1480.51C309.89 1476.84 309.154 1472.95 309.154 1468.64C309.154 1464.33 309.89 1460.44 311.362 1456.76C312.833 1453.08 314.726 1450.03 317.248 1447.41C319.771 1444.78 322.715 1442.68 326.184 1441.21C329.652 1439.73 333.332 1439 337.326 1439C343.423 1439 348.784 1440.47 353.304 1443.52C357.824 1446.57 361.188 1450.87 363.185 1456.66L354.04 1460.86C352.884 1457.5 350.886 1454.66 348.048 1452.45C345.21 1450.24 341.636 1449.19 337.431 1449.19C331.965 1449.19 327.55 1450.98 324.291 1454.55C321.033 1458.13 319.351 1462.86 319.351 1468.64C319.351 1474.42 321.033 1479.15 324.291 1482.72C327.55 1486.3 331.965 1488.08 337.431 1488.08C341.741 1488.08 345.42 1486.93 348.258 1484.72C351.097 1482.51 353.094 1479.67 354.145 1476.1L363.29 1480.3L363.185 1480.41Z" fill="black"/>
<path d="M436.558 1497.12L418.478 1467.59L406.284 1479.15V1497.12H396.192V1440.15H406.284V1465.38L432.774 1440.15H447.385L426.361 1460.12L449.908 1497.12H436.558Z" fill="black"/>
<path d="M488.802 1450.35H469.46V1466.12H488.802C491.85 1466.12 494.163 1465.38 495.635 1463.8C497.106 1462.23 497.947 1460.44 497.947 1458.23C497.947 1456.03 497.212 1454.24 495.635 1452.66C494.163 1451.09 491.85 1450.35 488.802 1450.35ZM497.632 1497.12L487.015 1476.21H469.46V1497.12H459.264V1440.15H489.012C491.745 1440.15 494.268 1440.57 496.581 1441.52C498.893 1442.47 500.891 1443.73 502.573 1445.3C504.255 1446.88 505.621 1448.77 506.567 1450.98C507.513 1453.19 508.039 1455.5 508.039 1458.02C508.039 1461.6 507.093 1464.85 505.201 1467.8C503.308 1470.74 500.68 1472.95 497.527 1474.42L509.826 1497.23H497.737L497.632 1497.12Z" fill="black"/>
<path d="M536 1472.32H554.922L545.461 1447.83L535.895 1472.32H536ZM564.593 1497.12L558.916 1482.51H532.111L526.54 1497.12H515.607L537.577 1440.15H553.66L575.63 1497.12H564.698H564.593ZM554.712 1423.44L556.814 1432.59L536.106 1436.58L534.319 1429.12L554.606 1423.55L554.712 1423.44Z" fill="black"/>
<path d="M594.236 1486.93H627.558V1497.12H584.039V1440.15H594.236V1486.93Z" fill="black"/>
<path d="M678.751 1468.64C678.751 1462.86 677.069 1458.13 673.811 1454.55C670.552 1450.98 666.137 1449.19 660.671 1449.19C655.205 1449.19 650.79 1450.98 647.531 1454.55C644.272 1458.13 642.59 1462.86 642.59 1468.64C642.59 1474.42 644.272 1479.15 647.531 1482.72C650.79 1486.3 655.205 1488.08 660.671 1488.08C666.137 1488.08 670.552 1486.3 673.811 1482.72C677.069 1479.15 678.751 1474.42 678.751 1468.64ZM632.499 1468.64C632.499 1464.33 633.235 1460.44 634.707 1456.76C636.178 1453.08 638.07 1450.03 640.593 1447.41C643.116 1444.78 646.059 1442.68 649.528 1441.21C652.997 1439.73 656.676 1439 660.671 1439C664.665 1439 668.45 1439.73 671.814 1441.21C675.177 1442.68 678.226 1444.78 680.749 1447.41C683.272 1450.03 685.269 1453.19 686.635 1456.76C688.107 1460.44 688.738 1464.33 688.738 1468.64C688.738 1472.95 688.002 1476.84 686.635 1480.51C685.164 1484.19 683.272 1487.24 680.749 1489.87C678.226 1492.5 675.282 1494.6 671.814 1496.07C668.345 1497.54 664.665 1498.28 660.671 1498.28C656.676 1498.28 652.892 1497.54 649.528 1496.07C646.059 1494.6 643.116 1492.5 640.593 1489.87C638.07 1487.24 636.073 1484.09 634.707 1480.51C633.235 1476.84 632.499 1472.95 632.499 1468.64Z" fill="black"/>
<path d="M704.821 1440.15L721.114 1487.77L737.513 1440.15H748.445L728.998 1497.12H713.335L693.783 1440.15H704.821Z" fill="black"/>
<path d="M790.282 1423.34L792.384 1432.48L771.676 1436.48L769.889 1429.01L790.177 1423.44L790.282 1423.34ZM803.737 1450.24H767.576V1463.38H803.001V1473.47H767.576V1486.82H804.158V1497.02H757.38V1440.05H803.737V1450.24Z" fill="black"/>
<path d="M41.1015 1598.76V1575.11H10.1965V1598.76H0V1541.79H10.1965V1565.02H41.1015V1541.79H51.298V1598.76H41.1015Z" fill="black"/>
<path d="M94.6067 1551.99H75.2649V1567.75H94.6067C97.6552 1567.75 99.9678 1567.02 101.439 1565.44C102.911 1563.86 103.752 1562.08 103.752 1559.87C103.752 1557.66 103.016 1555.88 101.439 1554.3C99.9678 1552.72 97.6552 1551.99 94.6067 1551.99ZM103.437 1598.76L92.8197 1577.84H75.2649V1598.76H65.0684V1541.79H94.817C97.5501 1541.79 100.073 1542.21 102.386 1543.16C104.698 1544.1 106.695 1545.36 108.377 1546.94C110.059 1548.52 111.426 1550.41 112.372 1552.62C113.318 1554.82 113.843 1557.14 113.843 1559.66C113.843 1563.23 112.897 1566.49 111.005 1569.43C109.113 1572.38 106.485 1574.58 103.332 1576.06L115.63 1598.86H103.542L103.437 1598.76Z" fill="black"/>
<path d="M141.805 1573.95H160.727L151.266 1549.46L141.7 1573.95H141.805ZM170.397 1598.76L164.721 1584.15H137.916L132.344 1598.76H121.412L143.382 1541.79H159.465L181.435 1598.76H170.503H170.397Z" fill="black"/>
<path d="M200.04 1551.99V1588.56H212.865C218.331 1588.56 222.746 1586.88 226.005 1583.62C229.263 1580.36 230.945 1575.85 230.945 1570.27C230.945 1564.7 229.263 1560.29 226.005 1556.93C222.746 1553.67 218.331 1551.99 212.865 1551.99H200.04ZM212.865 1541.79C216.859 1541.79 220.644 1542.53 224.007 1543.89C227.476 1545.26 230.42 1547.26 232.942 1549.78C235.465 1552.3 237.463 1555.24 238.829 1558.71C240.301 1562.18 241.037 1566.07 241.037 1570.27C241.037 1574.48 240.301 1578.26 238.829 1581.84C237.357 1585.41 235.465 1588.35 232.942 1590.88C230.42 1593.4 227.476 1595.29 224.007 1596.76C220.538 1598.13 216.859 1598.86 212.865 1598.86H189.844V1541.9H212.865V1541.79Z" fill="black"/>
<path d="M298.432 1551.99H262.271V1565.12H297.696V1575.21H262.271V1588.56H298.852V1598.76H252.074V1541.79H298.432V1551.99Z" fill="black"/>
<path d="M363.185 1582.05C361.398 1587.72 358.14 1592.03 353.514 1595.18C348.784 1598.34 343.423 1599.91 337.326 1599.91C333.332 1599.91 329.547 1599.18 326.184 1597.71C322.715 1596.24 319.771 1594.13 317.248 1591.51C314.726 1588.88 312.728 1585.72 311.362 1582.15C309.89 1578.47 309.154 1574.58 309.154 1570.27C309.154 1565.97 309.89 1562.08 311.362 1558.4C312.833 1554.72 314.726 1551.67 317.248 1549.04C319.771 1546.42 322.715 1544.31 326.184 1542.84C329.652 1541.37 333.332 1540.63 337.326 1540.63C343.423 1540.63 348.784 1542.11 353.304 1545.15C357.824 1548.2 361.188 1552.51 363.185 1558.29L354.04 1562.5C352.884 1559.13 350.886 1556.3 348.048 1554.09C345.21 1551.88 341.636 1550.83 337.431 1550.83C331.965 1550.83 327.55 1552.62 324.291 1556.19C321.033 1559.76 319.351 1564.49 319.351 1570.27C319.351 1576.06 321.033 1580.79 324.291 1584.36C327.55 1587.93 331.965 1589.72 337.431 1589.72C341.741 1589.72 345.42 1588.56 348.258 1586.36C351.097 1584.15 353.094 1581.31 354.145 1577.74L363.29 1581.94L363.185 1582.05Z" fill="black"/>
<path d="M436.558 1598.76L418.478 1569.33L406.284 1580.79V1598.76H396.192V1541.79H406.284V1567.02L432.774 1541.79H447.385L426.361 1561.87L449.908 1598.76H436.558Z" fill="black"/>
<path d="M488.802 1551.99H469.46V1567.75H488.802C491.85 1567.75 494.163 1567.02 495.635 1565.44C497.106 1563.86 497.947 1562.08 497.947 1559.87C497.947 1557.66 497.212 1555.88 495.635 1554.3C494.163 1552.72 491.85 1551.99 488.802 1551.99ZM497.632 1598.76L487.015 1577.84H469.46V1598.76H459.264V1541.79H489.012C491.745 1541.79 494.268 1542.21 496.581 1543.16C498.893 1544.1 500.891 1545.36 502.573 1546.94C504.255 1548.52 505.621 1550.41 506.567 1552.62C507.513 1554.82 508.039 1557.14 508.039 1559.66C508.039 1563.23 507.093 1566.49 505.201 1569.43C503.308 1572.38 500.68 1574.58 497.527 1576.06L509.826 1598.86H497.737L497.632 1598.76Z" fill="black"/>
<path d="M536 1573.95H554.922L545.461 1549.46L535.895 1573.95H536ZM564.593 1598.76L558.916 1584.15H532.111L526.54 1598.76H515.607L537.577 1541.79H553.66L575.63 1598.76H564.698H564.593ZM554.712 1525.08L556.814 1534.22L536.106 1538.22L534.319 1530.76L554.606 1525.19L554.712 1525.08Z" fill="black"/>
<path d="M594.236 1588.56H627.558V1598.76H584.039V1541.79H594.236V1588.56Z" fill="black"/>
<path d="M678.751 1570.27C678.751 1564.49 677.069 1559.76 673.811 1556.19C670.552 1552.62 666.137 1550.83 660.671 1550.83C655.205 1550.83 650.79 1552.62 647.531 1556.19C644.272 1559.76 642.59 1564.49 642.59 1570.27C642.59 1576.06 644.272 1580.79 647.531 1584.36C650.79 1587.93 655.205 1589.72 660.671 1589.72C666.137 1589.72 670.552 1587.93 673.811 1584.36C677.069 1580.79 678.751 1576.06 678.751 1570.27ZM632.499 1570.27C632.499 1565.97 633.235 1562.08 634.707 1558.4C636.178 1554.72 638.07 1551.67 640.593 1549.04C643.116 1546.42 646.059 1544.31 649.528 1542.84C652.997 1541.37 656.676 1540.63 660.671 1540.63C664.665 1540.63 668.45 1541.37 671.814 1542.84C675.177 1544.31 678.226 1546.42 680.749 1549.04C683.272 1551.67 685.269 1554.82 686.635 1558.4C688.107 1562.08 688.738 1565.97 688.738 1570.27C688.738 1574.58 688.002 1578.47 686.635 1582.15C685.164 1585.83 683.272 1588.88 680.749 1591.51C678.226 1594.13 675.282 1596.24 671.814 1597.71C668.345 1599.18 664.665 1599.91 660.671 1599.91C656.676 1599.91 652.892 1599.18 649.528 1597.71C646.059 1596.24 643.116 1594.13 640.593 1591.51C638.07 1588.88 636.073 1585.72 634.707 1582.15C633.235 1578.47 632.499 1574.58 632.499 1570.27Z" fill="black"/>
<path d="M704.821 1541.79L721.114 1589.51L737.513 1541.79H748.445L728.998 1598.76H713.335L693.783 1541.79H704.821Z" fill="black"/>
<path d="M790.282 1525.08L792.384 1534.22L771.676 1538.22L769.889 1530.76L790.177 1525.19L790.282 1525.08ZM803.737 1551.99H767.576V1565.13H803.001V1575.22H767.576V1588.56H804.158V1598.76H757.38V1541.79H803.737V1551.99Z" fill="black"/>
</svg>
