<svg width="1571" height="787" viewBox="0 0 1571 787" fill="none" xmlns="http://www.w3.org/2000/svg">
<path d="M41.1014 73.6781V50.1345H10.1965V73.6781H0V16.7109H10.1965V39.9392H41.1014V16.7109H51.298V73.6781H41.1014Z" fill="black"/>
<path d="M112.583 16.7109V50.7651C112.583 54.4438 111.952 57.8072 110.691 60.7501C109.43 63.6931 107.643 66.3207 105.435 68.3177C103.228 70.4198 100.705 71.9964 97.7614 73.1526C94.8181 74.3087 91.7696 74.8342 88.4058 74.8342C85.042 74.8342 81.9936 74.3087 79.0503 73.1526C76.1069 71.9964 73.5841 70.4198 71.3766 68.3177C69.1691 66.2156 67.4872 63.6931 66.1207 60.7501C64.8592 57.8072 64.2285 54.4438 64.2285 50.7651V16.7109H74.425V50.7651C74.425 52.9723 74.8455 54.9693 75.5813 56.651C76.3172 58.3327 77.3684 59.8042 78.6298 61.0654C79.8912 62.3267 81.3629 63.1675 83.0448 63.7982C84.7267 64.4288 86.5137 64.7441 88.3007 64.7441C90.0877 64.7441 91.8747 64.4288 93.5566 63.7982C95.2385 63.1675 96.7102 62.2216 97.9716 61.0654C99.2331 59.9093 100.284 58.4378 101.02 56.651C101.756 54.9693 102.176 52.9723 102.176 50.7651V16.7109H112.373H112.583Z" fill="black"/>
<path d="M135.814 26.9062V63.4829H148.638C154.104 63.4829 158.519 61.8012 161.778 58.5429C165.037 55.2846 166.719 50.7651 166.719 45.1945C166.719 39.6239 165.037 35.2095 161.778 31.8461C158.519 28.5879 154.104 26.9062 148.638 26.9062H135.814ZM148.638 16.7109C152.633 16.7109 156.417 17.4467 159.781 18.813C163.25 20.1794 166.193 22.1764 168.716 24.6989C171.239 27.2215 173.236 30.1644 174.603 33.6329C176.074 37.1014 176.81 40.9903 176.81 45.1945C176.81 49.3987 176.074 53.1825 174.603 56.7561C173.131 60.3297 171.239 63.2726 168.716 65.7952C166.193 68.3177 163.25 70.2096 159.781 71.6811C156.312 73.0475 152.633 73.7832 148.638 73.7832H125.617V16.7109H148.638Z" fill="black"/>
<path d="M234.205 26.9062H197.939V40.1495H233.364V50.1345H197.939V63.4829H234.625V73.6781H187.848V16.7109H234.205V26.9062Z" fill="black"/>
<path d="M279.616 40.1495C281.508 40.1495 282.979 39.5188 284.346 38.1524C285.607 36.8912 286.238 35.3146 286.238 33.5278C286.238 31.741 285.607 30.1644 284.346 28.9032C283.084 27.6419 281.508 26.9062 279.616 26.9062H257.751V40.0443H279.616V40.1495ZM247.554 73.7832V16.7109H279.826C282.138 16.7109 284.241 17.1314 286.238 17.9722C288.235 18.813 290.022 19.9692 291.494 21.5458C292.966 23.0173 294.122 24.8041 295.068 26.8011C296.014 28.7981 296.329 30.9002 296.329 33.2125C296.329 35.5248 295.909 37.6269 295.068 39.729C294.227 41.8311 292.861 43.5128 290.968 45.0894C292.861 46.5609 294.122 48.3477 294.963 50.4498C295.804 52.5519 296.224 54.7591 296.224 57.0714C296.224 59.3837 295.804 61.4859 294.963 63.4829C294.122 65.4799 292.861 67.2667 291.389 68.7381C289.917 70.2096 288.13 71.4709 286.133 72.3117C284.136 73.1526 281.928 73.573 279.721 73.573H247.449L247.554 73.7832ZM279.51 63.588C281.403 63.588 282.874 62.9573 284.241 61.591C285.502 60.2246 286.238 58.7531 286.238 56.8612C286.238 54.9693 285.607 53.4978 284.241 52.2366C282.979 50.8702 281.403 50.2396 279.51 50.2396H257.751V63.588H279.51Z" fill="black"/>
<path d="M344.474 73.6781L318.825 25.75V73.6781H308.629V16.7109H325.343L351.097 64.7441V16.7109H361.293V73.6781H344.474Z" fill="black"/>
<path d="M375.063 73.6789V16.7118H385.26V73.6789H375.063ZM389.254 0L391.357 9.14417L370.648 13.1382L368.861 5.67569L389.149 0.105105L389.254 0Z" fill="black"/>
<path d="M465.361 26.9062H432.038V40.1495H464.52V50.1345H432.038V73.6781H421.842V16.7109H465.361V26.9062Z" fill="black"/>
<path d="M510.878 0L512.98 9.14417L492.272 13.1382L490.485 5.67569L510.773 0.105105L510.878 0ZM473.561 45.1953C473.561 40.886 474.296 36.9971 475.768 33.3184C477.24 29.6397 479.132 26.5917 481.655 23.964C484.178 21.3364 487.121 19.2343 490.59 17.7628C494.059 16.2913 497.738 15.5556 501.732 15.5556C505.727 15.5556 509.511 16.2913 512.875 17.7628C516.239 19.2343 519.287 21.3364 521.81 23.964C524.333 26.5917 526.33 29.7448 527.697 33.3184C529.168 36.9971 529.799 40.886 529.799 45.1953C529.799 49.5047 529.063 53.3936 527.697 57.0723C526.225 60.7509 524.333 63.799 521.81 66.4266C519.287 69.0543 516.344 71.1564 512.875 72.6279C509.406 74.0993 505.727 74.8351 501.732 74.8351C497.738 74.8351 493.954 74.0993 490.59 72.6279C487.121 71.1564 484.178 69.0543 481.655 66.4266C479.132 63.799 477.135 60.6458 475.768 57.0723C474.296 53.3936 473.561 49.5047 473.561 45.1953ZM519.813 45.1953C519.813 39.4145 518.131 34.6848 514.872 31.1112C511.614 27.5376 507.199 25.7508 501.732 25.7508C496.266 25.7508 491.851 27.5376 488.593 31.1112C485.334 34.6848 483.652 39.4145 483.652 45.1953C483.652 50.9761 485.334 55.7059 488.593 59.2795C491.851 62.8531 496.266 64.6398 501.732 64.6398C507.199 64.6398 511.614 62.8531 514.872 59.2795C518.131 55.7059 519.813 50.9761 519.813 45.1953Z" fill="black"/>
<path d="M570.48 26.9062H551.138V42.672H570.48C573.528 42.672 575.841 41.9362 577.312 40.3597C578.784 38.7831 579.625 36.9963 579.625 34.7891C579.625 32.5819 578.889 30.7951 577.312 29.2185C575.841 27.6419 573.528 26.9062 570.48 26.9062ZM579.31 73.6781L568.693 52.7621H551.138V73.6781H540.941V16.7109H570.69C573.423 16.7109 575.946 17.1314 578.259 18.0773C580.571 19.0233 582.568 20.2845 584.25 21.8611C585.932 23.4377 587.299 25.3296 588.245 27.5368C589.191 29.744 589.717 32.0563 589.717 34.5789C589.717 38.1524 588.77 41.4107 586.878 44.3537C584.986 47.2966 582.358 49.5038 579.205 50.9753L591.504 73.7832H579.415L579.31 73.6781Z" fill="black"/>
<path d="M649.948 16.7109V50.7651C649.948 54.4438 649.318 57.8072 648.056 60.7501C646.795 63.6931 645.008 66.3207 642.8 68.3177C640.593 70.4198 638.07 71.9964 635.127 73.1526C632.183 74.3087 629.135 74.8342 625.771 74.8342C622.407 74.8342 619.359 74.3087 616.415 73.1526C613.472 71.9964 610.949 70.4198 608.742 68.3177C606.534 66.2156 604.852 63.6931 603.486 60.7501C602.224 57.8072 601.594 54.4438 601.594 50.7651V16.7109H611.79V50.7651C611.79 52.9723 612.211 54.9693 612.947 56.651C613.682 58.3327 614.734 59.8042 615.995 61.0654C617.256 62.3267 618.728 63.1675 620.41 63.7982C622.092 64.4288 623.879 64.7441 625.666 64.7441C627.453 64.7441 629.24 64.4288 630.922 63.7982C632.604 63.1675 634.075 62.2216 635.337 61.0654C636.598 59.9093 637.649 58.4378 638.385 56.651C639.121 54.9693 639.542 52.9723 639.542 50.7651V16.7109H649.738H649.948Z" fill="black"/>
<path d="M720.064 73.6781V26.1704L704.401 73.6781H688.738L673.181 26.1704V73.6781H662.984V16.7109H680.749L696.517 64.9543L712.39 16.7109H730.26V73.6781H720.064Z" fill="black"/>
<path d="M807.943 73.6781V50.1345H777.038V73.6781H766.842V16.7109H777.038V39.9392H807.943V16.7109H818.14V73.6781H807.943Z" fill="black"/>
<path d="M861.449 26.9062H842.107V42.672H861.449C864.497 42.672 866.81 41.9362 868.281 40.3597C869.753 38.7831 870.594 36.9963 870.594 34.7891C870.594 32.5819 869.858 30.7951 868.281 29.2185C866.81 27.6419 864.497 26.9062 861.449 26.9062ZM870.279 73.6781L859.662 52.7621H842.107V73.6781H831.91V16.7109H861.659C864.392 16.7109 866.915 17.1314 869.227 18.0773C871.54 19.0233 873.537 20.2845 875.219 21.8611C876.901 23.4377 878.268 25.3296 879.214 27.5368C880.16 29.744 880.685 32.0563 880.685 34.5789C880.685 38.1524 879.739 41.4107 877.847 44.3537C875.955 47.2966 873.327 49.5038 870.173 50.9753L882.472 73.7832H870.384L870.279 73.6781Z" fill="black"/>
<path d="M908.647 48.8732H927.568L918.108 24.3836L908.542 48.8732H908.647ZM937.239 73.6781L931.563 59.0684H904.758L899.186 73.6781H888.254L910.224 16.7109H926.307L948.277 73.6781H937.344H937.239Z" fill="black"/>
<path d="M966.882 26.9062V63.4829H979.707C985.173 63.4829 989.588 61.8012 992.846 58.5429C996.105 55.2846 997.787 50.7651 997.787 45.1945C997.787 39.6239 996.105 35.2095 992.846 31.8461C989.588 28.5879 985.173 26.9062 979.707 26.9062H966.882ZM979.707 16.7109C983.701 16.7109 987.485 17.4467 990.849 18.813C994.318 20.1794 997.261 22.1764 999.784 24.6989C1002.31 27.2215 1004.3 30.1644 1005.67 33.6329C1007.14 37.1014 1007.88 40.9903 1007.88 45.1945C1007.88 49.3987 1007.14 53.1825 1005.67 56.7561C1004.2 60.3297 1002.31 63.2726 999.784 65.7952C997.261 68.3177 994.318 70.2096 990.849 71.6811C987.38 73.0475 983.701 73.7832 979.707 73.7832H956.686V16.7109H979.707Z" fill="black"/>
<path d="M1065.27 26.9062H1029.11V40.1495H1064.54V50.1345H1029.11V63.4829H1065.69V73.6781H1018.92V16.7109H1065.27V26.9062Z" fill="black"/>
<path d="M1130.03 56.9662C1128.24 62.6419 1124.98 66.9512 1120.36 70.1044C1115.63 73.2576 1110.26 74.8342 1104.17 74.8342C1100.17 74.8342 1096.39 74.0984 1093.03 72.6269C1089.56 71.1555 1086.61 69.0534 1084.09 66.4257C1081.57 63.7981 1079.57 60.6449 1078.2 57.0713C1076.73 53.3926 1076 49.5037 1076 45.1944C1076 40.8851 1076.73 36.9962 1078.2 33.3175C1079.68 29.6388 1081.57 26.5908 1084.09 23.9631C1086.61 21.3355 1089.56 19.2334 1093.03 17.7619C1096.49 16.2904 1100.17 15.5547 1104.17 15.5547C1110.26 15.5547 1115.63 17.0262 1120.15 20.0742C1124.67 23.1223 1128.03 27.4316 1130.03 33.2124L1120.88 37.4166C1119.73 34.0532 1117.73 31.2154 1114.89 29.0082C1112.05 26.801 1108.48 25.7499 1104.27 25.7499C1098.81 25.7499 1094.39 27.5367 1091.13 31.1103C1087.87 34.6839 1086.19 39.4136 1086.19 45.1944C1086.19 50.9752 1087.87 55.705 1091.13 59.2785C1094.39 62.8521 1098.81 64.6389 1104.27 64.6389C1108.58 64.6389 1112.26 63.4828 1115.1 61.2756C1117.94 59.0683 1119.94 56.2305 1120.99 52.6569L1130.13 56.8611L1130.03 56.9662Z" fill="black"/>
<path d="M1203.4 73.6781L1185.32 44.2486L1173.12 55.7051V73.6781H1163.03V16.7109H1173.12V41.9362L1199.61 16.7109H1214.23L1193.2 36.7861L1216.75 73.6781H1203.4Z" fill="black"/>
<path d="M1255.64 26.9062H1236.3V42.672H1255.64C1258.69 42.672 1261 41.9362 1262.48 40.3597C1263.95 38.7831 1264.79 36.9963 1264.79 34.7891C1264.79 32.5819 1264.05 30.7951 1262.48 29.2185C1261 27.6419 1258.69 26.9062 1255.64 26.9062ZM1264.47 73.6781L1253.86 52.7621H1236.3V73.6781H1226.11V16.7109H1255.85C1258.59 16.7109 1261.11 17.1314 1263.42 18.0773C1265.74 19.0233 1267.73 20.2845 1269.41 21.8611C1271.1 23.4377 1272.46 25.3296 1273.41 27.5368C1274.35 29.744 1274.88 32.0563 1274.88 34.5789C1274.88 38.1524 1273.93 41.4107 1272.04 44.3537C1270.15 47.2966 1267.52 49.5038 1264.37 50.9753L1276.67 73.7832H1264.58L1264.47 73.6781Z" fill="black"/>
<path d="M1302.84 48.874H1321.76L1312.3 24.3845L1302.74 48.874H1302.84ZM1331.43 73.6789L1325.76 59.0692H1298.95L1293.38 73.6789H1282.45L1304.42 16.7118H1320.5L1342.47 73.6789H1331.54H1331.43ZM1321.55 0L1323.66 9.14417L1302.95 13.1382L1301.16 5.67569L1321.45 0.105105L1321.55 0Z" fill="black"/>
<path d="M1361.08 63.4829H1394.4V73.6781H1350.88V16.7109H1361.08V63.4829Z" fill="black"/>
<path d="M1445.59 45.1944C1445.59 39.4136 1443.91 34.6839 1440.65 31.1103C1437.39 27.5367 1432.98 25.7499 1427.51 25.7499C1422.05 25.7499 1417.63 27.5367 1414.37 31.1103C1411.12 34.6839 1409.43 39.4136 1409.43 45.1944C1409.43 50.9752 1411.12 55.705 1414.37 59.2785C1417.63 62.8521 1422.05 64.6389 1427.51 64.6389C1432.98 64.6389 1437.39 62.8521 1440.65 59.2785C1443.91 55.705 1445.59 50.9752 1445.59 45.1944ZM1399.34 45.1944C1399.34 40.8851 1400.08 36.9962 1401.55 33.3175C1403.02 29.6388 1404.91 26.5908 1407.44 23.9631C1409.96 21.3355 1412.9 19.2334 1416.37 17.7619C1419.84 16.2904 1423.52 15.5547 1427.51 15.5547C1431.51 15.5547 1435.29 16.2904 1438.66 17.7619C1442.02 19.2334 1445.07 21.3355 1447.59 23.9631C1450.11 26.5908 1452.11 29.7439 1453.48 33.3175C1454.95 36.9962 1455.58 40.8851 1455.58 45.1944C1455.58 49.5037 1454.84 53.3926 1453.48 57.0713C1452.01 60.75 1450.11 63.7981 1447.59 66.4257C1445.07 69.0534 1442.13 71.1555 1438.66 72.6269C1435.19 74.0984 1431.51 74.8342 1427.51 74.8342C1423.52 74.8342 1419.73 74.0984 1416.37 72.6269C1412.9 71.1555 1409.96 69.0534 1407.44 66.4257C1404.91 63.7981 1402.92 60.6449 1401.55 57.0713C1400.08 53.3926 1399.34 49.5037 1399.34 45.1944Z" fill="black"/>
<path d="M1471.66 16.7109L1487.96 64.4288L1504.35 16.7109H1515.29L1495.84 73.6781H1480.18L1460.62 16.7109H1471.66Z" fill="black"/>
<path d="M1557.12 0L1559.23 9.14417L1538.52 13.1382L1536.73 5.67569L1557.02 0.105105L1557.12 0ZM1570.58 26.907H1534.42V40.0452H1569.84V50.1353H1534.42V63.4837H1571V73.6789H1524.22V16.7118H1570.58V26.907Z" fill="black"/>
<path d="M41.1014 175.315V151.772H10.1965V175.315H0V118.453H10.1965V141.576H41.1014V118.453H51.298V175.315H41.1014Z" fill="black"/>
<path d="M112.583 118.453V152.507C112.583 156.186 111.952 159.549 110.691 162.492C109.43 165.435 107.643 168.063 105.435 170.06C103.228 172.162 100.705 173.739 97.7614 174.895C94.8181 176.051 91.7696 176.576 88.4058 176.576C85.042 176.576 81.9936 176.051 79.0503 174.895C76.1069 173.739 73.5841 172.162 71.3766 170.06C69.1691 167.958 67.4872 165.435 66.1207 162.492C64.8592 159.549 64.2285 156.186 64.2285 152.507V118.453H74.425V152.507C74.425 154.714 74.8455 156.711 75.5813 158.393C76.3172 160.075 77.3684 161.546 78.6298 162.808C79.8912 164.069 81.3629 164.91 83.0448 165.54C84.7267 166.171 86.5137 166.486 88.3007 166.486C90.0877 166.486 91.8747 166.171 93.5566 165.54C95.2385 164.91 96.7102 163.964 97.9716 162.808C99.2331 161.651 100.284 160.18 101.02 158.393C101.756 156.711 102.176 154.714 102.176 152.507V118.453H112.373H112.583Z" fill="black"/>
<path d="M135.814 128.543V165.12H148.638C154.104 165.12 158.519 163.438 161.778 160.18C165.037 156.921 166.719 152.402 166.719 146.831C166.719 141.261 165.037 136.846 161.778 133.483C158.519 130.225 154.104 128.543 148.638 128.543H135.814ZM148.638 118.348C152.633 118.348 156.417 119.083 159.781 120.45C163.25 121.816 166.193 123.813 168.716 126.336C171.239 128.858 173.236 131.801 174.603 135.27C176.074 138.738 176.81 142.627 176.81 146.831C176.81 151.035 176.074 154.819 174.603 158.393C173.131 161.966 171.239 164.909 168.716 167.432C166.193 169.954 163.25 171.846 159.781 173.318C156.312 174.684 152.633 175.42 148.638 175.42H125.617V118.453H148.638V118.348Z" fill="black"/>
<path d="M234.205 128.543H197.939V141.787H233.364V151.877H197.939V165.225H234.625V175.315H187.848V118.453H234.205V128.543Z" fill="black"/>
<path d="M279.616 141.787C281.508 141.787 282.979 141.156 284.346 139.79C285.607 138.528 286.238 136.952 286.238 135.165C286.238 133.378 285.607 131.802 284.346 130.54C283.084 129.279 281.508 128.543 279.616 128.543H257.751V141.681H279.616V141.787ZM247.554 175.42V118.453H279.826C282.138 118.453 284.241 118.874 286.238 119.714C288.235 120.555 290.022 121.711 291.494 123.288C292.966 124.759 294.122 126.546 295.068 128.543C296.014 130.54 296.329 132.642 296.329 134.955C296.329 137.267 295.909 139.369 295.068 141.471C294.227 143.573 292.861 145.255 290.968 146.832C292.861 148.303 294.122 150.09 294.963 152.192C295.804 154.294 296.224 156.501 296.224 158.814C296.224 161.126 295.804 163.228 294.963 165.225C294.122 167.222 292.861 169.009 291.389 170.48C289.917 171.952 288.13 173.213 286.133 174.054C284.136 174.895 281.928 175.315 279.721 175.315H247.449L247.554 175.42ZM279.51 165.225C281.403 165.225 282.874 164.594 284.241 163.228C285.502 161.862 286.238 160.39 286.238 158.498C286.238 156.606 285.607 155.135 284.241 153.874C282.979 152.507 281.403 151.877 279.51 151.877H257.751V165.225H279.51Z" fill="black"/>
<path d="M344.474 175.315L318.825 127.387V175.315H308.629V118.453H325.343L351.097 166.381V118.453H361.293V175.315H344.474Z" fill="black"/>
<path d="M375.063 175.316V118.348H385.26V175.316H375.063ZM389.254 101.637L391.357 110.781L370.648 114.775L368.861 107.312L389.149 101.742L389.254 101.637Z" fill="black"/>
<path d="M465.361 128.543H432.038V141.787H464.52V151.877H432.038V175.315H421.842V118.453H465.361V128.543Z" fill="black"/>
<path d="M510.878 101.637L512.98 110.781L492.272 114.775L490.485 107.312L510.773 101.742L510.878 101.637ZM473.561 146.832C473.561 142.523 474.296 138.634 475.768 134.955C477.24 131.276 479.132 128.228 481.655 125.601C484.178 122.973 487.121 120.871 490.59 119.4C494.059 117.928 497.738 117.192 501.732 117.192C505.727 117.192 509.511 117.928 512.875 119.4C516.239 120.871 519.287 122.973 521.81 125.601C524.333 128.228 526.33 131.382 527.697 134.955C529.168 138.634 529.799 142.523 529.799 146.832C529.799 151.141 529.063 155.03 527.697 158.709C526.225 162.388 524.333 165.436 521.81 168.063C519.287 170.691 516.344 172.793 512.875 174.265C509.406 175.736 505.727 176.472 501.732 176.472C497.738 176.472 493.954 175.736 490.59 174.265C487.121 172.793 484.178 170.691 481.655 168.063C479.132 165.436 477.135 162.283 475.768 158.709C474.296 155.03 473.561 151.141 473.561 146.832ZM519.813 146.832C519.813 141.051 518.131 136.322 514.872 132.748C511.614 129.174 507.199 127.388 501.732 127.388C496.266 127.388 491.851 129.174 488.593 132.748C485.334 136.322 483.652 141.051 483.652 146.832C483.652 152.613 485.334 157.343 488.593 160.916C491.851 164.49 496.266 166.277 501.732 166.277C507.199 166.277 511.614 164.49 514.872 160.916C518.131 157.343 519.813 152.613 519.813 146.832Z" fill="black"/>
<path d="M570.48 128.543H551.138V144.309H570.48C573.528 144.309 575.841 143.573 577.312 141.996C578.784 140.42 579.625 138.633 579.625 136.426C579.625 134.219 578.889 132.432 577.312 130.855C575.841 129.279 573.528 128.543 570.48 128.543ZM579.31 175.315L568.693 154.399H551.138V175.315H540.941V118.348H570.69C573.423 118.348 575.946 118.768 578.259 119.714C580.571 120.66 582.568 121.921 584.25 123.498C585.932 125.074 587.299 126.966 588.245 129.174C589.191 131.381 589.717 133.693 589.717 136.216C589.717 139.789 588.77 143.047 586.878 145.99C584.986 148.933 582.358 151.141 579.205 152.612L591.504 175.42H579.415L579.31 175.315Z" fill="black"/>
<path d="M649.948 118.453V152.507C649.948 156.186 649.318 159.549 648.056 162.492C646.795 165.435 645.008 168.063 642.8 170.06C640.593 172.162 638.07 173.739 635.127 174.895C632.183 176.051 629.135 176.576 625.771 176.576C622.407 176.576 619.359 176.051 616.415 174.895C613.472 173.739 610.949 172.162 608.742 170.06C606.534 167.958 604.852 165.435 603.486 162.492C602.224 159.549 601.594 156.186 601.594 152.507V118.453H611.79V152.507C611.79 154.714 612.211 156.711 612.947 158.393C613.682 160.075 614.734 161.546 615.995 162.808C617.256 164.069 618.728 164.91 620.41 165.54C622.092 166.171 623.879 166.486 625.666 166.486C627.453 166.486 629.24 166.171 630.922 165.54C632.604 164.91 634.075 163.964 635.337 162.808C636.598 161.651 637.649 160.18 638.385 158.393C639.121 156.711 639.542 154.714 639.542 152.507V118.453H649.738H649.948Z" fill="black"/>
<path d="M720.064 175.315V127.913L704.401 175.315H688.738L673.181 127.913V175.315H662.984V118.453H680.749L696.517 166.697L712.39 118.453H730.26V175.315H720.064Z" fill="black"/>
<path d="M807.943 175.315V151.772H777.038V175.315H766.842V118.453H777.038V141.576H807.943V118.453H818.14V175.315H807.943Z" fill="black"/>
<path d="M861.449 128.543H842.107V144.309H861.449C864.497 144.309 866.81 143.573 868.281 141.996C869.753 140.42 870.594 138.633 870.594 136.426C870.594 134.219 869.858 132.432 868.281 130.855C866.81 129.279 864.497 128.543 861.449 128.543ZM870.279 175.315L859.662 154.399H842.107V175.315H831.91V118.348H861.659C864.392 118.348 866.915 118.768 869.227 119.714C871.54 120.66 873.537 121.921 875.219 123.498C876.901 125.074 878.268 126.966 879.214 129.174C880.16 131.381 880.685 133.693 880.685 136.216C880.685 139.789 879.739 143.047 877.847 145.99C875.955 148.933 873.327 151.141 870.173 152.612L882.472 175.42H870.384L870.279 175.315Z" fill="black"/>
<path d="M908.647 150.51H927.568L918.108 126.02L908.542 150.51H908.647ZM937.239 175.315L931.563 160.705H904.758L899.186 175.315H888.254L910.224 118.348H926.307L948.277 175.315H937.344H937.239Z" fill="black"/>
<path d="M966.882 128.543V165.12H979.707C985.173 165.12 989.588 163.438 992.846 160.18C996.105 156.921 997.787 152.402 997.787 146.831C997.787 141.261 996.105 136.846 992.846 133.483C989.588 130.225 985.173 128.543 979.707 128.543H966.882ZM979.707 118.348C983.701 118.348 987.485 119.083 990.849 120.45C994.318 121.816 997.261 123.813 999.784 126.336C1002.31 128.858 1004.3 131.801 1005.67 135.27C1007.14 138.738 1007.88 142.627 1007.88 146.831C1007.88 151.035 1007.14 154.819 1005.67 158.393C1004.2 161.966 1002.31 164.909 999.784 167.432C997.261 169.954 994.318 171.846 990.849 173.318C987.38 174.684 983.701 175.42 979.707 175.42H956.686V118.453H979.707V118.348Z" fill="black"/>
<path d="M1065.27 128.543H1029.11V141.787H1064.54V151.877H1029.11V165.225H1065.69V175.315H1018.92V118.453H1065.27V128.543Z" fill="black"/>
<path d="M1130.03 158.708C1128.24 164.384 1124.98 168.693 1120.36 171.847C1115.63 175 1110.26 176.576 1104.17 176.576C1100.17 176.576 1096.39 175.841 1093.03 174.369C1089.56 172.898 1086.61 170.796 1084.09 168.168C1081.57 165.54 1079.57 162.387 1078.2 158.814C1076.73 155.135 1076 151.246 1076 146.937C1076 142.627 1076.73 138.738 1078.2 135.06C1079.68 131.381 1081.57 128.333 1084.09 125.705C1086.61 123.078 1089.56 120.976 1093.03 119.504C1096.49 118.033 1100.17 117.297 1104.17 117.297C1110.26 117.297 1115.63 118.768 1120.15 121.816C1124.67 124.864 1128.03 129.174 1130.03 134.955L1120.88 139.159C1119.73 135.795 1117.73 132.958 1114.89 130.75C1112.05 128.543 1108.48 127.492 1104.27 127.492C1098.81 127.492 1094.39 129.279 1091.13 132.852C1087.87 136.426 1086.19 141.156 1086.19 146.937C1086.19 152.717 1087.87 157.447 1091.13 161.021C1094.39 164.594 1098.81 166.381 1104.27 166.381C1108.58 166.381 1112.26 165.225 1115.1 163.018C1117.94 160.811 1119.94 157.973 1120.99 154.399L1130.13 158.603L1130.03 158.708Z" fill="black"/>
<path d="M1203.4 175.315L1185.32 145.886L1173.12 157.342V175.315H1163.03V118.453H1173.12V143.678L1199.61 118.453H1214.23L1193.2 138.423L1216.75 175.315H1203.4Z" fill="black"/>
<path d="M1255.64 128.543H1236.3V144.309H1255.64C1258.69 144.309 1261 143.573 1262.48 141.996C1263.95 140.42 1264.79 138.633 1264.79 136.426C1264.79 134.219 1264.05 132.432 1262.48 130.855C1261 129.279 1258.69 128.543 1255.64 128.543ZM1264.47 175.315L1253.86 154.399H1236.3V175.315H1226.11V118.348H1255.85C1258.59 118.348 1261.11 118.768 1263.42 119.714C1265.74 120.66 1267.73 121.921 1269.41 123.498C1271.1 125.074 1272.46 126.966 1273.41 129.174C1274.35 131.381 1274.88 133.693 1274.88 136.216C1274.88 139.789 1273.93 143.047 1272.04 145.99C1270.15 148.933 1267.52 151.141 1264.37 152.612L1276.67 175.42H1264.58L1264.47 175.315Z" fill="black"/>
<path d="M1302.84 150.511H1321.76L1312.3 126.021L1302.74 150.511H1302.84ZM1331.43 175.316L1325.76 160.706H1298.95L1293.38 175.316H1282.45L1304.42 118.348H1320.5L1342.47 175.316H1331.54H1331.43ZM1321.55 101.637L1323.66 110.781L1302.95 114.775L1301.16 107.312L1321.45 101.742L1321.55 101.637Z" fill="black"/>
<path d="M1361.08 165.225H1394.4V175.315H1350.88V118.453H1361.08V165.225Z" fill="black"/>
<path d="M1445.59 146.937C1445.59 141.156 1443.91 136.426 1440.65 132.852C1437.39 129.279 1432.98 127.492 1427.51 127.492C1422.05 127.492 1417.63 129.279 1414.37 132.852C1411.12 136.426 1409.43 141.156 1409.43 146.937C1409.43 152.717 1411.12 157.447 1414.37 161.021C1417.63 164.594 1422.05 166.381 1427.51 166.381C1432.98 166.381 1437.39 164.594 1440.65 161.021C1443.91 157.447 1445.59 152.717 1445.59 146.937ZM1399.34 146.937C1399.34 142.627 1400.08 138.738 1401.55 135.06C1403.02 131.381 1404.91 128.333 1407.44 125.705C1409.96 123.078 1412.9 120.976 1416.37 119.504C1419.84 118.033 1423.52 117.297 1427.51 117.297C1431.51 117.297 1435.29 118.033 1438.66 119.504C1442.02 120.976 1445.07 123.078 1447.59 125.705C1450.11 128.333 1452.11 131.486 1453.48 135.06C1454.95 138.738 1455.58 142.627 1455.58 146.937C1455.58 151.246 1454.84 155.135 1453.48 158.814C1452.01 162.492 1450.11 165.54 1447.59 168.168C1445.07 170.796 1442.13 172.898 1438.66 174.369C1435.19 175.841 1431.51 176.576 1427.51 176.576C1423.52 176.576 1419.73 175.841 1416.37 174.369C1412.9 172.898 1409.96 170.796 1407.44 168.168C1404.91 165.54 1402.92 162.387 1401.55 158.814C1400.08 155.135 1399.34 151.246 1399.34 146.937Z" fill="black"/>
<path d="M1471.66 118.453L1487.96 166.066L1504.35 118.453H1515.29L1495.84 175.315H1480.18L1460.62 118.453H1471.66Z" fill="black"/>
<path d="M1557.12 101.637L1559.23 110.781L1538.52 114.775L1536.73 107.312L1557.02 101.742L1557.12 101.637ZM1570.58 128.544H1534.42V141.682H1569.84V151.772H1534.42V165.12H1571V175.316H1524.22V118.348H1570.58V128.544Z" fill="black"/>
<path d="M41.1014 277.057V253.408H10.1965V277.057H0V220.09H10.1965V243.318H41.1014V220.09H51.298V277.057H41.1014Z" fill="black"/>
<path d="M112.583 220.09V254.144C112.583 257.823 111.952 261.186 110.691 264.129C109.43 267.072 107.643 269.7 105.435 271.697C103.228 273.799 100.705 275.375 97.7614 276.531C94.8181 277.688 91.7696 278.213 88.4058 278.213C85.042 278.213 81.9936 277.688 79.0503 276.531C76.1069 275.375 73.5841 273.799 71.3766 271.697C69.1691 269.595 67.4872 267.072 66.1207 264.129C64.8592 261.186 64.2285 257.823 64.2285 254.144V220.09H74.425V254.144C74.425 256.351 74.8455 258.348 75.5813 260.03C76.3172 261.712 77.3684 263.183 78.6298 264.444C79.8912 265.706 81.3629 266.546 83.0448 267.177C84.7267 267.808 86.5137 268.123 88.3007 268.123C90.0877 268.123 91.8747 267.808 93.5566 267.177C95.2385 266.546 96.7102 265.6 97.9716 264.444C99.2331 263.288 100.284 261.817 101.02 260.03C101.756 258.348 102.176 256.351 102.176 254.144V220.09H112.373H112.583Z" fill="black"/>
<path d="M135.814 230.285V266.862H148.638C154.104 266.862 158.519 265.18 161.778 261.922C165.037 258.664 166.719 254.144 166.719 248.573C166.719 243.003 165.037 238.588 161.778 235.225C158.519 231.967 154.104 230.285 148.638 230.285H135.814ZM148.638 220.09C152.633 220.09 156.417 220.826 159.781 222.192C163.25 223.558 166.193 225.555 168.716 228.078C171.239 230.6 173.236 233.543 174.603 237.012C176.074 240.48 176.81 244.369 176.81 248.573C176.81 252.778 176.074 256.561 174.603 260.135C173.131 263.709 171.239 266.652 168.716 269.174C166.193 271.697 163.25 273.589 159.781 275.06C156.312 276.426 152.633 277.162 148.638 277.162H125.617V220.195H148.638V220.09Z" fill="black"/>
<path d="M234.205 230.285H197.939V243.423H233.364V253.513H197.939V266.862H234.625V277.057H187.848V220.09H234.205V230.285Z" fill="black"/>
<path d="M279.616 243.423C281.508 243.423 282.979 242.793 284.346 241.426C285.607 240.165 286.238 238.588 286.238 236.802C286.238 235.015 285.607 233.438 284.346 232.177C283.084 230.916 281.508 230.18 279.616 230.18H257.751V243.318H279.616V243.423ZM247.554 277.057V220.09H279.826C282.138 220.09 284.241 220.51 286.238 221.351C288.235 222.192 290.022 223.348 291.494 224.925C292.966 226.396 294.122 228.183 295.068 230.18C296.014 232.177 296.329 234.279 296.329 236.591C296.329 238.904 295.909 241.006 295.068 243.108C294.227 245.21 292.861 246.892 290.968 248.468C292.861 249.94 294.122 251.727 294.963 253.829C295.804 255.931 296.224 258.138 296.224 260.45C296.224 262.763 295.804 264.865 294.963 266.862C294.122 268.859 292.861 270.646 291.389 272.117C289.917 273.588 288.13 274.85 286.133 275.691C284.136 276.531 281.928 276.952 279.721 276.952H247.449L247.554 277.057ZM279.51 266.862C281.403 266.862 282.874 266.231 284.241 264.865C285.502 263.498 286.238 262.027 286.238 260.135C286.238 258.243 285.607 256.772 284.241 255.51C282.979 254.144 281.403 253.513 279.51 253.513H257.751V266.862H279.51Z" fill="black"/>
<path d="M344.474 277.057L318.825 229.024V277.057H308.629V220.09H325.343L351.097 268.123V220.09H361.293V277.057H344.474Z" fill="black"/>
<path d="M375.063 277.058V220.091H385.26V277.058H375.063ZM389.254 203.379L391.357 212.523L370.648 216.517L368.861 209.055L389.149 203.484L389.254 203.379Z" fill="black"/>
<path d="M465.361 230.285H432.038V243.423H464.52V253.513H432.038V277.057H421.842V220.09H465.361V230.285Z" fill="black"/>
<path d="M510.878 203.379L512.98 212.523L492.272 216.517L490.485 209.055L510.773 203.484L510.878 203.379ZM473.561 248.574C473.561 244.265 474.296 240.376 475.768 236.697C477.24 233.019 479.132 229.971 481.655 227.343C484.178 224.715 487.121 222.613 490.59 221.142C494.059 219.67 497.738 218.935 501.732 218.935C505.727 218.935 509.511 219.67 512.875 221.142C516.239 222.613 519.287 224.715 521.81 227.343C524.333 229.971 526.33 233.124 527.697 236.697C529.168 240.376 529.799 244.265 529.799 248.574C529.799 252.884 529.063 256.772 527.697 260.451C526.225 264.13 524.333 267.178 521.81 269.806C519.287 272.433 516.344 274.535 512.875 276.007C509.406 277.478 505.727 278.214 501.732 278.214C497.738 278.214 493.954 277.478 490.59 276.007C487.121 274.535 484.178 272.433 481.655 269.806C479.132 267.178 477.135 264.025 475.768 260.451C474.296 256.772 473.561 252.884 473.561 248.574ZM519.813 248.574C519.813 242.793 518.131 238.064 514.872 234.49C511.614 230.917 507.199 229.13 501.732 229.13C496.266 229.13 491.851 230.917 488.593 234.49C485.334 238.064 483.652 242.793 483.652 248.574C483.652 254.355 485.334 259.085 488.593 262.658C491.851 266.232 496.266 268.019 501.732 268.019C507.199 268.019 511.614 266.232 514.872 262.658C518.131 259.085 519.813 254.355 519.813 248.574Z" fill="black"/>
<path d="M570.48 230.285H551.138V246.051H570.48C573.528 246.051 575.841 245.315 577.312 243.739C578.784 242.162 579.625 240.375 579.625 238.168C579.625 235.961 578.889 234.174 577.312 232.597C575.841 231.021 573.528 230.285 570.48 230.285ZM579.31 277.057L568.693 256.141H551.138V277.057H540.941V220.09H570.69C573.423 220.09 575.946 220.51 578.259 221.456C580.571 222.402 582.568 223.663 584.25 225.24C585.932 226.817 587.299 228.708 588.245 230.916C589.191 233.123 589.717 235.435 589.717 237.958C589.717 241.531 588.77 244.79 586.878 247.733C584.986 250.676 582.358 252.883 579.205 254.354L591.504 277.162H579.415L579.31 277.057Z" fill="black"/>
<path d="M649.948 220.09V254.144C649.948 257.823 649.318 261.186 648.056 264.129C646.795 267.072 645.008 269.7 642.8 271.697C640.593 273.799 638.07 275.375 635.127 276.531C632.183 277.688 629.135 278.213 625.771 278.213C622.407 278.213 619.359 277.688 616.415 276.531C613.472 275.375 610.949 273.799 608.742 271.697C606.534 269.595 604.852 267.072 603.486 264.129C602.224 261.186 601.594 257.823 601.594 254.144V220.09H611.79V254.144C611.79 256.351 612.211 258.348 612.947 260.03C613.682 261.712 614.734 263.183 615.995 264.444C617.256 265.706 618.728 266.546 620.41 267.177C622.092 267.808 623.879 268.123 625.666 268.123C627.453 268.123 629.24 267.808 630.922 267.177C632.604 266.546 634.075 265.6 635.337 264.444C636.598 263.288 637.649 261.817 638.385 260.03C639.121 258.348 639.542 256.351 639.542 254.144V220.09H649.738H649.948Z" fill="black"/>
<path d="M720.064 277.057V229.549L704.401 277.057H688.738L673.181 229.549V277.057H662.984V220.09H680.749L696.517 268.333L712.39 220.09H730.26V277.057H720.064Z" fill="black"/>
<path d="M807.943 277.057V253.408H777.038V277.057H766.842V220.09H777.038V243.318H807.943V220.09H818.14V277.057H807.943Z" fill="black"/>
<path d="M861.449 230.285H842.107V246.051H861.449C864.497 246.051 866.81 245.315 868.281 243.739C869.753 242.162 870.594 240.375 870.594 238.168C870.594 235.961 869.858 234.174 868.281 232.597C866.81 231.021 864.497 230.285 861.449 230.285ZM870.279 277.057L859.662 256.141H842.107V277.057H831.91V220.09H861.659C864.392 220.09 866.915 220.51 869.227 221.456C871.54 222.402 873.537 223.663 875.219 225.24C876.901 226.817 878.268 228.708 879.214 230.916C880.16 233.123 880.685 235.435 880.685 237.958C880.685 241.531 879.739 244.79 877.847 247.733C875.955 250.676 873.327 252.883 870.173 254.354L882.472 277.162H870.384L870.279 277.057Z" fill="black"/>
<path d="M908.647 252.252H927.568L918.108 227.763L908.542 252.252H908.647ZM937.239 277.057L931.563 262.447H904.758L899.186 277.057H888.254L910.224 220.09H926.307L948.277 277.057H937.344H937.239Z" fill="black"/>
<path d="M966.882 230.285V266.862H979.707C985.173 266.862 989.588 265.18 992.846 261.922C996.105 258.664 997.787 254.144 997.787 248.573C997.787 243.003 996.105 238.588 992.846 235.225C989.588 231.967 985.173 230.285 979.707 230.285H966.882ZM979.707 220.09C983.701 220.09 987.485 220.826 990.849 222.192C994.318 223.558 997.261 225.555 999.784 228.078C1002.31 230.6 1004.3 233.543 1005.67 237.012C1007.14 240.48 1007.88 244.369 1007.88 248.573C1007.88 252.778 1007.14 256.561 1005.67 260.135C1004.2 263.709 1002.31 266.652 999.784 269.174C997.261 271.697 994.318 273.589 990.849 275.06C987.38 276.426 983.701 277.162 979.707 277.162H956.686V220.195H979.707V220.09Z" fill="black"/>
<path d="M1065.27 230.285H1029.11V243.423H1064.54V253.513H1029.11V266.862H1065.69V277.057H1018.92V220.09H1065.27V230.285Z" fill="black"/>
<path d="M1130.03 260.345C1128.24 266.021 1124.98 270.33 1120.36 273.483C1115.63 276.636 1110.26 278.213 1104.17 278.213C1100.17 278.213 1096.39 277.477 1093.03 276.006C1089.56 274.534 1086.61 272.432 1084.09 269.805C1081.57 267.177 1079.57 264.024 1078.2 260.45C1076.73 256.772 1076 252.883 1076 248.573C1076 244.264 1076.73 240.375 1078.2 236.696C1079.68 233.018 1081.57 229.97 1084.09 227.342C1086.61 224.714 1089.56 222.612 1093.03 221.141C1096.49 219.669 1100.17 218.934 1104.17 218.934C1110.26 218.934 1115.63 220.405 1120.15 223.453C1124.67 226.501 1128.03 230.811 1130.03 236.591L1120.88 240.796C1119.73 237.432 1117.73 234.594 1114.89 232.387C1112.05 230.18 1108.48 229.129 1104.27 229.129C1098.81 229.129 1094.39 230.916 1091.13 234.489C1087.87 238.063 1086.19 242.793 1086.19 248.573C1086.19 254.354 1087.87 259.084 1091.13 262.657C1094.39 266.231 1098.81 268.018 1104.27 268.018C1108.58 268.018 1112.26 266.862 1115.1 264.654C1117.94 262.447 1119.94 259.609 1120.99 256.036L1130.13 260.24L1130.03 260.345Z" fill="black"/>
<path d="M1203.4 277.057L1185.32 247.627L1173.12 259.084V277.057H1163.03V220.09H1173.12V245.315L1199.61 220.09H1214.23L1193.2 240.06L1216.75 277.057H1203.4Z" fill="black"/>
<path d="M1255.64 230.285H1236.3V246.051H1255.64C1258.69 246.051 1261 245.315 1262.48 243.739C1263.95 242.162 1264.79 240.375 1264.79 238.168C1264.79 235.961 1264.05 234.174 1262.48 232.597C1261 231.021 1258.69 230.285 1255.64 230.285ZM1264.47 277.057L1253.86 256.141H1236.3V277.057H1226.11V220.09H1255.85C1258.59 220.09 1261.11 220.51 1263.42 221.456C1265.74 222.402 1267.73 223.663 1269.41 225.24C1271.1 226.817 1272.46 228.708 1273.41 230.916C1274.35 233.123 1274.88 235.435 1274.88 237.958C1274.88 241.531 1273.93 244.79 1272.04 247.733C1270.15 250.676 1267.52 252.883 1264.37 254.354L1276.67 277.162H1264.58L1264.47 277.057Z" fill="black"/>
<path d="M1302.84 252.253H1321.76L1312.3 227.763L1302.74 252.253H1302.84ZM1331.43 277.058L1325.76 262.448H1298.95L1293.38 277.058H1282.45L1304.42 220.091H1320.5L1342.47 277.058H1331.54H1331.43ZM1321.55 203.379L1323.66 212.523L1302.95 216.517L1301.16 209.055L1321.45 203.484L1321.55 203.379Z" fill="black"/>
<path d="M1361.08 266.862H1394.4V277.057H1350.88V220.09H1361.08V266.862Z" fill="black"/>
<path d="M1445.59 248.573C1445.59 242.793 1443.91 238.063 1440.65 234.489C1437.39 230.916 1432.98 229.129 1427.51 229.129C1422.05 229.129 1417.63 230.916 1414.37 234.489C1411.12 238.063 1409.43 242.793 1409.43 248.573C1409.43 254.354 1411.12 259.084 1414.37 262.657C1417.63 266.231 1422.05 268.018 1427.51 268.018C1432.98 268.018 1437.39 266.231 1440.65 262.657C1443.91 259.084 1445.59 254.354 1445.59 248.573ZM1399.34 248.573C1399.34 244.264 1400.08 240.375 1401.55 236.696C1403.02 233.018 1404.91 229.97 1407.44 227.342C1409.96 224.714 1412.9 222.612 1416.37 221.141C1419.84 219.669 1423.52 218.934 1427.51 218.934C1431.51 218.934 1435.29 219.669 1438.66 221.141C1442.02 222.612 1445.07 224.714 1447.59 227.342C1450.11 229.97 1452.11 233.123 1453.48 236.696C1454.95 240.375 1455.58 244.264 1455.58 248.573C1455.58 252.883 1454.84 256.772 1453.48 260.45C1452.01 264.129 1450.11 267.177 1447.59 269.805C1445.07 272.432 1442.13 274.534 1438.66 276.006C1435.19 277.477 1431.51 278.213 1427.51 278.213C1423.52 278.213 1419.73 277.477 1416.37 276.006C1412.9 274.534 1409.96 272.432 1407.44 269.805C1404.91 267.177 1402.92 264.024 1401.55 260.45C1400.08 256.772 1399.34 252.883 1399.34 248.573Z" fill="black"/>
<path d="M1471.66 220.09L1487.96 267.808L1504.35 220.09H1515.29L1495.84 277.057H1480.18L1460.62 220.09H1471.66Z" fill="black"/>
<path d="M1557.12 203.379L1559.23 212.523L1538.52 216.517L1536.73 209.055L1557.02 203.484L1557.12 203.379ZM1570.58 230.286H1534.42V243.424H1569.84V253.514H1534.42V266.863H1571V277.058H1524.22V220.091H1570.58V230.286Z" fill="black"/>
<path d="M41.1014 378.694V355.15H10.1965V378.694H0V321.727H10.1965V344.955H41.1014V321.727H51.298V378.694H41.1014Z" fill="black"/>
<path d="M112.583 321.727V355.781C112.583 359.459 111.952 362.823 110.691 365.766C109.43 368.709 107.643 371.336 105.435 373.333C103.228 375.435 100.705 377.012 97.7614 378.168C94.8181 379.324 91.7696 379.85 88.4058 379.85C85.042 379.85 81.9936 379.324 79.0503 378.168C76.1069 377.012 73.5841 375.435 71.3766 373.333C69.1691 371.231 67.4872 368.709 66.1207 365.766C64.8592 362.823 64.2285 359.459 64.2285 355.781V321.727H74.425V355.781C74.425 357.988 74.8455 359.985 75.5813 361.667C76.3172 363.348 77.3684 364.82 78.6298 366.081C79.8912 367.342 81.3629 368.183 83.0448 368.814C84.7267 369.444 86.5137 369.76 88.3007 369.76C90.0877 369.76 91.8747 369.444 93.5566 368.814C95.2385 368.183 96.7102 367.237 97.9716 366.081C99.2331 364.925 100.284 363.453 101.02 361.667C101.756 359.985 102.176 357.988 102.176 355.781V321.727H112.373H112.583Z" fill="black"/>
<path d="M135.814 331.922V368.498H148.638C154.104 368.498 158.519 366.817 161.778 363.559C165.037 360.3 166.719 355.781 166.719 350.21C166.719 344.64 165.037 340.225 161.778 336.862C158.519 333.603 154.104 331.922 148.638 331.922H135.814ZM148.638 321.727C152.633 321.727 156.417 322.462 159.781 323.829C163.25 325.195 166.193 327.192 168.716 329.715C171.239 332.237 173.236 335.18 174.603 338.649C176.074 342.117 176.81 346.006 176.81 350.21C176.81 354.414 176.074 358.198 174.603 361.772C173.131 365.345 171.239 368.288 168.716 370.811C166.193 373.333 163.25 375.225 159.781 376.697C156.312 378.063 152.633 378.799 148.638 378.799H125.617V321.832H148.638V321.727Z" fill="black"/>
<path d="M234.205 331.922H197.939V345.06H233.364V355.15H197.939V368.498H234.625V378.694H187.848V321.727H234.205V331.922Z" fill="black"/>
<path d="M279.616 345.06C281.508 345.06 282.979 344.429 284.346 343.063C285.607 341.802 286.238 340.225 286.238 338.438C286.238 336.652 285.607 335.075 284.346 333.814C283.084 332.552 281.508 331.817 279.616 331.817H257.751V344.955H279.616V345.06ZM247.554 378.694V321.727H279.826C282.138 321.727 284.241 322.147 286.238 322.988C288.235 323.829 290.022 324.985 291.494 326.561C292.966 328.033 294.122 329.82 295.068 331.817C296.014 333.814 296.329 335.916 296.329 338.228C296.329 340.54 295.909 342.643 295.068 344.745C294.227 346.847 292.861 348.528 290.968 350.105C292.861 351.577 294.122 353.363 294.963 355.465C295.804 357.568 296.224 359.775 296.224 362.087C296.224 364.399 295.804 366.501 294.963 368.498C294.122 370.495 292.861 372.282 291.389 373.754C289.917 375.225 288.13 376.487 286.133 377.327C284.136 378.168 281.928 378.589 279.721 378.589H247.449L247.554 378.694ZM279.51 368.498C281.403 368.498 282.874 367.868 284.241 366.501C285.502 365.135 286.238 363.664 286.238 361.772C286.238 359.88 285.607 358.408 284.241 357.147C282.979 355.781 281.403 355.15 279.51 355.15H257.751V368.498H279.51Z" fill="black"/>
<path d="M344.474 378.694L318.825 330.661V378.694H308.629V321.727H325.343L351.097 369.76V321.727H361.293V378.694H344.474Z" fill="black"/>
<path d="M375.063 378.695V321.727H385.26V378.695H375.063ZM389.254 305.016L391.357 314.16L370.648 318.154L368.861 310.691L389.149 305.121L389.254 305.016Z" fill="black"/>
<path d="M465.361 331.922H432.038V345.06H464.52V355.15H432.038V378.694H421.842V321.727H465.361V331.922Z" fill="black"/>
<path d="M510.878 305.016L512.98 314.16L492.272 318.154L490.485 310.691L510.773 305.121L510.878 305.016ZM473.561 350.211C473.561 345.902 474.296 342.013 475.768 338.334C477.24 334.655 479.132 331.607 481.655 328.98C484.178 326.352 487.121 324.25 490.59 322.778C494.059 321.307 497.738 320.571 501.732 320.571C505.727 320.571 509.511 321.307 512.875 322.778C516.239 324.25 519.287 326.352 521.81 328.98C524.333 331.607 526.33 334.76 527.697 338.334C529.168 342.013 529.799 345.902 529.799 350.211C529.799 354.52 529.063 358.409 527.697 362.088C526.225 365.767 524.333 368.815 521.81 371.442C519.287 374.07 516.344 376.172 512.875 377.643C509.406 379.115 505.727 379.851 501.732 379.851C497.738 379.851 493.954 379.115 490.59 377.643C487.121 376.172 484.178 374.07 481.655 371.442C479.132 368.815 477.135 365.661 475.768 362.088C474.296 358.409 473.561 354.52 473.561 350.211ZM519.813 350.211C519.813 344.43 518.131 339.7 514.872 336.127C511.614 332.553 507.199 330.766 501.732 330.766C496.266 330.766 491.851 332.553 488.593 336.127C485.334 339.7 483.652 344.43 483.652 350.211C483.652 355.992 485.334 360.722 488.593 364.295C491.851 367.869 496.266 369.655 501.732 369.655C507.199 369.655 511.614 367.869 514.872 364.295C518.131 360.722 519.813 355.992 519.813 350.211Z" fill="black"/>
<path d="M570.48 331.922H551.138V347.688H570.48C573.528 347.688 575.841 346.952 577.312 345.375C578.784 343.799 579.625 342.012 579.625 339.805C579.625 337.597 578.889 335.811 577.312 334.234C575.841 332.658 573.528 331.922 570.48 331.922ZM579.31 378.694L568.693 357.778H551.138V378.694H540.941V321.727H570.69C573.423 321.727 575.946 322.147 578.259 323.093C580.571 324.039 582.568 325.3 584.25 326.877C585.932 328.453 587.299 330.345 588.245 332.552C589.191 334.76 589.717 337.072 589.717 339.594C589.717 343.168 588.77 346.426 586.878 349.369C584.986 352.312 582.358 354.519 579.205 355.991L591.504 378.799H579.415L579.31 378.694Z" fill="black"/>
<path d="M649.948 321.727V355.781C649.948 359.459 649.318 362.823 648.056 365.766C646.795 368.709 645.008 371.336 642.8 373.333C640.593 375.435 638.07 377.012 635.127 378.168C632.183 379.324 629.135 379.85 625.771 379.85C622.407 379.85 619.359 379.324 616.415 378.168C613.472 377.012 610.949 375.435 608.742 373.333C606.534 371.231 604.852 368.709 603.486 365.766C602.224 362.823 601.594 359.459 601.594 355.781V321.727H611.79V355.781C611.79 357.988 612.211 359.985 612.947 361.667C613.682 363.348 614.734 364.82 615.995 366.081C617.256 367.342 618.728 368.183 620.41 368.814C622.092 369.444 623.879 369.76 625.666 369.76C627.453 369.76 629.24 369.444 630.922 368.814C632.604 368.183 634.075 367.237 635.337 366.081C636.598 364.925 637.649 363.453 638.385 361.667C639.121 359.985 639.542 357.988 639.542 355.781V321.727H649.738H649.948Z" fill="black"/>
<path d="M720.064 378.694V331.186L704.401 378.694H688.738L673.181 331.186V378.694H662.984V321.727H680.749L696.517 369.97L712.39 321.727H730.26V378.694H720.064Z" fill="black"/>
<path d="M807.943 378.694V355.15H777.038V378.694H766.842V321.727H777.038V344.955H807.943V321.727H818.14V378.694H807.943Z" fill="black"/>
<path d="M861.449 331.922H842.107V347.688H861.449C864.497 347.688 866.81 346.952 868.281 345.375C869.753 343.799 870.594 342.012 870.594 339.805C870.594 337.597 869.858 335.811 868.281 334.234C866.81 332.658 864.497 331.922 861.449 331.922ZM870.279 378.694L859.662 357.778H842.107V378.694H831.91V321.727H861.659C864.392 321.727 866.915 322.147 869.227 323.093C871.54 324.039 873.537 325.3 875.219 326.877C876.901 328.453 878.268 330.345 879.214 332.552C880.16 334.76 880.685 337.072 880.685 339.594C880.685 343.168 879.739 346.426 877.847 349.369C875.955 352.312 873.327 354.519 870.173 355.991L882.472 378.799H870.384L870.279 378.694Z" fill="black"/>
<path d="M908.647 353.889H927.568L918.108 329.399L908.542 353.889H908.647ZM937.239 378.694L931.563 364.084H904.758L899.186 378.694H888.254L910.224 321.727H926.307L948.277 378.694H937.344H937.239Z" fill="black"/>
<path d="M966.882 331.922V368.498H979.707C985.173 368.498 989.588 366.817 992.846 363.559C996.105 360.3 997.787 355.781 997.787 350.21C997.787 344.64 996.105 340.225 992.846 336.862C989.588 333.603 985.173 331.922 979.707 331.922H966.882ZM979.707 321.727C983.701 321.727 987.485 322.462 990.849 323.829C994.318 325.195 997.261 327.192 999.784 329.715C1002.31 332.237 1004.3 335.18 1005.67 338.649C1007.14 342.117 1007.88 346.006 1007.88 350.21C1007.88 354.414 1007.14 358.198 1005.67 361.772C1004.2 365.345 1002.31 368.288 999.784 370.811C997.261 373.333 994.318 375.225 990.849 376.697C987.38 378.063 983.701 378.799 979.707 378.799H956.686V321.832H979.707V321.727Z" fill="black"/>
<path d="M1065.27 331.922H1029.11V345.06H1064.54V355.15H1029.11V368.498H1065.69V378.694H1018.92V321.727H1065.27V331.922Z" fill="black"/>
<path d="M1130.03 361.982C1128.24 367.658 1124.98 371.967 1120.36 375.12C1115.63 378.273 1110.26 379.85 1104.17 379.85C1100.17 379.85 1096.39 379.114 1093.03 377.643C1089.56 376.171 1086.61 374.069 1084.09 371.441C1081.57 368.814 1079.57 365.661 1078.2 362.087C1076.73 358.408 1076 354.519 1076 350.21C1076 345.901 1076.73 342.012 1078.2 338.333C1079.68 334.654 1081.57 331.606 1084.09 328.979C1086.61 326.351 1089.56 324.249 1093.03 322.778C1096.49 321.306 1100.17 320.57 1104.17 320.57C1110.26 320.57 1115.63 322.042 1120.15 325.09C1124.67 328.138 1128.03 332.447 1130.03 338.228L1120.88 342.432C1119.73 339.069 1117.73 336.231 1114.89 334.024C1112.05 331.817 1108.48 330.766 1104.27 330.766C1098.81 330.766 1094.39 332.552 1091.13 336.126C1087.87 339.699 1086.19 344.429 1086.19 350.21C1086.19 355.991 1087.87 360.721 1091.13 364.294C1094.39 367.868 1098.81 369.655 1104.27 369.655C1108.58 369.655 1112.26 368.498 1115.1 366.291C1117.94 364.084 1119.94 361.246 1120.99 357.673L1130.13 361.877L1130.03 361.982Z" fill="black"/>
<path d="M1203.4 378.694L1185.32 349.264L1173.12 360.721V378.694H1163.03V321.727H1173.12V346.952L1199.61 321.727H1214.23L1193.2 341.802L1216.75 378.694H1203.4Z" fill="black"/>
<path d="M1255.64 331.922H1236.3V347.688H1255.64C1258.69 347.688 1261 346.952 1262.48 345.375C1263.95 343.799 1264.79 342.012 1264.79 339.805C1264.79 337.597 1264.05 335.811 1262.48 334.234C1261 332.658 1258.69 331.922 1255.64 331.922ZM1264.47 378.694L1253.86 357.778H1236.3V378.694H1226.11V321.727H1255.85C1258.59 321.727 1261.11 322.147 1263.42 323.093C1265.74 324.039 1267.73 325.3 1269.41 326.877C1271.1 328.453 1272.46 330.345 1273.41 332.552C1274.35 334.76 1274.88 337.072 1274.88 339.594C1274.88 343.168 1273.93 346.426 1272.04 349.369C1270.15 352.312 1267.52 354.519 1264.37 355.991L1276.67 378.799H1264.58L1264.47 378.694Z" fill="black"/>
<path d="M1302.84 353.89H1321.76L1312.3 329.4L1302.74 353.89H1302.84ZM1331.43 378.695L1325.76 364.085H1298.95L1293.38 378.695H1282.45L1304.42 321.727H1320.5L1342.47 378.695H1331.54H1331.43ZM1321.55 305.016L1323.66 314.16L1302.95 318.154L1301.16 310.691L1321.45 305.121L1321.55 305.016Z" fill="black"/>
<path d="M1361.08 368.498H1394.4V378.694H1350.88V321.727H1361.08V368.498Z" fill="black"/>
<path d="M1445.59 350.21C1445.59 344.429 1443.91 339.699 1440.65 336.126C1437.39 332.552 1432.98 330.766 1427.51 330.766C1422.05 330.766 1417.63 332.552 1414.37 336.126C1411.12 339.699 1409.43 344.429 1409.43 350.21C1409.43 355.991 1411.12 360.721 1414.37 364.294C1417.63 367.868 1422.05 369.655 1427.51 369.655C1432.98 369.655 1437.39 367.868 1440.65 364.294C1443.91 360.721 1445.59 355.991 1445.59 350.21ZM1399.34 350.21C1399.34 345.901 1400.08 342.012 1401.55 338.333C1403.02 334.654 1404.91 331.606 1407.44 328.979C1409.96 326.351 1412.9 324.249 1416.37 322.778C1419.84 321.306 1423.52 320.57 1427.51 320.57C1431.51 320.57 1435.29 321.306 1438.66 322.778C1442.02 324.249 1445.07 326.351 1447.59 328.979C1450.11 331.606 1452.11 334.76 1453.48 338.333C1454.95 342.012 1455.58 345.901 1455.58 350.21C1455.58 354.519 1454.84 358.408 1453.48 362.087C1452.01 365.766 1450.11 368.814 1447.59 371.441C1445.07 374.069 1442.13 376.171 1438.66 377.643C1435.19 379.114 1431.51 379.85 1427.51 379.85C1423.52 379.85 1419.73 379.114 1416.37 377.643C1412.9 376.171 1409.96 374.069 1407.44 371.441C1404.91 368.814 1402.92 365.661 1401.55 362.087C1400.08 358.408 1399.34 354.519 1399.34 350.21Z" fill="black"/>
<path d="M1471.66 321.727L1487.96 369.444L1504.35 321.727H1515.29L1495.84 378.694H1480.18L1460.62 321.727H1471.66Z" fill="black"/>
<path d="M1557.12 305.016L1559.23 314.16L1538.52 318.154L1536.73 310.691L1557.02 305.121L1557.12 305.016ZM1570.58 331.923H1534.42V345.061H1569.84V355.151H1534.42V368.499H1571V378.695H1524.22V321.727H1570.58V331.923Z" fill="black"/>
<path d="M41.1014 480.331V456.787H10.1965V480.331H0V423.469H10.1965V446.592H41.1014V423.469H51.298V480.331H41.1014Z" fill="black"/>
<path d="M112.583 423.469V457.523C112.583 461.202 111.952 464.565 110.691 467.508C109.43 470.451 107.643 473.079 105.435 475.076C103.228 477.178 100.705 478.754 97.7614 479.91C94.8181 481.067 91.7696 481.592 88.4058 481.592C85.042 481.592 81.9936 481.067 79.0503 479.91C76.1069 478.754 73.5841 477.178 71.3766 475.076C69.1691 472.973 67.4872 470.451 66.1207 467.508C64.8592 464.565 64.2285 461.202 64.2285 457.523V423.469H74.425V457.523C74.425 459.73 74.8455 461.727 75.5813 463.409C76.3172 465.09 77.3684 466.562 78.6298 467.823C79.8912 469.084 81.3629 469.925 83.0448 470.556C84.7267 471.187 86.5137 471.502 88.3007 471.502C90.0877 471.502 91.8747 471.187 93.5566 470.556C95.2385 469.925 96.7102 468.979 97.9716 467.823C99.2331 466.667 100.284 465.196 101.02 463.409C101.756 461.727 102.176 459.73 102.176 457.523V423.469H112.373H112.583Z" fill="black"/>
<path d="M135.814 433.559V470.135H148.638C154.104 470.135 158.519 468.454 161.778 465.195C165.037 461.937 166.719 457.417 166.719 451.847C166.719 446.276 165.037 441.862 161.778 438.498C158.519 435.24 154.104 433.559 148.638 433.559H135.814ZM148.638 423.363C152.633 423.363 156.417 424.099 159.781 425.465C163.25 426.832 166.193 428.829 168.716 431.351C171.239 433.874 173.236 436.817 174.603 440.285C176.074 443.754 176.81 447.643 176.81 451.847C176.81 456.051 176.074 459.835 174.603 463.408C173.131 466.982 171.239 469.925 168.716 472.448C166.193 474.97 163.25 476.862 159.781 478.333C156.312 479.7 152.633 480.436 148.638 480.436H125.617V423.468H148.638V423.363Z" fill="black"/>
<path d="M234.205 433.559H197.939V446.802H233.364V456.892H197.939V470.241H234.625V480.331H187.848V423.469H234.205V433.559Z" fill="black"/>
<path d="M279.616 446.802C281.508 446.802 282.979 446.172 284.346 444.805C285.607 443.544 286.238 441.967 286.238 440.181C286.238 438.394 285.607 436.817 284.346 435.556C283.084 434.295 281.508 433.559 279.616 433.559H257.751V446.697H279.616V446.802ZM247.554 480.436V423.469H279.826C282.138 423.469 284.241 423.889 286.238 424.73C288.235 425.571 290.022 426.727 291.494 428.304C292.966 429.775 294.122 431.562 295.068 433.559C296.014 435.556 296.329 437.658 296.329 439.97C296.329 442.283 295.909 444.385 295.068 446.487C294.227 448.589 292.861 450.271 290.968 451.847C292.861 453.319 294.122 455.105 294.963 457.208C295.804 459.31 296.224 461.517 296.224 463.829C296.224 466.142 295.804 468.244 294.963 470.241C294.122 472.238 292.861 474.024 291.389 475.496C289.917 476.967 288.13 478.229 286.133 479.07C284.136 479.91 281.928 480.331 279.721 480.331H247.449L247.554 480.436ZM279.51 470.241C281.403 470.241 282.874 469.61 284.241 468.244C285.502 466.877 286.238 465.406 286.238 463.514C286.238 461.622 285.607 460.151 284.241 458.889C282.979 457.523 281.403 456.892 279.51 456.892H257.751V470.241H279.51Z" fill="black"/>
<path d="M344.474 480.331L318.825 432.403V480.331H308.629V423.469H325.343L351.097 471.397V423.469H361.293V480.331H344.474Z" fill="black"/>
<path d="M375.063 480.331V423.364H385.26V480.331H375.063ZM389.254 406.652L391.357 415.797L370.648 419.791L368.861 412.328L389.149 406.757L389.254 406.652Z" fill="black"/>
<path d="M465.361 433.559H432.038V446.802H464.52V456.892H432.038V480.331H421.842V423.469H465.361V433.559Z" fill="black"/>
<path d="M510.878 406.652L512.98 415.797L492.272 419.791L490.485 412.328L510.773 406.757L510.878 406.652ZM473.561 451.848C473.561 447.538 474.296 443.649 475.768 439.971C477.24 436.292 479.132 433.244 481.655 430.616C484.178 427.989 487.121 425.887 490.59 424.415C494.059 422.944 497.738 422.208 501.732 422.208C505.727 422.208 509.511 422.944 512.875 424.415C516.239 425.887 519.287 427.989 521.81 430.616C524.333 433.244 526.33 436.397 527.697 439.971C529.168 443.649 529.799 447.538 529.799 451.848C529.799 456.157 529.063 460.046 527.697 463.725C526.225 467.403 524.333 470.451 521.81 473.079C519.287 475.707 516.344 477.809 512.875 479.28C509.406 480.752 505.727 481.487 501.732 481.487C497.738 481.487 493.954 480.752 490.59 479.28C487.121 477.809 484.178 475.707 481.655 473.079C479.132 470.451 477.135 467.298 475.768 463.725C474.296 460.046 473.561 456.157 473.561 451.848ZM519.813 451.848C519.813 446.067 518.131 441.337 514.872 437.764C511.614 434.19 507.199 432.403 501.732 432.403C496.266 432.403 491.851 434.19 488.593 437.764C485.334 441.337 483.652 446.067 483.652 451.848C483.652 457.629 485.334 462.358 488.593 465.932C491.851 469.505 496.266 471.292 501.732 471.292C507.199 471.292 511.614 469.505 514.872 465.932C518.131 462.358 519.813 457.629 519.813 451.848Z" fill="black"/>
<path d="M570.48 433.559H551.138V449.324H570.48C573.528 449.324 575.841 448.589 577.312 447.012C578.784 445.435 579.625 443.649 579.625 441.441C579.625 439.234 578.889 437.447 577.312 435.871C575.841 434.294 573.528 433.559 570.48 433.559ZM579.31 480.33L568.693 459.414H551.138V480.33H540.941V423.363H570.69C573.423 423.363 575.946 423.784 578.259 424.73C580.571 425.676 582.568 426.937 584.25 428.513C585.932 430.09 587.299 431.982 588.245 434.189C589.191 436.396 589.717 438.709 589.717 441.231C589.717 444.805 588.77 448.063 586.878 451.006C584.986 453.949 582.358 456.156 579.205 457.628L591.504 480.436H579.415L579.31 480.33Z" fill="black"/>
<path d="M649.948 423.469V457.523C649.948 461.202 649.318 464.565 648.056 467.508C646.795 470.451 645.008 473.079 642.8 475.076C640.593 477.178 638.07 478.754 635.127 479.91C632.183 481.067 629.135 481.592 625.771 481.592C622.407 481.592 619.359 481.067 616.415 479.91C613.472 478.754 610.949 477.178 608.742 475.076C606.534 472.973 604.852 470.451 603.486 467.508C602.224 464.565 601.594 461.202 601.594 457.523V423.469H611.79V457.523C611.79 459.73 612.211 461.727 612.947 463.409C613.682 465.09 614.734 466.562 615.995 467.823C617.256 469.084 618.728 469.925 620.41 470.556C622.092 471.187 623.879 471.502 625.666 471.502C627.453 471.502 629.24 471.187 630.922 470.556C632.604 469.925 634.075 468.979 635.337 467.823C636.598 466.667 637.649 465.196 638.385 463.409C639.121 461.727 639.542 459.73 639.542 457.523V423.469H649.738H649.948Z" fill="black"/>
<path d="M720.064 480.331V432.823L704.401 480.331H688.738L673.181 432.823V480.331H662.984V423.469H680.749L696.517 471.712L712.39 423.469H730.26V480.331H720.064Z" fill="black"/>
<path d="M807.943 480.331V456.787H777.038V480.331H766.842V423.469H777.038V446.592H807.943V423.469H818.14V480.331H807.943Z" fill="black"/>
<path d="M861.449 433.559H842.107V449.324H861.449C864.497 449.324 866.81 448.589 868.281 447.012C869.753 445.435 870.594 443.649 870.594 441.441C870.594 439.234 869.858 437.447 868.281 435.871C866.81 434.294 864.497 433.559 861.449 433.559ZM870.279 480.33L859.662 459.414H842.107V480.33H831.91V423.363H861.659C864.392 423.363 866.915 423.784 869.227 424.73C871.54 425.676 873.537 426.937 875.219 428.513C876.901 430.09 878.268 431.982 879.214 434.189C880.16 436.396 880.685 438.709 880.685 441.231C880.685 444.805 879.739 448.063 877.847 451.006C875.955 453.949 873.327 456.156 870.173 457.628L882.472 480.436H870.384L870.279 480.33Z" fill="black"/>
<path d="M908.647 455.526H927.568L918.108 431.036L908.542 455.526H908.647ZM937.239 480.33L931.563 465.721H904.758L899.186 480.33H888.254L910.224 423.363H926.307L948.277 480.33H937.344H937.239Z" fill="black"/>
<path d="M966.882 433.559V470.135H979.707C985.173 470.135 989.588 468.454 992.846 465.195C996.105 461.937 997.787 457.417 997.787 451.847C997.787 446.276 996.105 441.862 992.846 438.498C989.588 435.24 985.173 433.559 979.707 433.559H966.882ZM979.707 423.363C983.701 423.363 987.485 424.099 990.849 425.465C994.318 426.832 997.261 428.829 999.784 431.351C1002.31 433.874 1004.3 436.817 1005.67 440.285C1007.14 443.754 1007.88 447.643 1007.88 451.847C1007.88 456.051 1007.14 459.835 1005.67 463.408C1004.2 466.982 1002.31 469.925 999.784 472.448C997.261 474.97 994.318 476.862 990.849 478.333C987.38 479.7 983.701 480.436 979.707 480.436H956.686V423.468H979.707V423.363Z" fill="black"/>
<path d="M1065.27 433.559H1029.11V446.802H1064.54V456.892H1029.11V470.241H1065.69V480.331H1018.92V423.469H1065.27V433.559Z" fill="black"/>
<path d="M1130.03 463.724C1128.24 469.4 1124.98 473.709 1120.36 476.862C1115.63 480.015 1110.26 481.592 1104.17 481.592C1100.17 481.592 1096.39 480.856 1093.03 479.385C1089.56 477.913 1086.61 475.811 1084.09 473.184C1081.57 470.556 1079.57 467.403 1078.2 463.829C1076.73 460.15 1076 456.262 1076 451.952C1076 447.643 1076.73 443.754 1078.2 440.075C1079.68 436.397 1081.57 433.349 1084.09 430.721C1086.61 428.093 1089.56 425.991 1093.03 424.52C1096.49 423.048 1100.17 422.312 1104.17 422.312C1110.26 422.312 1115.63 423.784 1120.15 426.832C1124.67 429.88 1128.03 434.189 1130.03 439.97L1120.88 444.174C1119.73 440.811 1117.73 437.973 1114.89 435.766C1112.05 433.559 1108.48 432.508 1104.27 432.508C1098.81 432.508 1094.39 434.295 1091.13 437.868C1087.87 441.442 1086.19 446.171 1086.19 451.952C1086.19 457.733 1087.87 462.463 1091.13 466.036C1094.39 469.61 1098.81 471.397 1104.27 471.397C1108.58 471.397 1112.26 470.241 1115.1 468.033C1117.94 465.826 1119.94 462.988 1120.99 459.415L1130.13 463.619L1130.03 463.724Z" fill="black"/>
<path d="M1203.4 480.331L1185.32 450.901L1173.12 462.358V480.331H1163.03V423.469H1173.12V448.694L1199.61 423.469H1214.23L1193.2 443.439L1216.75 480.331H1203.4Z" fill="black"/>
<path d="M1255.64 433.559H1236.3V449.324H1255.64C1258.69 449.324 1261 448.589 1262.48 447.012C1263.95 445.435 1264.79 443.649 1264.79 441.441C1264.79 439.234 1264.05 437.447 1262.48 435.871C1261 434.294 1258.69 433.559 1255.64 433.559ZM1264.47 480.33L1253.86 459.414H1236.3V480.33H1226.11V423.363H1255.85C1258.59 423.363 1261.11 423.784 1263.42 424.73C1265.74 425.676 1267.73 426.937 1269.41 428.513C1271.1 430.09 1272.46 431.982 1273.41 434.189C1274.35 436.396 1274.88 438.709 1274.88 441.231C1274.88 444.805 1273.93 448.063 1272.04 451.006C1270.15 453.949 1267.52 456.156 1264.37 457.628L1276.67 480.436H1264.58L1264.47 480.33Z" fill="black"/>
<path d="M1302.84 455.526H1321.76L1312.3 431.037L1302.74 455.526H1302.84ZM1331.43 480.331L1325.76 465.722H1298.95L1293.38 480.331H1282.45L1304.42 423.364H1320.5L1342.47 480.331H1331.54H1331.43ZM1321.55 406.652L1323.66 415.797L1302.95 419.791L1301.16 412.328L1321.45 406.757L1321.55 406.652Z" fill="black"/>
<path d="M1361.08 470.241H1394.4V480.331H1350.88V423.469H1361.08V470.241Z" fill="black"/>
<path d="M1445.59 451.952C1445.59 446.171 1443.91 441.442 1440.65 437.868C1437.39 434.295 1432.98 432.508 1427.51 432.508C1422.05 432.508 1417.63 434.295 1414.37 437.868C1411.12 441.442 1409.43 446.171 1409.43 451.952C1409.43 457.733 1411.12 462.463 1414.37 466.036C1417.63 469.61 1422.05 471.397 1427.51 471.397C1432.98 471.397 1437.39 469.61 1440.65 466.036C1443.91 462.463 1445.59 457.733 1445.59 451.952ZM1399.34 451.952C1399.34 447.643 1400.08 443.754 1401.55 440.075C1403.02 436.397 1404.91 433.349 1407.44 430.721C1409.96 428.093 1412.9 425.991 1416.37 424.52C1419.84 423.048 1423.52 422.312 1427.51 422.312C1431.51 422.312 1435.29 423.048 1438.66 424.52C1442.02 425.991 1445.07 428.093 1447.59 430.721C1450.11 433.349 1452.11 436.502 1453.48 440.075C1454.95 443.754 1455.58 447.643 1455.58 451.952C1455.58 456.262 1454.84 460.15 1453.48 463.829C1452.01 467.508 1450.11 470.556 1447.59 473.184C1445.07 475.811 1442.13 477.913 1438.66 479.385C1435.19 480.856 1431.51 481.592 1427.51 481.592C1423.52 481.592 1419.73 480.856 1416.37 479.385C1412.9 477.913 1409.96 475.811 1407.44 473.184C1404.91 470.556 1402.92 467.403 1401.55 463.829C1400.08 460.15 1399.34 456.262 1399.34 451.952Z" fill="black"/>
<path d="M1471.66 423.469L1487.96 471.081L1504.35 423.469H1515.29L1495.84 480.331H1480.18L1460.62 423.469H1471.66Z" fill="black"/>
<path d="M1557.12 406.652L1559.23 415.797L1538.52 419.791L1536.73 412.328L1557.02 406.757L1557.12 406.652ZM1570.58 433.559H1534.42V446.698H1569.84V456.788H1534.42V470.136H1571V480.331H1524.22V423.364H1570.58V433.559Z" fill="black"/>
<path d="M41.1014 582.073V558.424H10.1965V582.073H0V525.105H10.1965V548.334H41.1014V525.105H51.298V582.073H41.1014Z" fill="black"/>
<path d="M112.583 525.105V559.16C112.583 562.838 111.952 566.202 110.691 569.145C109.43 572.088 107.643 574.715 105.435 576.712C103.228 578.814 100.705 580.391 97.7614 581.547C94.8181 582.703 91.7696 583.229 88.4058 583.229C85.042 583.229 81.9936 582.703 79.0503 581.547C76.1069 580.391 73.5841 578.814 71.3766 576.712C69.1691 574.61 67.4872 572.088 66.1207 569.145C64.8592 566.202 64.2285 562.838 64.2285 559.16V525.105H74.425V559.16C74.425 561.367 74.8455 563.364 75.5813 565.046C76.3172 566.727 77.3684 568.199 78.6298 569.46C79.8912 570.721 81.3629 571.562 83.0448 572.193C84.7267 572.823 86.5137 573.139 88.3007 573.139C90.0877 573.139 91.8747 572.823 93.5566 572.193C95.2385 571.562 96.7102 570.616 97.9716 569.46C99.2331 568.304 100.284 566.832 101.02 565.046C101.756 563.364 102.176 561.367 102.176 559.16V525.105H112.373H112.583Z" fill="black"/>
<path d="M135.814 535.301V571.877H148.638C154.104 571.877 158.519 570.196 161.778 566.937C165.037 563.679 166.719 559.16 166.719 553.589C166.719 548.018 165.037 543.604 161.778 540.241C158.519 536.982 154.104 535.301 148.638 535.301H135.814ZM148.638 525.105C152.633 525.105 156.417 525.841 159.781 527.208C163.25 528.574 166.193 530.571 168.716 533.094C171.239 535.616 173.236 538.559 174.603 542.027C176.074 545.496 176.81 549.385 176.81 553.589C176.81 557.793 176.074 561.577 174.603 565.151C173.131 568.724 171.239 571.667 168.716 574.19C166.193 576.712 163.25 578.604 159.781 580.076C156.312 581.442 152.633 582.178 148.638 582.178H125.617V525.211H148.638V525.105Z" fill="black"/>
<path d="M234.205 535.301H197.939V548.439H233.364V558.529H197.939V571.877H234.625V582.073H187.848V525.105H234.205V535.301Z" fill="black"/>
<path d="M279.616 548.439C281.508 548.439 282.979 547.808 284.346 546.442C285.607 545.181 286.238 543.604 286.238 541.817C286.238 540.03 285.607 538.454 284.346 537.193C283.084 535.931 281.508 535.196 279.616 535.196H257.751V548.334H279.616V548.439ZM247.554 582.073V525.105H279.826C282.138 525.105 284.241 525.526 286.238 526.367C288.235 527.208 290.022 528.364 291.494 529.94C292.966 531.412 294.122 533.199 295.068 535.196C296.014 537.193 296.329 539.295 296.329 541.607C296.329 543.919 295.909 546.021 295.068 548.124C294.227 550.226 292.861 551.907 290.968 553.484C292.861 554.955 294.122 556.742 294.963 558.844C295.804 560.946 296.224 563.154 296.224 565.466C296.224 567.778 295.804 569.88 294.963 571.877C294.122 573.874 292.861 575.661 291.389 577.133C289.917 578.604 288.13 579.865 286.133 580.706C284.136 581.547 281.928 581.968 279.721 581.968H247.449L247.554 582.073ZM279.51 571.877C281.403 571.877 282.874 571.247 284.241 569.88C285.502 568.514 286.238 567.043 286.238 565.151C286.238 563.259 285.607 561.787 284.241 560.526C282.979 559.16 281.403 558.529 279.51 558.529H257.751V571.877H279.51Z" fill="black"/>
<path d="M344.474 582.073L318.825 534.039V582.073H308.629V525.105H325.343L351.097 573.139V525.105H361.293V582.073H344.474Z" fill="black"/>
<path d="M375.063 582.073V525.106H385.26V582.073H375.063ZM389.254 508.395L391.357 517.539L370.648 521.533L368.861 514.07L389.149 508.5L389.254 508.395Z" fill="black"/>
<path d="M465.361 535.301H432.038V548.439H464.52V558.529H432.038V582.073H421.842V525.105H465.361V535.301Z" fill="black"/>
<path d="M510.878 508.395L512.98 517.539L492.272 521.533L490.485 514.07L510.773 508.5L510.878 508.395ZM473.561 553.59C473.561 549.281 474.296 545.392 475.768 541.713C477.24 538.034 479.132 534.986 481.655 532.359C484.178 529.731 487.121 527.629 490.59 526.157C494.059 524.686 497.738 523.95 501.732 523.95C505.727 523.95 509.511 524.686 512.875 526.157C516.239 527.629 519.287 529.731 521.81 532.359C524.333 534.986 526.33 538.139 527.697 541.713C529.168 545.392 529.799 549.281 529.799 553.59C529.799 557.899 529.063 561.788 527.697 565.467C526.225 569.145 524.333 572.194 521.81 574.821C519.287 577.449 516.344 579.551 512.875 581.022C509.406 582.494 505.727 583.23 501.732 583.23C497.738 583.23 493.954 582.494 490.59 581.022C487.121 579.551 484.178 577.449 481.655 574.821C479.132 572.194 477.135 569.04 475.768 565.467C474.296 561.788 473.561 557.899 473.561 553.59ZM519.813 553.59C519.813 547.809 518.131 543.079 514.872 539.506C511.614 535.932 507.199 534.145 501.732 534.145C496.266 534.145 491.851 535.932 488.593 539.506C485.334 543.079 483.652 547.809 483.652 553.59C483.652 559.371 485.334 564.1 488.593 567.674C491.851 571.248 496.266 573.034 501.732 573.034C507.199 573.034 511.614 571.248 514.872 567.674C518.131 564.1 519.813 559.371 519.813 553.59Z" fill="black"/>
<path d="M570.48 535.301H551.138V551.067H570.48C573.528 551.067 575.841 550.331 577.312 548.754C578.784 547.178 579.625 545.391 579.625 543.184C579.625 540.976 578.889 539.19 577.312 537.613C575.841 536.036 573.528 535.301 570.48 535.301ZM579.31 582.073L568.693 561.157H551.138V582.073H540.941V525.105H570.69C573.423 525.105 575.946 525.526 578.259 526.472C580.571 527.418 582.568 528.679 584.25 530.256C585.932 531.832 587.299 533.724 588.245 535.931C589.191 538.139 589.717 540.451 589.717 542.973C589.717 546.547 588.77 549.805 586.878 552.748C584.986 555.691 582.358 557.898 579.205 559.37L591.504 582.178H579.415L579.31 582.073Z" fill="black"/>
<path d="M649.948 525.105V559.16C649.948 562.838 649.318 566.202 648.056 569.145C646.795 572.088 645.008 574.715 642.8 576.712C640.593 578.814 638.07 580.391 635.127 581.547C632.183 582.703 629.135 583.229 625.771 583.229C622.407 583.229 619.359 582.703 616.415 581.547C613.472 580.391 610.949 578.814 608.742 576.712C606.534 574.61 604.852 572.088 603.486 569.145C602.224 566.202 601.594 562.838 601.594 559.16V525.105H611.79V559.16C611.79 561.367 612.211 563.364 612.947 565.046C613.682 566.727 614.734 568.199 615.995 569.46C617.256 570.721 618.728 571.562 620.41 572.193C622.092 572.823 623.879 573.139 625.666 573.139C627.453 573.139 629.24 572.823 630.922 572.193C632.604 571.562 634.075 570.616 635.337 569.46C636.598 568.304 637.649 566.832 638.385 565.046C639.121 563.364 639.542 561.367 639.542 559.16V525.105H649.738H649.948Z" fill="black"/>
<path d="M720.064 582.073V534.565L704.401 582.073H688.738L673.181 534.565V582.073H662.984V525.105H680.749L696.517 573.349L712.39 525.105H730.26V582.073H720.064Z" fill="black"/>
<path d="M807.943 582.073V558.424H777.038V582.073H766.842V525.105H777.038V548.334H807.943V525.105H818.14V582.073H807.943Z" fill="black"/>
<path d="M861.449 535.301H842.107V551.067H861.449C864.497 551.067 866.81 550.331 868.281 548.754C869.753 547.178 870.594 545.391 870.594 543.184C870.594 540.976 869.858 539.19 868.281 537.613C866.81 536.036 864.497 535.301 861.449 535.301ZM870.279 582.073L859.662 561.157H842.107V582.073H831.91V525.105H861.659C864.392 525.105 866.915 525.526 869.227 526.472C871.54 527.418 873.537 528.679 875.219 530.256C876.901 531.832 878.268 533.724 879.214 535.931C880.16 538.139 880.685 540.451 880.685 542.973C880.685 546.547 879.739 549.805 877.847 552.748C875.955 555.691 873.327 557.898 870.173 559.37L882.472 582.178H870.384L870.279 582.073Z" fill="black"/>
<path d="M908.647 557.268H927.568L918.108 532.778L908.542 557.268H908.647ZM937.239 582.073L931.563 567.463H904.758L899.186 582.073H888.254L910.224 525.105H926.307L948.277 582.073H937.344H937.239Z" fill="black"/>
<path d="M966.882 535.301V571.877H979.707C985.173 571.877 989.588 570.196 992.846 566.937C996.105 563.679 997.787 559.16 997.787 553.589C997.787 548.018 996.105 543.604 992.846 540.241C989.588 536.982 985.173 535.301 979.707 535.301H966.882ZM979.707 525.105C983.701 525.105 987.485 525.841 990.849 527.208C994.318 528.574 997.261 530.571 999.784 533.094C1002.31 535.616 1004.3 538.559 1005.67 542.027C1007.14 545.496 1007.88 549.385 1007.88 553.589C1007.88 557.793 1007.14 561.577 1005.67 565.151C1004.2 568.724 1002.31 571.667 999.784 574.19C997.261 576.712 994.318 578.604 990.849 580.076C987.38 581.442 983.701 582.178 979.707 582.178H956.686V525.211H979.707V525.105Z" fill="black"/>
<path d="M1065.27 535.301H1029.11V548.439H1064.54V558.529H1029.11V571.877H1065.69V582.073H1018.92V525.105H1065.27V535.301Z" fill="black"/>
<path d="M1130.03 565.361C1128.24 571.036 1124.98 575.346 1120.36 578.499C1115.63 581.652 1110.26 583.229 1104.17 583.229C1100.17 583.229 1096.39 582.493 1093.03 581.021C1089.56 579.55 1086.61 577.448 1084.09 574.82C1081.57 572.193 1079.57 569.039 1078.2 565.466C1076.73 561.787 1076 557.898 1076 553.589C1076 549.28 1076.73 545.391 1078.2 541.712C1079.68 538.033 1081.57 534.985 1084.09 532.358C1086.61 529.73 1089.56 527.628 1093.03 526.156C1096.49 524.685 1100.17 523.949 1104.17 523.949C1110.26 523.949 1115.63 525.421 1120.15 528.469C1124.67 531.517 1128.03 535.826 1130.03 541.607L1120.88 545.811C1119.73 542.448 1117.73 539.61 1114.89 537.403C1112.05 535.196 1108.48 534.144 1104.27 534.144C1098.81 534.144 1094.39 535.931 1091.13 539.505C1087.87 543.078 1086.19 547.808 1086.19 553.589C1086.19 559.37 1087.87 564.099 1091.13 567.673C1094.39 571.247 1098.81 573.033 1104.27 573.033C1108.58 573.033 1112.26 571.877 1115.1 569.67C1117.94 567.463 1119.94 564.625 1120.99 561.051L1130.13 565.256L1130.03 565.361Z" fill="black"/>
<path d="M1203.4 582.073L1185.32 552.643L1173.12 564.1V582.073H1163.03V525.105H1173.12V550.331L1199.61 525.105H1214.23L1193.2 545.076L1216.75 582.073H1203.4Z" fill="black"/>
<path d="M1255.64 535.301H1236.3V551.067H1255.64C1258.69 551.067 1261 550.331 1262.48 548.754C1263.95 547.178 1264.79 545.391 1264.79 543.184C1264.79 540.976 1264.05 539.19 1262.48 537.613C1261 536.036 1258.69 535.301 1255.64 535.301ZM1264.47 582.073L1253.86 561.157H1236.3V582.073H1226.11V525.105H1255.85C1258.59 525.105 1261.11 525.526 1263.42 526.472C1265.74 527.418 1267.73 528.679 1269.41 530.256C1271.1 531.832 1272.46 533.724 1273.41 535.931C1274.35 538.139 1274.88 540.451 1274.88 542.973C1274.88 546.547 1273.93 549.805 1272.04 552.748C1270.15 555.691 1267.52 557.898 1264.37 559.37L1276.67 582.178H1264.58L1264.47 582.073Z" fill="black"/>
<path d="M1302.84 557.269H1321.76L1312.3 532.779L1302.74 557.269H1302.84ZM1331.43 582.073L1325.76 567.464H1298.95L1293.38 582.073H1282.45L1304.42 525.106H1320.5L1342.47 582.073H1331.54H1331.43ZM1321.55 508.395L1323.66 517.539L1302.95 521.533L1301.16 514.07L1321.45 508.5L1321.55 508.395Z" fill="black"/>
<path d="M1361.08 571.877H1394.4V582.073H1350.88V525.105H1361.08V571.877Z" fill="black"/>
<path d="M1445.59 553.589C1445.59 547.808 1443.91 543.078 1440.65 539.505C1437.39 535.931 1432.98 534.144 1427.51 534.144C1422.05 534.144 1417.63 535.931 1414.37 539.505C1411.12 543.078 1409.43 547.808 1409.43 553.589C1409.43 559.37 1411.12 564.099 1414.37 567.673C1417.63 571.247 1422.05 573.033 1427.51 573.033C1432.98 573.033 1437.39 571.247 1440.65 567.673C1443.91 564.099 1445.59 559.37 1445.59 553.589ZM1399.34 553.589C1399.34 549.28 1400.08 545.391 1401.55 541.712C1403.02 538.033 1404.91 534.985 1407.44 532.358C1409.96 529.73 1412.9 527.628 1416.37 526.156C1419.84 524.685 1423.52 523.949 1427.51 523.949C1431.51 523.949 1435.29 524.685 1438.66 526.156C1442.02 527.628 1445.07 529.73 1447.59 532.358C1450.11 534.985 1452.11 538.138 1453.48 541.712C1454.95 545.391 1455.58 549.28 1455.58 553.589C1455.58 557.898 1454.84 561.787 1453.48 565.466C1452.01 569.145 1450.11 572.193 1447.59 574.82C1445.07 577.448 1442.13 579.55 1438.66 581.021C1435.19 582.493 1431.51 583.229 1427.51 583.229C1423.52 583.229 1419.73 582.493 1416.37 581.021C1412.9 579.55 1409.96 577.448 1407.44 574.82C1404.91 572.193 1402.92 569.039 1401.55 565.466C1400.08 561.787 1399.34 557.898 1399.34 553.589Z" fill="black"/>
<path d="M1471.66 525.105L1487.96 572.718L1504.35 525.105H1515.29L1495.84 582.073H1480.18L1460.62 525.105H1471.66Z" fill="black"/>
<path d="M1557.12 508.395L1559.23 517.539L1538.52 521.533L1536.73 514.07L1557.02 508.5L1557.12 508.395ZM1570.58 535.302H1534.42V548.44H1569.84V558.53H1534.42V571.878H1571V582.073H1524.22V525.106H1570.58V535.302Z" fill="black"/>
<path d="M41.1014 683.711V660.168H10.1965V683.711H0V626.744H10.1965V649.972H41.1014V626.744H51.298V683.711H41.1014Z" fill="black"/>
<path d="M112.583 626.744V660.798C112.583 664.477 111.952 667.84 110.691 670.783C109.43 673.726 107.643 676.354 105.435 678.351C103.228 680.453 100.705 682.03 97.7614 683.186C94.8181 684.342 91.7696 684.867 88.4058 684.867C85.042 684.867 81.9936 684.342 79.0503 683.186C76.1069 682.03 73.5841 680.453 71.3766 678.351C69.1691 676.249 67.4872 673.726 66.1207 670.783C64.8592 667.84 64.2285 664.477 64.2285 660.798V626.744H74.425V660.798C74.425 663.005 74.8455 665.003 75.5813 666.684C76.3172 668.366 77.3684 669.837 78.6298 671.099C79.8912 672.36 81.3629 673.201 83.0448 673.831C84.7267 674.462 86.5137 674.777 88.3007 674.777C90.0877 674.777 91.8747 674.462 93.5566 673.831C95.2385 673.201 96.7102 672.255 97.9716 671.099C99.2331 669.942 100.284 668.471 101.02 666.684C101.756 665.003 102.176 663.005 102.176 660.798V626.744H112.373H112.583Z" fill="black"/>
<path d="M135.814 636.939V673.516H148.638C154.104 673.516 158.519 671.834 161.778 668.576C165.037 665.318 166.719 660.798 166.719 655.228C166.719 649.657 165.037 645.243 161.778 641.879C158.519 638.621 154.104 636.939 148.638 636.939H135.814ZM148.638 626.744C152.633 626.744 156.417 627.48 159.781 628.846C163.25 630.213 166.193 632.21 168.716 634.732C171.239 637.255 173.236 640.198 174.603 643.666C176.074 647.135 176.81 651.023 176.81 655.228C176.81 659.432 176.074 663.216 174.603 666.789C173.131 670.363 171.239 673.306 168.716 675.828C166.193 678.351 163.25 680.243 159.781 681.714C156.312 683.081 152.633 683.816 148.638 683.816H125.617V626.849H148.638V626.744Z" fill="black"/>
<path d="M234.205 636.939H197.939V650.078H233.364V660.168H197.939V673.516H234.625V683.711H187.848V626.744H234.205V636.939Z" fill="black"/>
<path d="M279.616 650.078C281.508 650.078 282.979 649.447 284.346 648.081C285.607 646.819 286.238 645.243 286.238 643.456C286.238 641.669 285.607 640.093 284.346 638.831C283.084 637.57 281.508 636.834 279.616 636.834H257.751V649.972H279.616V650.078ZM247.554 683.711V626.744H279.826C282.138 626.744 284.241 627.165 286.238 628.005C288.235 628.846 290.022 630.002 291.494 631.579C292.966 633.05 294.122 634.837 295.068 636.834C296.014 638.831 296.329 640.933 296.329 643.246C296.329 645.558 295.909 647.66 295.068 649.762C294.227 651.864 292.861 653.546 290.968 655.123C292.861 656.594 294.122 658.381 294.963 660.483C295.804 662.585 296.224 664.792 296.224 667.105C296.224 669.417 295.804 671.519 294.963 673.516C294.122 675.513 292.861 677.3 291.389 678.771C289.917 680.243 288.13 681.504 286.133 682.345C284.136 683.186 281.928 683.606 279.721 683.606H247.449L247.554 683.711ZM279.51 673.516C281.403 673.516 282.874 672.885 284.241 671.519C285.502 670.153 286.238 668.681 286.238 666.789C286.238 664.897 285.607 663.426 284.241 662.165C282.979 660.798 281.403 660.168 279.51 660.168H257.751V673.516H279.51Z" fill="black"/>
<path d="M344.474 683.711L318.825 635.678V683.711H308.629V626.744H325.343L351.097 674.777V626.744H361.293V683.711H344.474Z" fill="black"/>
<path d="M375.063 683.71V626.743H385.26V683.71H375.063ZM389.254 610.031L391.357 619.175L370.648 623.169L368.861 615.707L389.149 610.136L389.254 610.031Z" fill="black"/>
<path d="M465.361 636.939H432.038V650.078H464.52V660.168H432.038V683.711H421.842V626.744H465.361V636.939Z" fill="black"/>
<path d="M510.878 610.031L512.98 619.175L492.272 623.169L490.485 615.707L510.773 610.136L510.878 610.031ZM473.561 655.227C473.561 650.917 474.296 647.028 475.768 643.35C477.24 639.671 479.132 636.623 481.655 633.995C484.178 631.368 487.121 629.266 490.59 627.794C494.059 626.323 497.738 625.587 501.732 625.587C505.727 625.587 509.511 626.323 512.875 627.794C516.239 629.266 519.287 631.368 521.81 633.995C524.333 636.623 526.33 639.776 527.697 643.35C529.168 647.028 529.799 650.917 529.799 655.227C529.799 659.536 529.063 663.425 527.697 667.104C526.225 670.782 524.333 673.83 521.81 676.458C519.287 679.086 516.344 681.188 512.875 682.659C509.406 684.131 505.727 684.866 501.732 684.866C497.738 684.866 493.954 684.131 490.59 682.659C487.121 681.188 484.178 679.086 481.655 676.458C479.132 673.83 477.135 670.677 475.768 667.104C474.296 663.425 473.561 659.536 473.561 655.227ZM519.813 655.227C519.813 649.446 518.131 644.716 514.872 641.142C511.614 637.569 507.199 635.782 501.732 635.782C496.266 635.782 491.851 637.569 488.593 641.142C485.334 644.716 483.652 649.446 483.652 655.227C483.652 661.007 485.334 665.737 488.593 669.311C491.851 672.884 496.266 674.671 501.732 674.671C507.199 674.671 511.614 672.884 514.872 669.311C518.131 665.737 519.813 661.007 519.813 655.227Z" fill="black"/>
<path d="M570.48 636.939H551.138V652.705H570.48C573.528 652.705 575.841 651.969 577.312 650.393C578.784 648.816 579.625 647.029 579.625 644.822C579.625 642.615 578.889 640.828 577.312 639.252C575.841 637.675 573.528 636.939 570.48 636.939ZM579.31 683.711L568.693 662.795H551.138V683.711H540.941V626.744H570.69C573.423 626.744 575.946 627.165 578.259 628.11C580.571 629.056 582.568 630.318 584.25 631.894C585.932 633.471 587.299 635.363 588.245 637.57C589.191 639.777 589.717 642.09 589.717 644.612C589.717 648.186 588.77 651.444 586.878 654.387C584.986 657.33 582.358 659.537 579.205 661.008L591.504 683.816H579.415L579.31 683.711Z" fill="black"/>
<path d="M649.948 626.744V660.798C649.948 664.477 649.318 667.84 648.056 670.783C646.795 673.726 645.008 676.354 642.8 678.351C640.593 680.453 638.07 682.03 635.127 683.186C632.183 684.342 629.135 684.867 625.771 684.867C622.407 684.867 619.359 684.342 616.415 683.186C613.472 682.03 610.949 680.453 608.742 678.351C606.534 676.249 604.852 673.726 603.486 670.783C602.224 667.84 601.594 664.477 601.594 660.798V626.744H611.79V660.798C611.79 663.005 612.211 665.003 612.947 666.684C613.682 668.366 614.734 669.837 615.995 671.099C617.256 672.36 618.728 673.201 620.41 673.831C622.092 674.462 623.879 674.777 625.666 674.777C627.453 674.777 629.24 674.462 630.922 673.831C632.604 673.201 634.075 672.255 635.337 671.099C636.598 669.942 637.649 668.471 638.385 666.684C639.121 665.003 639.542 663.005 639.542 660.798V626.744H649.738H649.948Z" fill="black"/>
<path d="M720.064 683.711V636.204L704.401 683.711H688.738L673.181 636.204V683.711H662.984V626.744H680.749L696.517 674.988L712.39 626.744H730.26V683.711H720.064Z" fill="black"/>
<path d="M807.943 683.711V660.168H777.038V683.711H766.842V626.744H777.038V649.972H807.943V626.744H818.14V683.711H807.943Z" fill="black"/>
<path d="M861.449 636.939H842.107V652.705H861.449C864.497 652.705 866.81 651.969 868.281 650.393C869.753 648.816 870.594 647.029 870.594 644.822C870.594 642.615 869.858 640.828 868.281 639.252C866.81 637.675 864.497 636.939 861.449 636.939ZM870.279 683.711L859.662 662.795H842.107V683.711H831.91V626.744H861.659C864.392 626.744 866.915 627.165 869.227 628.11C871.54 629.056 873.537 630.318 875.219 631.894C876.901 633.471 878.268 635.363 879.214 637.57C880.16 639.777 880.685 642.09 880.685 644.612C880.685 648.186 879.739 651.444 877.847 654.387C875.955 657.33 873.327 659.537 870.173 661.008L882.472 683.816H870.384L870.279 683.711Z" fill="black"/>
<path d="M908.647 658.906H927.568L918.108 634.417L908.542 658.906H908.647ZM937.239 683.711L931.563 669.102H904.758L899.186 683.711H888.254L910.224 626.744H926.307L948.277 683.711H937.344H937.239Z" fill="black"/>
<path d="M966.882 636.939V673.516H979.707C985.173 673.516 989.588 671.834 992.846 668.576C996.105 665.318 997.787 660.798 997.787 655.228C997.787 649.657 996.105 645.243 992.846 641.879C989.588 638.621 985.173 636.939 979.707 636.939H966.882ZM979.707 626.744C983.701 626.744 987.485 627.48 990.849 628.846C994.318 630.213 997.261 632.21 999.784 634.732C1002.31 637.255 1004.3 640.198 1005.67 643.666C1007.14 647.135 1007.88 651.023 1007.88 655.228C1007.88 659.432 1007.14 663.216 1005.67 666.789C1004.2 670.363 1002.31 673.306 999.784 675.828C997.261 678.351 994.318 680.243 990.849 681.714C987.38 683.081 983.701 683.816 979.707 683.816H956.686V626.849H979.707V626.744Z" fill="black"/>
<path d="M1065.27 636.939H1029.11V650.078H1064.54V660.168H1029.11V673.516H1065.69V683.711H1018.92V626.744H1065.27V636.939Z" fill="black"/>
<path d="M1130.03 666.999C1128.24 672.675 1124.98 676.984 1120.36 680.138C1115.63 683.291 1110.26 684.867 1104.17 684.867C1100.17 684.867 1096.39 684.132 1093.03 682.66C1089.56 681.189 1086.61 679.087 1084.09 676.459C1081.57 673.831 1079.57 670.678 1078.2 667.105C1076.73 663.426 1076 659.537 1076 655.228C1076 650.918 1076.73 647.029 1078.2 643.351C1079.68 639.672 1081.57 636.624 1084.09 633.996C1086.61 631.369 1089.56 629.267 1093.03 627.795C1096.49 626.324 1100.17 625.588 1104.17 625.588C1110.26 625.588 1115.63 627.059 1120.15 630.107C1124.67 633.155 1128.03 637.465 1130.03 643.246L1120.88 647.45C1119.73 644.086 1117.73 641.249 1114.89 639.041C1112.05 636.834 1108.48 635.783 1104.27 635.783C1098.81 635.783 1094.39 637.57 1091.13 641.143C1087.87 644.717 1086.19 649.447 1086.19 655.228C1086.19 661.008 1087.87 665.738 1091.13 669.312C1094.39 672.885 1098.81 674.672 1104.27 674.672C1108.58 674.672 1112.26 673.516 1115.1 671.309C1117.94 669.102 1119.94 666.264 1120.99 662.69L1130.13 666.894L1130.03 666.999Z" fill="black"/>
<path d="M1203.4 683.711L1185.32 654.282L1173.12 665.738V683.711H1163.03V626.744H1173.12V651.969L1199.61 626.744H1214.23L1193.2 646.819L1216.75 683.711H1203.4Z" fill="black"/>
<path d="M1255.64 636.939H1236.3V652.705H1255.64C1258.69 652.705 1261 651.969 1262.48 650.393C1263.95 648.816 1264.79 647.029 1264.79 644.822C1264.79 642.615 1264.05 640.828 1262.48 639.252C1261 637.675 1258.69 636.939 1255.64 636.939ZM1264.47 683.711L1253.86 662.795H1236.3V683.711H1226.11V626.744H1255.85C1258.59 626.744 1261.11 627.165 1263.42 628.11C1265.74 629.056 1267.73 630.318 1269.41 631.894C1271.1 633.471 1272.46 635.363 1273.41 637.57C1274.35 639.777 1274.88 642.09 1274.88 644.612C1274.88 648.186 1273.93 651.444 1272.04 654.387C1270.15 657.33 1267.52 659.537 1264.37 661.008L1276.67 683.816H1264.58L1264.47 683.711Z" fill="black"/>
<path d="M1302.84 658.905H1321.76L1312.3 634.416L1302.74 658.905H1302.84ZM1331.43 683.71L1325.76 669.1H1298.95L1293.38 683.71H1282.45L1304.42 626.743H1320.5L1342.47 683.71H1331.54H1331.43ZM1321.55 610.031L1323.66 619.175L1302.95 623.169L1301.16 615.707L1321.45 610.136L1321.55 610.031Z" fill="black"/>
<path d="M1361.08 673.516H1394.4V683.711H1350.88V626.744H1361.08V673.516Z" fill="black"/>
<path d="M1445.59 655.228C1445.59 649.447 1443.91 644.717 1440.65 641.143C1437.39 637.57 1432.98 635.783 1427.51 635.783C1422.05 635.783 1417.63 637.57 1414.37 641.143C1411.12 644.717 1409.43 649.447 1409.43 655.228C1409.43 661.008 1411.12 665.738 1414.37 669.312C1417.63 672.885 1422.05 674.672 1427.51 674.672C1432.98 674.672 1437.39 672.885 1440.65 669.312C1443.91 665.738 1445.59 661.008 1445.59 655.228ZM1399.34 655.228C1399.34 650.918 1400.08 647.029 1401.55 643.351C1403.02 639.672 1404.91 636.624 1407.44 633.996C1409.96 631.369 1412.9 629.267 1416.37 627.795C1419.84 626.324 1423.52 625.588 1427.51 625.588C1431.51 625.588 1435.29 626.324 1438.66 627.795C1442.02 629.267 1445.07 631.369 1447.59 633.996C1450.11 636.624 1452.11 639.777 1453.48 643.351C1454.95 647.029 1455.58 650.918 1455.58 655.228C1455.58 659.537 1454.84 663.426 1453.48 667.105C1452.01 670.783 1450.11 673.831 1447.59 676.459C1445.07 679.087 1442.13 681.189 1438.66 682.66C1435.19 684.132 1431.51 684.867 1427.51 684.867C1423.52 684.867 1419.73 684.132 1416.37 682.66C1412.9 681.189 1409.96 679.087 1407.44 676.459C1404.91 673.831 1402.92 670.678 1401.55 667.105C1400.08 663.426 1399.34 659.537 1399.34 655.228Z" fill="black"/>
<path d="M1471.66 626.744L1487.96 674.462L1504.35 626.744H1515.29L1495.84 683.711H1480.18L1460.62 626.744H1471.66Z" fill="black"/>
<path d="M1557.12 610.031L1559.23 619.175L1538.52 623.169L1536.73 615.707L1557.02 610.136L1557.12 610.031ZM1570.58 636.938H1534.42V650.076H1569.84V660.167H1534.42V673.515H1571V683.71H1524.22V626.743H1570.58V636.938Z" fill="black"/>
<path d="M41.1014 785.346V761.803H10.1965V785.346H0V728.484H10.1965V751.608H41.1014V728.484H51.298V785.346H41.1014Z" fill="black"/>
<path d="M112.583 728.484V762.539C112.583 766.217 111.952 769.581 110.691 772.524C109.43 775.467 107.643 778.094 105.435 780.091C103.228 782.193 100.705 783.77 97.7614 784.926C94.8181 786.082 91.7696 786.608 88.4058 786.608C85.042 786.608 81.9936 786.082 79.0503 784.926C76.1069 783.77 73.5841 782.193 71.3766 780.091C69.1691 777.989 67.4872 775.467 66.1207 772.524C64.8592 769.581 64.2285 766.217 64.2285 762.539V728.484H74.425V762.539C74.425 764.746 74.8455 766.743 75.5813 768.424C76.3172 770.106 77.3684 771.578 78.6298 772.839C79.8912 774.1 81.3629 774.941 83.0448 775.572C84.7267 776.202 86.5137 776.518 88.3007 776.518C90.0877 776.518 91.8747 776.202 93.5566 775.572C95.2385 774.941 96.7102 773.995 97.9716 772.839C99.2331 771.683 100.284 770.211 101.02 768.424C101.756 766.743 102.176 764.746 102.176 762.539V728.484H112.373H112.583Z" fill="black"/>
<path d="M135.814 738.576V775.153H148.638C154.104 775.153 158.519 773.471 161.778 770.213C165.037 766.955 166.719 762.435 166.719 756.864C166.719 751.294 165.037 746.879 161.778 743.516C158.519 740.258 154.104 738.576 148.638 738.576H135.814ZM148.638 728.381C152.633 728.381 156.417 729.117 159.781 730.483C163.25 731.849 166.193 733.846 168.716 736.369C171.239 738.891 173.236 741.834 174.603 745.303C176.074 748.771 176.81 752.66 176.81 756.864C176.81 761.069 176.074 764.852 174.603 768.426C173.131 772 171.239 774.943 168.716 777.465C166.193 779.988 163.25 781.879 159.781 783.351C156.312 784.717 152.633 785.453 148.638 785.453H125.617V728.486H148.638V728.381Z" fill="black"/>
<path d="M234.205 738.574H197.939V751.818H233.364V761.908H197.939V775.256H234.625V785.346H187.848V728.484H234.205V738.574Z" fill="black"/>
<path d="M279.616 751.818C281.508 751.818 282.979 751.187 284.346 749.821C285.607 748.559 286.238 746.983 286.238 745.196C286.238 743.409 285.607 741.833 284.346 740.572C283.084 739.31 281.508 738.574 279.616 738.574H257.751V751.713H279.616V751.818ZM247.554 785.452V728.484H279.826C282.138 728.484 284.241 728.905 286.238 729.746C288.235 730.587 290.022 731.743 291.494 733.319C292.966 734.791 294.122 736.577 295.068 738.574C296.014 740.571 296.329 742.674 296.329 744.986C296.329 747.298 295.909 749.4 295.068 751.502C294.227 753.605 292.861 755.286 290.968 756.863C292.861 758.334 294.122 760.121 294.963 762.223C295.804 764.325 296.224 766.533 296.224 768.845C296.224 771.157 295.804 773.259 294.963 775.256C294.122 777.253 292.861 779.04 291.389 780.512C289.917 781.983 288.13 783.244 286.133 784.085C284.136 784.926 281.928 785.346 279.721 785.346H247.449L247.554 785.452ZM279.51 775.256C281.403 775.256 282.874 774.626 284.241 773.259C285.502 771.893 286.238 770.421 286.238 768.53C286.238 766.638 285.607 765.166 284.241 763.905C282.979 762.539 281.403 761.908 279.51 761.908H257.751V775.256H279.51Z" fill="black"/>
<path d="M344.474 785.346L318.825 737.418V785.346H308.629V728.484H325.343L351.097 776.413V728.484H361.293V785.346H344.474Z" fill="black"/>
<path d="M375.063 785.347V728.38H385.26V785.347H375.063ZM389.254 711.668L391.357 720.812L370.648 724.806L368.861 717.344L389.149 711.773L389.254 711.668Z" fill="black"/>
<path d="M465.361 738.574H432.038V751.818H464.52V761.908H432.038V785.346H421.842V728.484H465.361V738.574Z" fill="black"/>
<path d="M510.878 711.668L512.98 720.812L492.272 724.806L490.485 717.344L510.773 711.773L510.878 711.668ZM473.561 756.863C473.561 752.554 474.296 748.665 475.768 744.986C477.24 741.308 479.132 738.26 481.655 735.632C484.178 733.004 487.121 730.902 490.59 729.431C494.059 727.959 497.738 727.224 501.732 727.224C505.727 727.224 509.511 727.959 512.875 729.431C516.239 730.902 519.287 733.004 521.81 735.632C524.333 738.26 526.33 741.413 527.697 744.986C529.168 748.665 529.799 752.554 529.799 756.863C529.799 761.173 529.063 765.062 527.697 768.74C526.225 772.419 524.333 775.467 521.81 778.095C519.287 780.722 516.344 782.824 512.875 784.296C509.406 785.767 505.727 786.503 501.732 786.503C497.738 786.503 493.954 785.767 490.59 784.296C487.121 782.824 484.178 780.722 481.655 778.095C479.132 775.467 477.135 772.314 475.768 768.74C474.296 765.062 473.561 761.173 473.561 756.863ZM519.813 756.863C519.813 751.083 518.131 746.353 514.872 742.779C511.614 739.206 507.199 737.419 501.732 737.419C496.266 737.419 491.851 739.206 488.593 742.779C485.334 746.353 483.652 751.083 483.652 756.863C483.652 762.644 485.334 767.374 488.593 770.947C491.851 774.521 496.266 776.308 501.732 776.308C507.199 776.308 511.614 774.521 514.872 770.947C518.131 767.374 519.813 762.644 519.813 756.863Z" fill="black"/>
<path d="M570.48 738.576H551.138V754.342H570.48C573.528 754.342 575.841 753.606 577.312 752.03C578.784 750.453 579.625 748.666 579.625 746.459C579.625 744.252 578.889 742.465 577.312 740.888C575.841 739.312 573.528 738.576 570.48 738.576ZM579.31 785.348L568.693 764.432H551.138V785.348H540.941V728.381H570.69C573.423 728.381 575.946 728.801 578.259 729.747C580.571 730.693 582.568 731.954 584.25 733.531C585.932 735.108 587.299 736.999 588.245 739.207C589.191 741.414 589.717 743.726 589.717 746.249C589.717 749.822 588.77 753.081 586.878 756.024C584.986 758.967 582.358 761.174 579.205 762.645L591.504 785.453H579.415L579.31 785.348Z" fill="black"/>
<path d="M649.948 728.484V762.539C649.948 766.217 649.318 769.581 648.056 772.524C646.795 775.467 645.008 778.094 642.8 780.091C640.593 782.193 638.07 783.77 635.127 784.926C632.183 786.082 629.135 786.608 625.771 786.608C622.407 786.608 619.359 786.082 616.415 784.926C613.472 783.77 610.949 782.193 608.742 780.091C606.534 777.989 604.852 775.467 603.486 772.524C602.224 769.581 601.594 766.217 601.594 762.539V728.484H611.79V762.539C611.79 764.746 612.211 766.743 612.947 768.424C613.682 770.106 614.734 771.578 615.995 772.839C617.256 774.1 618.728 774.941 620.41 775.572C622.092 776.202 623.879 776.518 625.666 776.518C627.453 776.518 629.24 776.202 630.922 775.572C632.604 774.941 634.075 773.995 635.337 772.839C636.598 771.683 637.649 770.211 638.385 768.424C639.121 766.743 639.542 764.746 639.542 762.539V728.484H649.738H649.948Z" fill="black"/>
<path d="M720.064 785.346V737.839L704.401 785.346H688.738L673.181 737.839V785.346H662.984V728.484H680.749L696.517 776.728L712.39 728.484H730.26V785.346H720.064Z" fill="black"/>
<path d="M807.943 785.346V761.803H777.038V785.346H766.842V728.484H777.038V751.608H807.943V728.484H818.14V785.346H807.943Z" fill="black"/>
<path d="M861.449 738.576H842.107V754.342H861.449C864.497 754.342 866.81 753.606 868.281 752.03C869.753 750.453 870.594 748.666 870.594 746.459C870.594 744.252 869.858 742.465 868.281 740.888C866.81 739.312 864.497 738.576 861.449 738.576ZM870.279 785.348L859.662 764.432H842.107V785.348H831.91V728.381H861.659C864.392 728.381 866.915 728.801 869.227 729.747C871.54 730.693 873.537 731.954 875.219 733.531C876.901 735.108 878.268 736.999 879.214 739.207C880.16 741.414 880.685 743.726 880.685 746.249C880.685 749.822 879.739 753.081 877.847 756.024C875.955 758.967 873.327 761.174 870.173 762.645L882.472 785.453H870.384L870.279 785.348Z" fill="black"/>
<path d="M908.647 760.543H927.568L918.108 736.054L908.542 760.543H908.647ZM937.239 785.348L931.563 770.738H904.758L899.186 785.348H888.254L910.224 728.381H926.307L948.277 785.348H937.344H937.239Z" fill="black"/>
<path d="M966.882 738.576V775.153H979.707C985.173 775.153 989.588 773.471 992.846 770.213C996.105 766.955 997.787 762.435 997.787 756.864C997.787 751.294 996.105 746.879 992.846 743.516C989.588 740.258 985.173 738.576 979.707 738.576H966.882ZM979.707 728.381C983.701 728.381 987.485 729.117 990.849 730.483C994.318 731.849 997.261 733.846 999.784 736.369C1002.31 738.891 1004.3 741.834 1005.67 745.303C1007.14 748.771 1007.88 752.66 1007.88 756.864C1007.88 761.069 1007.14 764.852 1005.67 768.426C1004.2 772 1002.31 774.943 999.784 777.465C997.261 779.988 994.318 781.879 990.849 783.351C987.38 784.717 983.701 785.453 979.707 785.453H956.686V728.486H979.707V728.381Z" fill="black"/>
<path d="M1065.27 738.574H1029.11V751.818H1064.54V761.908H1029.11V775.256H1065.69V785.346H1018.92V728.484H1065.27V738.574Z" fill="black"/>
<path d="M1130.03 768.742C1128.24 774.417 1124.98 778.727 1120.36 781.88C1115.63 785.033 1110.26 786.61 1104.17 786.61C1100.17 786.61 1096.39 785.874 1093.03 784.402C1089.56 782.931 1086.61 780.829 1084.09 778.201C1081.57 775.574 1079.57 772.42 1078.2 768.847C1076.73 765.168 1076 761.279 1076 756.97C1076 752.66 1076.73 748.772 1078.2 745.093C1079.68 741.414 1081.57 738.366 1084.09 735.739C1086.61 733.111 1089.56 731.009 1093.03 729.537C1096.49 728.066 1100.17 727.33 1104.17 727.33C1110.26 727.33 1115.63 728.802 1120.15 731.85C1124.67 734.898 1128.03 739.207 1130.03 744.988L1120.88 749.192C1119.73 745.829 1117.73 742.991 1114.89 740.784C1112.05 738.576 1108.48 737.525 1104.27 737.525C1098.81 737.525 1094.39 739.312 1091.13 742.886C1087.87 746.459 1086.19 751.189 1086.19 756.97C1086.19 762.751 1087.87 767.48 1091.13 771.054C1094.39 774.628 1098.81 776.414 1104.27 776.414C1108.58 776.414 1112.26 775.258 1115.1 773.051C1117.94 770.844 1119.94 768.006 1120.99 764.432L1130.13 768.637L1130.03 768.742Z" fill="black"/>
<path d="M1203.4 785.346L1185.32 755.917L1173.12 767.373V785.346H1163.03V728.484H1173.12V753.71L1199.61 728.484H1214.23L1193.2 748.454L1216.75 785.346H1203.4Z" fill="black"/>
<path d="M1255.64 738.576H1236.3V754.342H1255.64C1258.69 754.342 1261 753.606 1262.48 752.03C1263.95 750.453 1264.79 748.666 1264.79 746.459C1264.79 744.252 1264.05 742.465 1262.48 740.888C1261 739.312 1258.69 738.576 1255.64 738.576ZM1264.47 785.348L1253.86 764.432H1236.3V785.348H1226.11V728.381H1255.85C1258.59 728.381 1261.11 728.801 1263.42 729.747C1265.74 730.693 1267.73 731.954 1269.41 733.531C1271.1 735.108 1272.46 736.999 1273.41 739.207C1274.35 741.414 1274.88 743.726 1274.88 746.249C1274.88 749.822 1273.93 753.081 1272.04 756.024C1270.15 758.967 1267.52 761.174 1264.37 762.645L1276.67 785.453H1264.58L1264.47 785.348Z" fill="black"/>
<path d="M1302.84 760.542H1321.76L1312.3 736.052L1302.74 760.542H1302.84ZM1331.43 785.347L1325.76 770.737H1298.95L1293.38 785.347H1282.45L1304.42 728.38H1320.5L1342.47 785.347H1331.54H1331.43ZM1321.55 711.668L1323.66 720.812L1302.95 724.806L1301.16 717.344L1321.45 711.773L1321.55 711.668Z" fill="black"/>
<path d="M1361.08 775.256H1394.4V785.346H1350.88V728.484H1361.08V775.256Z" fill="black"/>
<path d="M1445.59 756.864C1445.59 751.084 1443.91 746.354 1440.65 742.78C1437.39 739.207 1432.98 737.42 1427.51 737.42C1422.05 737.42 1417.63 739.207 1414.37 742.78C1411.12 746.354 1409.43 751.084 1409.43 756.864C1409.43 762.645 1411.12 767.375 1414.37 770.948C1417.63 774.522 1422.05 776.309 1427.51 776.309C1432.98 776.309 1437.39 774.522 1440.65 770.948C1443.91 767.375 1445.59 762.645 1445.59 756.864ZM1399.34 756.864C1399.34 752.555 1400.08 748.666 1401.55 744.987C1403.02 741.309 1404.91 738.261 1407.44 735.633C1409.96 733.005 1412.9 730.903 1416.37 729.432C1419.84 727.96 1423.52 727.225 1427.51 727.225C1431.51 727.225 1435.29 727.96 1438.66 729.432C1442.02 730.903 1445.07 733.005 1447.59 735.633C1450.11 738.261 1452.11 741.414 1453.48 744.987C1454.95 748.666 1455.58 752.555 1455.58 756.864C1455.58 761.174 1454.84 765.063 1453.48 768.741C1452.01 772.42 1450.11 775.468 1447.59 778.096C1445.07 780.723 1442.13 782.825 1438.66 784.297C1435.19 785.768 1431.51 786.504 1427.51 786.504C1423.52 786.504 1419.73 785.768 1416.37 784.297C1412.9 782.825 1409.96 780.723 1407.44 778.096C1404.91 775.468 1402.92 772.315 1401.55 768.741C1400.08 765.063 1399.34 761.174 1399.34 756.864Z" fill="black"/>
<path d="M1471.66 728.484L1487.96 776.097L1504.35 728.484H1515.29L1495.84 785.346H1480.18L1460.62 728.484H1471.66Z" fill="black"/>
<path d="M1557.12 711.668L1559.23 720.812L1538.52 724.806L1536.73 717.344L1557.02 711.773L1557.12 711.668ZM1570.58 738.575H1534.42V751.713H1569.84V761.803H1534.42V775.152H1571V785.347H1524.22V728.38H1570.58V738.575Z" fill="black"/>
</svg>
