<svg width="731" height="1194" viewBox="0 0 731 1194" fill="none" xmlns="http://www.w3.org/2000/svg">
<path d="M41.1014 73.6781V50.1345H10.1965V73.6781H0V16.7109H10.1965V39.9392H41.1014V16.7109H51.298V73.6781H41.1014Z" fill="black"/>
<path d="M112.583 16.7109V50.7651C112.583 54.4438 111.952 57.8072 110.691 60.7501C109.43 63.6931 107.643 66.3207 105.435 68.3177C103.228 70.4198 100.705 71.9964 97.7614 73.1526C94.8181 74.3087 91.7696 74.8342 88.4058 74.8342C85.042 74.8342 81.9936 74.3087 79.0503 73.1526C76.1069 71.9964 73.5841 70.4198 71.3766 68.3177C69.1691 66.2156 67.4872 63.6931 66.1207 60.7501C64.8592 57.8072 64.2285 54.4438 64.2285 50.7651V16.7109H74.425V50.7651C74.425 52.9723 74.8455 54.9693 75.5813 56.651C76.3172 58.3327 77.3684 59.8042 78.6298 61.0654C79.8912 62.3267 81.3629 63.1675 83.0448 63.7982C84.7267 64.4288 86.5137 64.7441 88.3007 64.7441C90.0877 64.7441 91.8747 64.4288 93.5566 63.7982C95.2385 63.1675 96.7102 62.2216 97.9716 61.0654C99.2331 59.9093 100.284 58.4378 101.02 56.651C101.756 54.9693 102.176 52.9723 102.176 50.7651V16.7109H112.373H112.583Z" fill="black"/>
<path d="M135.814 26.9062V63.4829H148.638C154.104 63.4829 158.519 61.8012 161.778 58.5429C165.037 55.2846 166.719 50.7651 166.719 45.1945C166.719 39.6239 165.037 35.2095 161.778 31.8461C158.519 28.5879 154.104 26.9062 148.638 26.9062H135.814ZM148.638 16.7109C152.633 16.7109 156.417 17.4467 159.781 18.813C163.25 20.1794 166.193 22.1764 168.716 24.6989C171.239 27.2215 173.236 30.1644 174.603 33.6329C176.074 37.1014 176.81 40.9903 176.81 45.1945C176.81 49.3987 176.074 53.1825 174.603 56.7561C173.131 60.3297 171.239 63.2726 168.716 65.7952C166.193 68.3177 163.25 70.2096 159.781 71.6811C156.312 73.0475 152.633 73.7832 148.638 73.7832H125.617V16.7109H148.638Z" fill="black"/>
<path d="M234.205 26.9062H197.939V40.1495H233.364V50.1345H197.939V63.4829H234.625V73.6781H187.848V16.7109H234.205V26.9062Z" fill="black"/>
<path d="M279.616 40.1495C281.508 40.1495 282.979 39.5188 284.346 38.1524C285.607 36.8912 286.238 35.3146 286.238 33.5278C286.238 31.741 285.607 30.1644 284.346 28.9032C283.084 27.6419 281.508 26.9062 279.616 26.9062H257.751V40.0443H279.616V40.1495ZM247.554 73.7832V16.7109H279.826C282.138 16.7109 284.241 17.1314 286.238 17.9722C288.235 18.813 290.022 19.9692 291.494 21.5458C292.966 23.0173 294.122 24.8041 295.068 26.8011C296.014 28.7981 296.329 30.9002 296.329 33.2125C296.329 35.5248 295.909 37.6269 295.068 39.729C294.227 41.8311 292.861 43.5128 290.968 45.0894C292.861 46.5609 294.122 48.3477 294.963 50.4498C295.804 52.5519 296.224 54.7591 296.224 57.0714C296.224 59.3837 295.804 61.4859 294.963 63.4829C294.122 65.4799 292.861 67.2667 291.389 68.7381C289.917 70.2096 288.13 71.4709 286.133 72.3117C284.136 73.1526 281.928 73.573 279.721 73.573H247.449L247.554 73.7832ZM279.51 63.588C281.403 63.588 282.874 62.9573 284.241 61.591C285.502 60.2246 286.238 58.7531 286.238 56.8612C286.238 54.9693 285.607 53.4978 284.241 52.2366C282.979 50.8702 281.403 50.2396 279.51 50.2396H257.751V63.588H279.51Z" fill="black"/>
<path d="M344.474 73.6781L318.825 25.75V73.6781H308.629V16.7109H325.343L351.097 64.7441V16.7109H361.293V73.6781H344.474Z" fill="black"/>
<path d="M375.063 73.6789V16.7118H385.26V73.6789H375.063ZM389.254 0L391.357 9.14417L370.648 13.1382L368.861 5.67569L389.149 0.105105L389.254 0Z" fill="black"/>
<path d="M465.361 26.9062H432.038V40.1495H464.52V50.1345H432.038V73.6781H421.842V16.7109H465.361V26.9062Z" fill="black"/>
<path d="M510.878 0L512.98 9.14417L492.272 13.1382L490.485 5.67569L510.773 0.105105L510.878 0ZM473.561 45.1953C473.561 40.886 474.296 36.9971 475.768 33.3184C477.24 29.6397 479.132 26.5917 481.655 23.964C484.178 21.3364 487.121 19.2343 490.59 17.7628C494.059 16.2913 497.738 15.5556 501.732 15.5556C505.727 15.5556 509.511 16.2913 512.875 17.7628C516.239 19.2343 519.287 21.3364 521.81 23.964C524.333 26.5917 526.33 29.7448 527.697 33.3184C529.168 36.9971 529.799 40.886 529.799 45.1953C529.799 49.5047 529.063 53.3936 527.697 57.0723C526.225 60.7509 524.333 63.799 521.81 66.4266C519.287 69.0543 516.344 71.1564 512.875 72.6279C509.406 74.0993 505.727 74.8351 501.732 74.8351C497.738 74.8351 493.954 74.0993 490.59 72.6279C487.121 71.1564 484.178 69.0543 481.655 66.4266C479.132 63.799 477.135 60.6458 475.768 57.0723C474.296 53.3936 473.561 49.5047 473.561 45.1953ZM519.813 45.1953C519.813 39.4145 518.131 34.6848 514.872 31.1112C511.614 27.5376 507.199 25.7508 501.732 25.7508C496.266 25.7508 491.851 27.5376 488.593 31.1112C485.334 34.6848 483.652 39.4145 483.652 45.1953C483.652 50.9761 485.334 55.7059 488.593 59.2795C491.851 62.8531 496.266 64.6398 501.732 64.6398C507.199 64.6398 511.614 62.8531 514.872 59.2795C518.131 55.7059 519.813 50.9761 519.813 45.1953Z" fill="black"/>
<path d="M570.48 26.9062H551.138V42.672H570.48C573.528 42.672 575.841 41.9362 577.312 40.3597C578.784 38.7831 579.625 36.9963 579.625 34.7891C579.625 32.5819 578.889 30.7951 577.312 29.2185C575.841 27.6419 573.528 26.9062 570.48 26.9062ZM579.31 73.6781L568.693 52.7621H551.138V73.6781H540.941V16.7109H570.69C573.423 16.7109 575.946 17.1314 578.259 18.0773C580.571 19.0233 582.568 20.2845 584.25 21.8611C585.932 23.4377 587.299 25.3296 588.245 27.5368C589.191 29.744 589.717 32.0563 589.717 34.5789C589.717 38.1524 588.77 41.4107 586.878 44.3537C584.986 47.2966 582.358 49.5038 579.205 50.9753L591.504 73.7832H579.415L579.31 73.6781Z" fill="black"/>
<path d="M649.95 16.7109V50.7651C649.95 54.4438 649.32 57.8072 648.058 60.7501C646.797 63.6931 645.01 66.3207 642.802 68.3177C640.595 70.4198 638.072 71.9964 635.129 73.1526C632.185 74.3087 629.137 74.8342 625.773 74.8342C622.409 74.8342 619.361 74.3087 616.417 73.1526C613.474 71.9964 610.951 70.4198 608.744 68.3177C606.536 66.2156 604.854 63.6931 603.488 60.7501C602.226 57.8072 601.596 54.4438 601.596 50.7651V16.7109H611.792V50.7651C611.792 52.9723 612.213 54.9693 612.949 56.651C613.684 58.3327 614.736 59.8042 615.997 61.0654C617.258 62.3267 618.73 63.1675 620.412 63.7982C622.094 64.4288 623.881 64.7441 625.668 64.7441C627.455 64.7441 629.242 64.4288 630.924 63.7982C632.606 63.1675 634.077 62.2216 635.339 61.0654C636.6 59.9093 637.651 58.4378 638.387 56.651C639.123 54.9693 639.544 52.9723 639.544 50.7651V16.7109H649.74H649.95Z" fill="black"/>
<path d="M720.064 73.6781V26.1704L704.401 73.6781H688.738L673.181 26.1704V73.6781H662.984V16.7109H680.749L696.517 64.9543L712.39 16.7109H730.26V73.6781H720.064Z" fill="black"/>
<path d="M41.1014 175.315V151.772H10.1965V175.315H0V118.453H10.1965V141.576H41.1014V118.453H51.298V175.315H41.1014Z" fill="black"/>
<path d="M112.583 118.453V152.507C112.583 156.186 111.952 159.549 110.691 162.492C109.43 165.435 107.643 168.063 105.435 170.06C103.228 172.162 100.705 173.739 97.7614 174.895C94.8181 176.051 91.7696 176.576 88.4058 176.576C85.042 176.576 81.9936 176.051 79.0503 174.895C76.1069 173.739 73.5841 172.162 71.3766 170.06C69.1691 167.958 67.4872 165.435 66.1207 162.492C64.8592 159.549 64.2285 156.186 64.2285 152.507V118.453H74.425V152.507C74.425 154.714 74.8455 156.711 75.5813 158.393C76.3172 160.075 77.3684 161.546 78.6298 162.808C79.8912 164.069 81.3629 164.91 83.0448 165.54C84.7267 166.171 86.5137 166.486 88.3007 166.486C90.0877 166.486 91.8747 166.171 93.5566 165.54C95.2385 164.91 96.7102 163.964 97.9716 162.808C99.2331 161.651 100.284 160.18 101.02 158.393C101.756 156.711 102.176 154.714 102.176 152.507V118.453H112.373H112.583Z" fill="black"/>
<path d="M135.814 128.543V165.12H148.638C154.104 165.12 158.519 163.438 161.778 160.18C165.037 156.921 166.719 152.402 166.719 146.831C166.719 141.261 165.037 136.846 161.778 133.483C158.519 130.225 154.104 128.543 148.638 128.543H135.814ZM148.638 118.348C152.633 118.348 156.417 119.083 159.781 120.45C163.25 121.816 166.193 123.813 168.716 126.336C171.239 128.858 173.236 131.801 174.603 135.27C176.074 138.738 176.81 142.627 176.81 146.831C176.81 151.035 176.074 154.819 174.603 158.393C173.131 161.966 171.239 164.909 168.716 167.432C166.193 169.954 163.25 171.846 159.781 173.318C156.312 174.684 152.633 175.42 148.638 175.42H125.617V118.453H148.638V118.348Z" fill="black"/>
<path d="M234.205 128.543H197.939V141.787H233.364V151.877H197.939V165.225H234.625V175.315H187.848V118.453H234.205V128.543Z" fill="black"/>
<path d="M279.616 141.787C281.508 141.787 282.979 141.156 284.346 139.79C285.607 138.528 286.238 136.952 286.238 135.165C286.238 133.378 285.607 131.802 284.346 130.54C283.084 129.279 281.508 128.543 279.616 128.543H257.751V141.681H279.616V141.787ZM247.554 175.42V118.453H279.826C282.138 118.453 284.241 118.874 286.238 119.714C288.235 120.555 290.022 121.711 291.494 123.288C292.966 124.759 294.122 126.546 295.068 128.543C296.014 130.54 296.329 132.642 296.329 134.955C296.329 137.267 295.909 139.369 295.068 141.471C294.227 143.573 292.861 145.255 290.968 146.832C292.861 148.303 294.122 150.09 294.963 152.192C295.804 154.294 296.224 156.501 296.224 158.814C296.224 161.126 295.804 163.228 294.963 165.225C294.122 167.222 292.861 169.009 291.389 170.48C289.917 171.952 288.13 173.213 286.133 174.054C284.136 174.895 281.928 175.315 279.721 175.315H247.449L247.554 175.42ZM279.51 165.225C281.403 165.225 282.874 164.594 284.241 163.228C285.502 161.862 286.238 160.39 286.238 158.498C286.238 156.606 285.607 155.135 284.241 153.874C282.979 152.507 281.403 151.877 279.51 151.877H257.751V165.225H279.51Z" fill="black"/>
<path d="M344.474 175.315L318.825 127.387V175.315H308.629V118.453H325.343L351.097 166.381V118.453H361.293V175.315H344.474Z" fill="black"/>
<path d="M375.063 175.316V118.348H385.26V175.316H375.063ZM389.254 101.637L391.357 110.781L370.648 114.775L368.861 107.312L389.149 101.742L389.254 101.637Z" fill="black"/>
<path d="M465.361 128.543H432.038V141.787H464.52V151.877H432.038V175.315H421.842V118.453H465.361V128.543Z" fill="black"/>
<path d="M510.878 101.637L512.98 110.781L492.272 114.775L490.485 107.312L510.773 101.742L510.878 101.637ZM473.561 146.832C473.561 142.523 474.296 138.634 475.768 134.955C477.24 131.276 479.132 128.228 481.655 125.601C484.178 122.973 487.121 120.871 490.59 119.4C494.059 117.928 497.738 117.192 501.732 117.192C505.727 117.192 509.511 117.928 512.875 119.4C516.239 120.871 519.287 122.973 521.81 125.601C524.333 128.228 526.33 131.382 527.697 134.955C529.168 138.634 529.799 142.523 529.799 146.832C529.799 151.141 529.063 155.03 527.697 158.709C526.225 162.388 524.333 165.436 521.81 168.063C519.287 170.691 516.344 172.793 512.875 174.265C509.406 175.736 505.727 176.472 501.732 176.472C497.738 176.472 493.954 175.736 490.59 174.265C487.121 172.793 484.178 170.691 481.655 168.063C479.132 165.436 477.135 162.283 475.768 158.709C474.296 155.03 473.561 151.141 473.561 146.832ZM519.813 146.832C519.813 141.051 518.131 136.322 514.872 132.748C511.614 129.174 507.199 127.388 501.732 127.388C496.266 127.388 491.851 129.174 488.593 132.748C485.334 136.322 483.652 141.051 483.652 146.832C483.652 152.613 485.334 157.343 488.593 160.916C491.851 164.49 496.266 166.277 501.732 166.277C507.199 166.277 511.614 164.49 514.872 160.916C518.131 157.343 519.813 152.613 519.813 146.832Z" fill="black"/>
<path d="M570.48 128.543H551.138V144.309H570.48C573.528 144.309 575.841 143.573 577.312 141.996C578.784 140.42 579.625 138.633 579.625 136.426C579.625 134.219 578.889 132.432 577.312 130.855C575.841 129.279 573.528 128.543 570.48 128.543ZM579.31 175.315L568.693 154.399H551.138V175.315H540.941V118.348H570.69C573.423 118.348 575.946 118.768 578.259 119.714C580.571 120.66 582.568 121.921 584.25 123.498C585.932 125.074 587.299 126.966 588.245 129.174C589.191 131.381 589.717 133.693 589.717 136.216C589.717 139.789 588.77 143.047 586.878 145.99C584.986 148.933 582.358 151.141 579.205 152.612L591.504 175.42H579.415L579.31 175.315Z" fill="black"/>
<path d="M649.95 118.453V152.507C649.95 156.186 649.32 159.549 648.058 162.492C646.797 165.435 645.01 168.063 642.802 170.06C640.595 172.162 638.072 173.739 635.129 174.895C632.185 176.051 629.137 176.576 625.773 176.576C622.409 176.576 619.361 176.051 616.417 174.895C613.474 173.739 610.951 172.162 608.744 170.06C606.536 167.958 604.854 165.435 603.488 162.492C602.226 159.549 601.596 156.186 601.596 152.507V118.453H611.792V152.507C611.792 154.714 612.213 156.711 612.949 158.393C613.684 160.075 614.736 161.546 615.997 162.808C617.258 164.069 618.73 164.91 620.412 165.54C622.094 166.171 623.881 166.486 625.668 166.486C627.455 166.486 629.242 166.171 630.924 165.54C632.606 164.91 634.077 163.964 635.339 162.808C636.6 161.651 637.651 160.18 638.387 158.393C639.123 156.711 639.544 154.714 639.544 152.507V118.453H649.74H649.95Z" fill="black"/>
<path d="M720.064 175.315V127.913L704.401 175.315H688.738L673.181 127.913V175.315H662.984V118.453H680.749L696.517 166.697L712.39 118.453H730.26V175.315H720.064Z" fill="black"/>
<path d="M41.1014 277.057V253.408H10.1965V277.057H0V220.09H10.1965V243.318H41.1014V220.09H51.298V277.057H41.1014Z" fill="black"/>
<path d="M112.583 220.09V254.144C112.583 257.823 111.952 261.186 110.691 264.129C109.43 267.072 107.643 269.7 105.435 271.697C103.228 273.799 100.705 275.375 97.7614 276.531C94.8181 277.688 91.7696 278.213 88.4058 278.213C85.042 278.213 81.9936 277.688 79.0503 276.531C76.1069 275.375 73.5841 273.799 71.3766 271.697C69.1691 269.595 67.4872 267.072 66.1207 264.129C64.8592 261.186 64.2285 257.823 64.2285 254.144V220.09H74.425V254.144C74.425 256.351 74.8455 258.348 75.5813 260.03C76.3172 261.712 77.3684 263.183 78.6298 264.444C79.8912 265.706 81.3629 266.546 83.0448 267.177C84.7267 267.808 86.5137 268.123 88.3007 268.123C90.0877 268.123 91.8747 267.808 93.5566 267.177C95.2385 266.546 96.7102 265.6 97.9716 264.444C99.2331 263.288 100.284 261.817 101.02 260.03C101.756 258.348 102.176 256.351 102.176 254.144V220.09H112.373H112.583Z" fill="black"/>
<path d="M135.814 230.285V266.862H148.638C154.104 266.862 158.519 265.18 161.778 261.922C165.037 258.664 166.719 254.144 166.719 248.573C166.719 243.003 165.037 238.588 161.778 235.225C158.519 231.967 154.104 230.285 148.638 230.285H135.814ZM148.638 220.09C152.633 220.09 156.417 220.826 159.781 222.192C163.25 223.558 166.193 225.555 168.716 228.078C171.239 230.6 173.236 233.543 174.603 237.012C176.074 240.48 176.81 244.369 176.81 248.573C176.81 252.778 176.074 256.561 174.603 260.135C173.131 263.709 171.239 266.652 168.716 269.174C166.193 271.697 163.25 273.589 159.781 275.06C156.312 276.426 152.633 277.162 148.638 277.162H125.617V220.195H148.638V220.09Z" fill="black"/>
<path d="M234.205 230.285H197.939V243.423H233.364V253.513H197.939V266.862H234.625V277.057H187.848V220.09H234.205V230.285Z" fill="black"/>
<path d="M279.616 243.423C281.508 243.423 282.979 242.793 284.346 241.426C285.607 240.165 286.238 238.588 286.238 236.802C286.238 235.015 285.607 233.438 284.346 232.177C283.084 230.916 281.508 230.18 279.616 230.18H257.751V243.318H279.616V243.423ZM247.554 277.057V220.09H279.826C282.138 220.09 284.241 220.51 286.238 221.351C288.235 222.192 290.022 223.348 291.494 224.925C292.966 226.396 294.122 228.183 295.068 230.18C296.014 232.177 296.329 234.279 296.329 236.591C296.329 238.904 295.909 241.006 295.068 243.108C294.227 245.21 292.861 246.892 290.968 248.468C292.861 249.94 294.122 251.727 294.963 253.829C295.804 255.931 296.224 258.138 296.224 260.45C296.224 262.763 295.804 264.865 294.963 266.862C294.122 268.859 292.861 270.646 291.389 272.117C289.917 273.588 288.13 274.85 286.133 275.691C284.136 276.531 281.928 276.952 279.721 276.952H247.449L247.554 277.057ZM279.51 266.862C281.403 266.862 282.874 266.231 284.241 264.865C285.502 263.498 286.238 262.027 286.238 260.135C286.238 258.243 285.607 256.772 284.241 255.51C282.979 254.144 281.403 253.513 279.51 253.513H257.751V266.862H279.51Z" fill="black"/>
<path d="M344.474 277.057L318.825 229.024V277.057H308.629V220.09H325.343L351.097 268.123V220.09H361.293V277.057H344.474Z" fill="black"/>
<path d="M375.063 277.058V220.091H385.26V277.058H375.063ZM389.254 203.379L391.357 212.523L370.648 216.517L368.861 209.055L389.149 203.484L389.254 203.379Z" fill="black"/>
<path d="M465.361 230.285H432.038V243.423H464.52V253.513H432.038V277.057H421.842V220.09H465.361V230.285Z" fill="black"/>
<path d="M510.878 203.379L512.98 212.523L492.272 216.517L490.485 209.055L510.773 203.484L510.878 203.379ZM473.561 248.574C473.561 244.265 474.296 240.376 475.768 236.697C477.24 233.019 479.132 229.971 481.655 227.343C484.178 224.715 487.121 222.613 490.59 221.142C494.059 219.67 497.738 218.935 501.732 218.935C505.727 218.935 509.511 219.67 512.875 221.142C516.239 222.613 519.287 224.715 521.81 227.343C524.333 229.971 526.33 233.124 527.697 236.697C529.168 240.376 529.799 244.265 529.799 248.574C529.799 252.884 529.063 256.772 527.697 260.451C526.225 264.13 524.333 267.178 521.81 269.806C519.287 272.433 516.344 274.535 512.875 276.007C509.406 277.478 505.727 278.214 501.732 278.214C497.738 278.214 493.954 277.478 490.59 276.007C487.121 274.535 484.178 272.433 481.655 269.806C479.132 267.178 477.135 264.025 475.768 260.451C474.296 256.772 473.561 252.884 473.561 248.574ZM519.813 248.574C519.813 242.793 518.131 238.064 514.872 234.49C511.614 230.917 507.199 229.13 501.732 229.13C496.266 229.13 491.851 230.917 488.593 234.49C485.334 238.064 483.652 242.793 483.652 248.574C483.652 254.355 485.334 259.085 488.593 262.658C491.851 266.232 496.266 268.019 501.732 268.019C507.199 268.019 511.614 266.232 514.872 262.658C518.131 259.085 519.813 254.355 519.813 248.574Z" fill="black"/>
<path d="M570.48 230.285H551.138V246.051H570.48C573.528 246.051 575.841 245.315 577.312 243.739C578.784 242.162 579.625 240.375 579.625 238.168C579.625 235.961 578.889 234.174 577.312 232.597C575.841 231.021 573.528 230.285 570.48 230.285ZM579.31 277.057L568.693 256.141H551.138V277.057H540.941V220.09H570.69C573.423 220.09 575.946 220.51 578.259 221.456C580.571 222.402 582.568 223.663 584.25 225.24C585.932 226.817 587.299 228.708 588.245 230.916C589.191 233.123 589.717 235.435 589.717 237.958C589.717 241.531 588.77 244.79 586.878 247.733C584.986 250.676 582.358 252.883 579.205 254.354L591.504 277.162H579.415L579.31 277.057Z" fill="black"/>
<path d="M649.95 220.09V254.144C649.95 257.823 649.32 261.186 648.058 264.129C646.797 267.072 645.01 269.7 642.802 271.697C640.595 273.799 638.072 275.375 635.129 276.531C632.185 277.688 629.137 278.213 625.773 278.213C622.409 278.213 619.361 277.688 616.417 276.531C613.474 275.375 610.951 273.799 608.744 271.697C606.536 269.595 604.854 267.072 603.488 264.129C602.226 261.186 601.596 257.823 601.596 254.144V220.09H611.792V254.144C611.792 256.351 612.213 258.348 612.949 260.03C613.684 261.712 614.736 263.183 615.997 264.444C617.258 265.706 618.73 266.546 620.412 267.177C622.094 267.808 623.881 268.123 625.668 268.123C627.455 268.123 629.242 267.808 630.924 267.177C632.606 266.546 634.077 265.6 635.339 264.444C636.6 263.288 637.651 261.817 638.387 260.03C639.123 258.348 639.544 256.351 639.544 254.144V220.09H649.74H649.95Z" fill="black"/>
<path d="M720.064 277.057V229.549L704.401 277.057H688.738L673.181 229.549V277.057H662.984V220.09H680.749L696.517 268.333L712.39 220.09H730.26V277.057H720.064Z" fill="black"/>
<path d="M41.1014 378.694V355.15H10.1965V378.694H0V321.727H10.1965V344.955H41.1014V321.727H51.298V378.694H41.1014Z" fill="black"/>
<path d="M112.583 321.727V355.781C112.583 359.459 111.952 362.823 110.691 365.766C109.43 368.709 107.643 371.336 105.435 373.333C103.228 375.435 100.705 377.012 97.7614 378.168C94.8181 379.324 91.7696 379.85 88.4058 379.85C85.042 379.85 81.9936 379.324 79.0503 378.168C76.1069 377.012 73.5841 375.435 71.3766 373.333C69.1691 371.231 67.4872 368.709 66.1207 365.766C64.8592 362.823 64.2285 359.459 64.2285 355.781V321.727H74.425V355.781C74.425 357.988 74.8455 359.985 75.5813 361.667C76.3172 363.348 77.3684 364.82 78.6298 366.081C79.8912 367.342 81.3629 368.183 83.0448 368.814C84.7267 369.444 86.5137 369.76 88.3007 369.76C90.0877 369.76 91.8747 369.444 93.5566 368.814C95.2385 368.183 96.7102 367.237 97.9716 366.081C99.2331 364.925 100.284 363.453 101.02 361.667C101.756 359.985 102.176 357.988 102.176 355.781V321.727H112.373H112.583Z" fill="black"/>
<path d="M135.814 331.922V368.498H148.638C154.104 368.498 158.519 366.817 161.778 363.559C165.037 360.3 166.719 355.781 166.719 350.21C166.719 344.64 165.037 340.225 161.778 336.862C158.519 333.603 154.104 331.922 148.638 331.922H135.814ZM148.638 321.727C152.633 321.727 156.417 322.462 159.781 323.829C163.25 325.195 166.193 327.192 168.716 329.715C171.239 332.237 173.236 335.18 174.603 338.649C176.074 342.117 176.81 346.006 176.81 350.21C176.81 354.414 176.074 358.198 174.603 361.772C173.131 365.345 171.239 368.288 168.716 370.811C166.193 373.333 163.25 375.225 159.781 376.697C156.312 378.063 152.633 378.799 148.638 378.799H125.617V321.832H148.638V321.727Z" fill="black"/>
<path d="M234.205 331.922H197.939V345.06H233.364V355.15H197.939V368.498H234.625V378.694H187.848V321.727H234.205V331.922Z" fill="black"/>
<path d="M279.616 345.06C281.508 345.06 282.979 344.429 284.346 343.063C285.607 341.802 286.238 340.225 286.238 338.438C286.238 336.652 285.607 335.075 284.346 333.814C283.084 332.552 281.508 331.817 279.616 331.817H257.751V344.955H279.616V345.06ZM247.554 378.694V321.727H279.826C282.138 321.727 284.241 322.147 286.238 322.988C288.235 323.829 290.022 324.985 291.494 326.561C292.966 328.033 294.122 329.82 295.068 331.817C296.014 333.814 296.329 335.916 296.329 338.228C296.329 340.54 295.909 342.643 295.068 344.745C294.227 346.847 292.861 348.528 290.968 350.105C292.861 351.577 294.122 353.363 294.963 355.465C295.804 357.568 296.224 359.775 296.224 362.087C296.224 364.399 295.804 366.501 294.963 368.498C294.122 370.495 292.861 372.282 291.389 373.754C289.917 375.225 288.13 376.487 286.133 377.327C284.136 378.168 281.928 378.589 279.721 378.589H247.449L247.554 378.694ZM279.51 368.498C281.403 368.498 282.874 367.868 284.241 366.501C285.502 365.135 286.238 363.664 286.238 361.772C286.238 359.88 285.607 358.408 284.241 357.147C282.979 355.781 281.403 355.15 279.51 355.15H257.751V368.498H279.51Z" fill="black"/>
<path d="M344.474 378.694L318.825 330.661V378.694H308.629V321.727H325.343L351.097 369.76V321.727H361.293V378.694H344.474Z" fill="black"/>
<path d="M375.063 378.695V321.727H385.26V378.695H375.063ZM389.254 305.016L391.357 314.16L370.648 318.154L368.861 310.691L389.149 305.121L389.254 305.016Z" fill="black"/>
<path d="M465.361 331.922H432.038V345.06H464.52V355.15H432.038V378.694H421.842V321.727H465.361V331.922Z" fill="black"/>
<path d="M510.878 305.016L512.98 314.16L492.272 318.154L490.485 310.691L510.773 305.121L510.878 305.016ZM473.561 350.211C473.561 345.902 474.296 342.013 475.768 338.334C477.24 334.655 479.132 331.607 481.655 328.98C484.178 326.352 487.121 324.25 490.59 322.778C494.059 321.307 497.738 320.571 501.732 320.571C505.727 320.571 509.511 321.307 512.875 322.778C516.239 324.25 519.287 326.352 521.81 328.98C524.333 331.607 526.33 334.76 527.697 338.334C529.168 342.013 529.799 345.902 529.799 350.211C529.799 354.52 529.063 358.409 527.697 362.088C526.225 365.767 524.333 368.815 521.81 371.442C519.287 374.07 516.344 376.172 512.875 377.643C509.406 379.115 505.727 379.851 501.732 379.851C497.738 379.851 493.954 379.115 490.59 377.643C487.121 376.172 484.178 374.07 481.655 371.442C479.132 368.815 477.135 365.661 475.768 362.088C474.296 358.409 473.561 354.52 473.561 350.211ZM519.813 350.211C519.813 344.43 518.131 339.7 514.872 336.127C511.614 332.553 507.199 330.766 501.732 330.766C496.266 330.766 491.851 332.553 488.593 336.127C485.334 339.7 483.652 344.43 483.652 350.211C483.652 355.992 485.334 360.722 488.593 364.295C491.851 367.869 496.266 369.655 501.732 369.655C507.199 369.655 511.614 367.869 514.872 364.295C518.131 360.722 519.813 355.992 519.813 350.211Z" fill="black"/>
<path d="M570.48 331.922H551.138V347.688H570.48C573.528 347.688 575.841 346.952 577.312 345.375C578.784 343.799 579.625 342.012 579.625 339.805C579.625 337.597 578.889 335.811 577.312 334.234C575.841 332.658 573.528 331.922 570.48 331.922ZM579.31 378.694L568.693 357.778H551.138V378.694H540.941V321.727H570.69C573.423 321.727 575.946 322.147 578.259 323.093C580.571 324.039 582.568 325.3 584.25 326.877C585.932 328.453 587.299 330.345 588.245 332.552C589.191 334.76 589.717 337.072 589.717 339.594C589.717 343.168 588.77 346.426 586.878 349.369C584.986 352.312 582.358 354.519 579.205 355.991L591.504 378.799H579.415L579.31 378.694Z" fill="black"/>
<path d="M649.95 321.727V355.781C649.95 359.459 649.32 362.823 648.058 365.766C646.797 368.709 645.01 371.336 642.802 373.333C640.595 375.435 638.072 377.012 635.129 378.168C632.185 379.324 629.137 379.85 625.773 379.85C622.409 379.85 619.361 379.324 616.417 378.168C613.474 377.012 610.951 375.435 608.744 373.333C606.536 371.231 604.854 368.709 603.488 365.766C602.226 362.823 601.596 359.459 601.596 355.781V321.727H611.792V355.781C611.792 357.988 612.213 359.985 612.949 361.667C613.684 363.348 614.736 364.82 615.997 366.081C617.258 367.342 618.73 368.183 620.412 368.814C622.094 369.444 623.881 369.76 625.668 369.76C627.455 369.76 629.242 369.444 630.924 368.814C632.606 368.183 634.077 367.237 635.339 366.081C636.6 364.925 637.651 363.453 638.387 361.667C639.123 359.985 639.544 357.988 639.544 355.781V321.727H649.74H649.95Z" fill="black"/>
<path d="M720.064 378.694V331.186L704.401 378.694H688.738L673.181 331.186V378.694H662.984V321.727H680.749L696.517 369.97L712.39 321.727H730.26V378.694H720.064Z" fill="black"/>
<path d="M41.1014 480.331V456.787H10.1965V480.331H0V423.469H10.1965V446.592H41.1014V423.469H51.298V480.331H41.1014Z" fill="black"/>
<path d="M112.583 423.469V457.523C112.583 461.202 111.952 464.565 110.691 467.508C109.43 470.451 107.643 473.079 105.435 475.076C103.228 477.178 100.705 478.754 97.7614 479.91C94.8181 481.067 91.7696 481.592 88.4058 481.592C85.042 481.592 81.9936 481.067 79.0503 479.91C76.1069 478.754 73.5841 477.178 71.3766 475.076C69.1691 472.973 67.4872 470.451 66.1207 467.508C64.8592 464.565 64.2285 461.202 64.2285 457.523V423.469H74.425V457.523C74.425 459.73 74.8455 461.727 75.5813 463.409C76.3172 465.09 77.3684 466.562 78.6298 467.823C79.8912 469.084 81.3629 469.925 83.0448 470.556C84.7267 471.187 86.5137 471.502 88.3007 471.502C90.0877 471.502 91.8747 471.187 93.5566 470.556C95.2385 469.925 96.7102 468.979 97.9716 467.823C99.2331 466.667 100.284 465.196 101.02 463.409C101.756 461.727 102.176 459.73 102.176 457.523V423.469H112.373H112.583Z" fill="black"/>
<path d="M135.814 433.559V470.135H148.638C154.104 470.135 158.519 468.454 161.778 465.195C165.037 461.937 166.719 457.417 166.719 451.847C166.719 446.276 165.037 441.862 161.778 438.498C158.519 435.24 154.104 433.559 148.638 433.559H135.814ZM148.638 423.363C152.633 423.363 156.417 424.099 159.781 425.465C163.25 426.832 166.193 428.829 168.716 431.351C171.239 433.874 173.236 436.817 174.603 440.285C176.074 443.754 176.81 447.643 176.81 451.847C176.81 456.051 176.074 459.835 174.603 463.408C173.131 466.982 171.239 469.925 168.716 472.448C166.193 474.97 163.25 476.862 159.781 478.333C156.312 479.7 152.633 480.436 148.638 480.436H125.617V423.468H148.638V423.363Z" fill="black"/>
<path d="M234.205 433.559H197.939V446.802H233.364V456.892H197.939V470.241H234.625V480.331H187.848V423.469H234.205V433.559Z" fill="black"/>
<path d="M279.616 446.802C281.508 446.802 282.979 446.172 284.346 444.805C285.607 443.544 286.238 441.967 286.238 440.181C286.238 438.394 285.607 436.817 284.346 435.556C283.084 434.295 281.508 433.559 279.616 433.559H257.751V446.697H279.616V446.802ZM247.554 480.436V423.469H279.826C282.138 423.469 284.241 423.889 286.238 424.73C288.235 425.571 290.022 426.727 291.494 428.304C292.966 429.775 294.122 431.562 295.068 433.559C296.014 435.556 296.329 437.658 296.329 439.97C296.329 442.283 295.909 444.385 295.068 446.487C294.227 448.589 292.861 450.271 290.968 451.847C292.861 453.319 294.122 455.105 294.963 457.208C295.804 459.31 296.224 461.517 296.224 463.829C296.224 466.142 295.804 468.244 294.963 470.241C294.122 472.238 292.861 474.024 291.389 475.496C289.917 476.967 288.13 478.229 286.133 479.07C284.136 479.91 281.928 480.331 279.721 480.331H247.449L247.554 480.436ZM279.51 470.241C281.403 470.241 282.874 469.61 284.241 468.244C285.502 466.877 286.238 465.406 286.238 463.514C286.238 461.622 285.607 460.151 284.241 458.889C282.979 457.523 281.403 456.892 279.51 456.892H257.751V470.241H279.51Z" fill="black"/>
<path d="M344.474 480.331L318.825 432.403V480.331H308.629V423.469H325.343L351.097 471.397V423.469H361.293V480.331H344.474Z" fill="black"/>
<path d="M375.063 480.331V423.364H385.26V480.331H375.063ZM389.254 406.652L391.357 415.797L370.648 419.791L368.861 412.328L389.149 406.757L389.254 406.652Z" fill="black"/>
<path d="M465.361 433.559H432.038V446.802H464.52V456.892H432.038V480.331H421.842V423.469H465.361V433.559Z" fill="black"/>
<path d="M510.878 406.652L512.98 415.797L492.272 419.791L490.485 412.328L510.773 406.757L510.878 406.652ZM473.561 451.848C473.561 447.538 474.296 443.649 475.768 439.971C477.24 436.292 479.132 433.244 481.655 430.616C484.178 427.989 487.121 425.887 490.59 424.415C494.059 422.944 497.738 422.208 501.732 422.208C505.727 422.208 509.511 422.944 512.875 424.415C516.239 425.887 519.287 427.989 521.81 430.616C524.333 433.244 526.33 436.397 527.697 439.971C529.168 443.649 529.799 447.538 529.799 451.848C529.799 456.157 529.063 460.046 527.697 463.725C526.225 467.403 524.333 470.451 521.81 473.079C519.287 475.707 516.344 477.809 512.875 479.28C509.406 480.752 505.727 481.487 501.732 481.487C497.738 481.487 493.954 480.752 490.59 479.28C487.121 477.809 484.178 475.707 481.655 473.079C479.132 470.451 477.135 467.298 475.768 463.725C474.296 460.046 473.561 456.157 473.561 451.848ZM519.813 451.848C519.813 446.067 518.131 441.337 514.872 437.764C511.614 434.19 507.199 432.403 501.732 432.403C496.266 432.403 491.851 434.19 488.593 437.764C485.334 441.337 483.652 446.067 483.652 451.848C483.652 457.629 485.334 462.358 488.593 465.932C491.851 469.505 496.266 471.292 501.732 471.292C507.199 471.292 511.614 469.505 514.872 465.932C518.131 462.358 519.813 457.629 519.813 451.848Z" fill="black"/>
<path d="M570.48 433.559H551.138V449.324H570.48C573.528 449.324 575.841 448.589 577.312 447.012C578.784 445.435 579.625 443.649 579.625 441.441C579.625 439.234 578.889 437.447 577.312 435.871C575.841 434.294 573.528 433.559 570.48 433.559ZM579.31 480.33L568.693 459.414H551.138V480.33H540.941V423.363H570.69C573.423 423.363 575.946 423.784 578.259 424.73C580.571 425.676 582.568 426.937 584.25 428.513C585.932 430.09 587.299 431.982 588.245 434.189C589.191 436.396 589.717 438.709 589.717 441.231C589.717 444.805 588.77 448.063 586.878 451.006C584.986 453.949 582.358 456.156 579.205 457.628L591.504 480.436H579.415L579.31 480.33Z" fill="black"/>
<path d="M649.95 423.469V457.523C649.95 461.202 649.32 464.565 648.058 467.508C646.797 470.451 645.01 473.079 642.802 475.076C640.595 477.178 638.072 478.754 635.129 479.91C632.185 481.067 629.137 481.592 625.773 481.592C622.409 481.592 619.361 481.067 616.417 479.91C613.474 478.754 610.951 477.178 608.744 475.076C606.536 472.973 604.854 470.451 603.488 467.508C602.226 464.565 601.596 461.202 601.596 457.523V423.469H611.792V457.523C611.792 459.73 612.213 461.727 612.949 463.409C613.684 465.09 614.736 466.562 615.997 467.823C617.258 469.084 618.73 469.925 620.412 470.556C622.094 471.187 623.881 471.502 625.668 471.502C627.455 471.502 629.242 471.187 630.924 470.556C632.606 469.925 634.077 468.979 635.339 467.823C636.6 466.667 637.651 465.196 638.387 463.409C639.123 461.727 639.544 459.73 639.544 457.523V423.469H649.74H649.95Z" fill="black"/>
<path d="M720.064 480.331V432.823L704.401 480.331H688.738L673.181 432.823V480.331H662.984V423.469H680.749L696.517 471.712L712.39 423.469H730.26V480.331H720.064Z" fill="black"/>
<path d="M41.1014 582.073V558.424H10.1965V582.073H0V525.105H10.1965V548.334H41.1014V525.105H51.298V582.073H41.1014Z" fill="black"/>
<path d="M112.583 525.105V559.16C112.583 562.838 111.952 566.202 110.691 569.145C109.43 572.088 107.643 574.715 105.435 576.712C103.228 578.814 100.705 580.391 97.7614 581.547C94.8181 582.703 91.7696 583.229 88.4058 583.229C85.042 583.229 81.9936 582.703 79.0503 581.547C76.1069 580.391 73.5841 578.814 71.3766 576.712C69.1691 574.61 67.4872 572.088 66.1207 569.145C64.8592 566.202 64.2285 562.838 64.2285 559.16V525.105H74.425V559.16C74.425 561.367 74.8455 563.364 75.5813 565.046C76.3172 566.727 77.3684 568.199 78.6298 569.46C79.8912 570.721 81.3629 571.562 83.0448 572.193C84.7267 572.823 86.5137 573.139 88.3007 573.139C90.0877 573.139 91.8747 572.823 93.5566 572.193C95.2385 571.562 96.7102 570.616 97.9716 569.46C99.2331 568.304 100.284 566.832 101.02 565.046C101.756 563.364 102.176 561.367 102.176 559.16V525.105H112.373H112.583Z" fill="black"/>
<path d="M135.814 535.301V571.877H148.638C154.104 571.877 158.519 570.196 161.778 566.937C165.037 563.679 166.719 559.16 166.719 553.589C166.719 548.018 165.037 543.604 161.778 540.241C158.519 536.982 154.104 535.301 148.638 535.301H135.814ZM148.638 525.105C152.633 525.105 156.417 525.841 159.781 527.208C163.25 528.574 166.193 530.571 168.716 533.094C171.239 535.616 173.236 538.559 174.603 542.027C176.074 545.496 176.81 549.385 176.81 553.589C176.81 557.793 176.074 561.577 174.603 565.151C173.131 568.724 171.239 571.667 168.716 574.19C166.193 576.712 163.25 578.604 159.781 580.076C156.312 581.442 152.633 582.178 148.638 582.178H125.617V525.211H148.638V525.105Z" fill="black"/>
<path d="M234.205 535.301H197.939V548.439H233.364V558.529H197.939V571.877H234.625V582.073H187.848V525.105H234.205V535.301Z" fill="black"/>
<path d="M279.616 548.439C281.508 548.439 282.979 547.808 284.346 546.442C285.607 545.181 286.238 543.604 286.238 541.817C286.238 540.03 285.607 538.454 284.346 537.193C283.084 535.931 281.508 535.196 279.616 535.196H257.751V548.334H279.616V548.439ZM247.554 582.073V525.105H279.826C282.138 525.105 284.241 525.526 286.238 526.367C288.235 527.208 290.022 528.364 291.494 529.94C292.966 531.412 294.122 533.199 295.068 535.196C296.014 537.193 296.329 539.295 296.329 541.607C296.329 543.919 295.909 546.021 295.068 548.124C294.227 550.226 292.861 551.907 290.968 553.484C292.861 554.955 294.122 556.742 294.963 558.844C295.804 560.946 296.224 563.154 296.224 565.466C296.224 567.778 295.804 569.88 294.963 571.877C294.122 573.874 292.861 575.661 291.389 577.133C289.917 578.604 288.13 579.865 286.133 580.706C284.136 581.547 281.928 581.968 279.721 581.968H247.449L247.554 582.073ZM279.51 571.877C281.403 571.877 282.874 571.247 284.241 569.88C285.502 568.514 286.238 567.043 286.238 565.151C286.238 563.259 285.607 561.787 284.241 560.526C282.979 559.16 281.403 558.529 279.51 558.529H257.751V571.877H279.51Z" fill="black"/>
<path d="M344.474 582.073L318.825 534.039V582.073H308.629V525.105H325.343L351.097 573.139V525.105H361.293V582.073H344.474Z" fill="black"/>
<path d="M375.063 582.073V525.106H385.26V582.073H375.063ZM389.254 508.395L391.357 517.539L370.648 521.533L368.861 514.07L389.149 508.5L389.254 508.395Z" fill="black"/>
<path d="M465.361 535.301H432.038V548.439H464.52V558.529H432.038V582.073H421.842V525.105H465.361V535.301Z" fill="black"/>
<path d="M510.878 508.395L512.98 517.539L492.272 521.533L490.485 514.07L510.773 508.5L510.878 508.395ZM473.561 553.59C473.561 549.281 474.296 545.392 475.768 541.713C477.24 538.034 479.132 534.986 481.655 532.359C484.178 529.731 487.121 527.629 490.59 526.157C494.059 524.686 497.738 523.95 501.732 523.95C505.727 523.95 509.511 524.686 512.875 526.157C516.239 527.629 519.287 529.731 521.81 532.359C524.333 534.986 526.33 538.139 527.697 541.713C529.168 545.392 529.799 549.281 529.799 553.59C529.799 557.899 529.063 561.788 527.697 565.467C526.225 569.145 524.333 572.194 521.81 574.821C519.287 577.449 516.344 579.551 512.875 581.022C509.406 582.494 505.727 583.23 501.732 583.23C497.738 583.23 493.954 582.494 490.59 581.022C487.121 579.551 484.178 577.449 481.655 574.821C479.132 572.194 477.135 569.04 475.768 565.467C474.296 561.788 473.561 557.899 473.561 553.59ZM519.813 553.59C519.813 547.809 518.131 543.079 514.872 539.506C511.614 535.932 507.199 534.145 501.732 534.145C496.266 534.145 491.851 535.932 488.593 539.506C485.334 543.079 483.652 547.809 483.652 553.59C483.652 559.371 485.334 564.1 488.593 567.674C491.851 571.248 496.266 573.034 501.732 573.034C507.199 573.034 511.614 571.248 514.872 567.674C518.131 564.1 519.813 559.371 519.813 553.59Z" fill="black"/>
<path d="M570.48 535.301H551.138V551.067H570.48C573.528 551.067 575.841 550.331 577.312 548.754C578.784 547.178 579.625 545.391 579.625 543.184C579.625 540.976 578.889 539.19 577.312 537.613C575.841 536.036 573.528 535.301 570.48 535.301ZM579.31 582.073L568.693 561.157H551.138V582.073H540.941V525.105H570.69C573.423 525.105 575.946 525.526 578.259 526.472C580.571 527.418 582.568 528.679 584.25 530.256C585.932 531.832 587.299 533.724 588.245 535.931C589.191 538.139 589.717 540.451 589.717 542.973C589.717 546.547 588.77 549.805 586.878 552.748C584.986 555.691 582.358 557.898 579.205 559.37L591.504 582.178H579.415L579.31 582.073Z" fill="black"/>
<path d="M649.95 525.105V559.16C649.95 562.838 649.32 566.202 648.058 569.145C646.797 572.088 645.01 574.715 642.802 576.712C640.595 578.814 638.072 580.391 635.129 581.547C632.185 582.703 629.137 583.229 625.773 583.229C622.409 583.229 619.361 582.703 616.417 581.547C613.474 580.391 610.951 578.814 608.744 576.712C606.536 574.61 604.854 572.088 603.488 569.145C602.226 566.202 601.596 562.838 601.596 559.16V525.105H611.792V559.16C611.792 561.367 612.213 563.364 612.949 565.046C613.684 566.727 614.736 568.199 615.997 569.46C617.258 570.721 618.73 571.562 620.412 572.193C622.094 572.823 623.881 573.139 625.668 573.139C627.455 573.139 629.242 572.823 630.924 572.193C632.606 571.562 634.077 570.616 635.339 569.46C636.6 568.304 637.651 566.832 638.387 565.046C639.123 563.364 639.544 561.367 639.544 559.16V525.105H649.74H649.95Z" fill="black"/>
<path d="M720.064 582.073V534.565L704.401 582.073H688.738L673.181 534.565V582.073H662.984V525.105H680.749L696.517 573.349L712.39 525.105H730.26V582.073H720.064Z" fill="black"/>
<path d="M41.1014 683.711V660.168H10.1965V683.711H0V626.744H10.1965V649.972H41.1014V626.744H51.298V683.711H41.1014Z" fill="black"/>
<path d="M112.583 626.744V660.798C112.583 664.477 111.952 667.84 110.691 670.783C109.43 673.726 107.643 676.354 105.435 678.351C103.228 680.453 100.705 682.03 97.7614 683.186C94.8181 684.342 91.7696 684.867 88.4058 684.867C85.042 684.867 81.9936 684.342 79.0503 683.186C76.1069 682.03 73.5841 680.453 71.3766 678.351C69.1691 676.249 67.4872 673.726 66.1207 670.783C64.8592 667.84 64.2285 664.477 64.2285 660.798V626.744H74.425V660.798C74.425 663.005 74.8455 665.003 75.5813 666.684C76.3172 668.366 77.3684 669.837 78.6298 671.099C79.8912 672.36 81.3629 673.201 83.0448 673.831C84.7267 674.462 86.5137 674.777 88.3007 674.777C90.0877 674.777 91.8747 674.462 93.5566 673.831C95.2385 673.201 96.7102 672.255 97.9716 671.099C99.2331 669.942 100.284 668.471 101.02 666.684C101.756 665.003 102.176 663.005 102.176 660.798V626.744H112.373H112.583Z" fill="black"/>
<path d="M135.814 636.939V673.516H148.638C154.104 673.516 158.519 671.834 161.778 668.576C165.037 665.318 166.719 660.798 166.719 655.228C166.719 649.657 165.037 645.243 161.778 641.879C158.519 638.621 154.104 636.939 148.638 636.939H135.814ZM148.638 626.744C152.633 626.744 156.417 627.48 159.781 628.846C163.25 630.213 166.193 632.21 168.716 634.732C171.239 637.255 173.236 640.198 174.603 643.666C176.074 647.135 176.81 651.023 176.81 655.228C176.81 659.432 176.074 663.216 174.603 666.789C173.131 670.363 171.239 673.306 168.716 675.828C166.193 678.351 163.25 680.243 159.781 681.714C156.312 683.081 152.633 683.816 148.638 683.816H125.617V626.849H148.638V626.744Z" fill="black"/>
<path d="M234.205 636.939H197.939V650.078H233.364V660.168H197.939V673.516H234.625V683.711H187.848V626.744H234.205V636.939Z" fill="black"/>
<path d="M279.616 650.078C281.508 650.078 282.979 649.447 284.346 648.081C285.607 646.819 286.238 645.243 286.238 643.456C286.238 641.669 285.607 640.093 284.346 638.831C283.084 637.57 281.508 636.834 279.616 636.834H257.751V649.972H279.616V650.078ZM247.554 683.711V626.744H279.826C282.138 626.744 284.241 627.165 286.238 628.005C288.235 628.846 290.022 630.002 291.494 631.579C292.966 633.05 294.122 634.837 295.068 636.834C296.014 638.831 296.329 640.933 296.329 643.246C296.329 645.558 295.909 647.66 295.068 649.762C294.227 651.864 292.861 653.546 290.968 655.123C292.861 656.594 294.122 658.381 294.963 660.483C295.804 662.585 296.224 664.792 296.224 667.105C296.224 669.417 295.804 671.519 294.963 673.516C294.122 675.513 292.861 677.3 291.389 678.771C289.917 680.243 288.13 681.504 286.133 682.345C284.136 683.186 281.928 683.606 279.721 683.606H247.449L247.554 683.711ZM279.51 673.516C281.403 673.516 282.874 672.885 284.241 671.519C285.502 670.153 286.238 668.681 286.238 666.789C286.238 664.897 285.607 663.426 284.241 662.165C282.979 660.798 281.403 660.168 279.51 660.168H257.751V673.516H279.51Z" fill="black"/>
<path d="M344.474 683.711L318.825 635.678V683.711H308.629V626.744H325.343L351.097 674.777V626.744H361.293V683.711H344.474Z" fill="black"/>
<path d="M375.063 683.71V626.743H385.26V683.71H375.063ZM389.254 610.031L391.357 619.175L370.648 623.169L368.861 615.707L389.149 610.136L389.254 610.031Z" fill="black"/>
<path d="M465.361 636.939H432.038V650.078H464.52V660.168H432.038V683.711H421.842V626.744H465.361V636.939Z" fill="black"/>
<path d="M510.878 610.031L512.98 619.175L492.272 623.169L490.485 615.707L510.773 610.136L510.878 610.031ZM473.561 655.227C473.561 650.917 474.296 647.028 475.768 643.35C477.24 639.671 479.132 636.623 481.655 633.995C484.178 631.368 487.121 629.266 490.59 627.794C494.059 626.323 497.738 625.587 501.732 625.587C505.727 625.587 509.511 626.323 512.875 627.794C516.239 629.266 519.287 631.368 521.81 633.995C524.333 636.623 526.33 639.776 527.697 643.35C529.168 647.028 529.799 650.917 529.799 655.227C529.799 659.536 529.063 663.425 527.697 667.104C526.225 670.782 524.333 673.83 521.81 676.458C519.287 679.086 516.344 681.188 512.875 682.659C509.406 684.131 505.727 684.866 501.732 684.866C497.738 684.866 493.954 684.131 490.59 682.659C487.121 681.188 484.178 679.086 481.655 676.458C479.132 673.83 477.135 670.677 475.768 667.104C474.296 663.425 473.561 659.536 473.561 655.227ZM519.813 655.227C519.813 649.446 518.131 644.716 514.872 641.142C511.614 637.569 507.199 635.782 501.732 635.782C496.266 635.782 491.851 637.569 488.593 641.142C485.334 644.716 483.652 649.446 483.652 655.227C483.652 661.007 485.334 665.737 488.593 669.311C491.851 672.884 496.266 674.671 501.732 674.671C507.199 674.671 511.614 672.884 514.872 669.311C518.131 665.737 519.813 661.007 519.813 655.227Z" fill="black"/>
<path d="M570.48 636.939H551.138V652.705H570.48C573.528 652.705 575.841 651.969 577.312 650.393C578.784 648.816 579.625 647.029 579.625 644.822C579.625 642.615 578.889 640.828 577.312 639.252C575.841 637.675 573.528 636.939 570.48 636.939ZM579.31 683.711L568.693 662.795H551.138V683.711H540.941V626.744H570.69C573.423 626.744 575.946 627.165 578.259 628.11C580.571 629.056 582.568 630.318 584.25 631.894C585.932 633.471 587.299 635.363 588.245 637.57C589.191 639.777 589.717 642.09 589.717 644.612C589.717 648.186 588.77 651.444 586.878 654.387C584.986 657.33 582.358 659.537 579.205 661.008L591.504 683.816H579.415L579.31 683.711Z" fill="black"/>
<path d="M649.95 626.744V660.798C649.95 664.477 649.32 667.84 648.058 670.783C646.797 673.726 645.01 676.354 642.802 678.351C640.595 680.453 638.072 682.03 635.129 683.186C632.185 684.342 629.137 684.867 625.773 684.867C622.409 684.867 619.361 684.342 616.417 683.186C613.474 682.03 610.951 680.453 608.744 678.351C606.536 676.249 604.854 673.726 603.488 670.783C602.226 667.84 601.596 664.477 601.596 660.798V626.744H611.792V660.798C611.792 663.005 612.213 665.003 612.949 666.684C613.684 668.366 614.736 669.837 615.997 671.099C617.258 672.36 618.73 673.201 620.412 673.831C622.094 674.462 623.881 674.777 625.668 674.777C627.455 674.777 629.242 674.462 630.924 673.831C632.606 673.201 634.077 672.255 635.339 671.099C636.6 669.942 637.651 668.471 638.387 666.684C639.123 665.003 639.544 663.005 639.544 660.798V626.744H649.74H649.95Z" fill="black"/>
<path d="M720.064 683.711V636.204L704.401 683.711H688.738L673.181 636.204V683.711H662.984V626.744H680.749L696.517 674.988L712.39 626.744H730.26V683.711H720.064Z" fill="black"/>
<path d="M41.1014 785.346V761.803H10.1965V785.346H0V728.484H10.1965V751.608H41.1014V728.484H51.298V785.346H41.1014Z" fill="black"/>
<path d="M112.583 728.484V762.539C112.583 766.217 111.952 769.581 110.691 772.524C109.43 775.467 107.643 778.094 105.435 780.091C103.228 782.193 100.705 783.77 97.7614 784.926C94.8181 786.082 91.7696 786.608 88.4058 786.608C85.042 786.608 81.9936 786.082 79.0503 784.926C76.1069 783.77 73.5841 782.193 71.3766 780.091C69.1691 777.989 67.4872 775.467 66.1207 772.524C64.8592 769.581 64.2285 766.217 64.2285 762.539V728.484H74.425V762.539C74.425 764.746 74.8455 766.743 75.5813 768.424C76.3172 770.106 77.3684 771.578 78.6298 772.839C79.8912 774.1 81.3629 774.941 83.0448 775.572C84.7267 776.202 86.5137 776.518 88.3007 776.518C90.0877 776.518 91.8747 776.202 93.5566 775.572C95.2385 774.941 96.7102 773.995 97.9716 772.839C99.2331 771.683 100.284 770.211 101.02 768.424C101.756 766.743 102.176 764.746 102.176 762.539V728.484H112.373H112.583Z" fill="black"/>
<path d="M135.814 738.576V775.153H148.638C154.104 775.153 158.519 773.471 161.778 770.213C165.037 766.955 166.719 762.435 166.719 756.864C166.719 751.294 165.037 746.879 161.778 743.516C158.519 740.258 154.104 738.576 148.638 738.576H135.814ZM148.638 728.381C152.633 728.381 156.417 729.117 159.781 730.483C163.25 731.849 166.193 733.846 168.716 736.369C171.239 738.891 173.236 741.834 174.603 745.303C176.074 748.771 176.81 752.66 176.81 756.864C176.81 761.069 176.074 764.852 174.603 768.426C173.131 772 171.239 774.943 168.716 777.465C166.193 779.988 163.25 781.879 159.781 783.351C156.312 784.717 152.633 785.453 148.638 785.453H125.617V728.486H148.638V728.381Z" fill="black"/>
<path d="M234.205 738.574H197.939V751.818H233.364V761.908H197.939V775.256H234.625V785.346H187.848V728.484H234.205V738.574Z" fill="black"/>
<path d="M279.616 751.818C281.508 751.818 282.979 751.187 284.346 749.821C285.607 748.559 286.238 746.983 286.238 745.196C286.238 743.409 285.607 741.833 284.346 740.572C283.084 739.31 281.508 738.574 279.616 738.574H257.751V751.713H279.616V751.818ZM247.554 785.452V728.484H279.826C282.138 728.484 284.241 728.905 286.238 729.746C288.235 730.587 290.022 731.743 291.494 733.319C292.966 734.791 294.122 736.577 295.068 738.574C296.014 740.571 296.329 742.674 296.329 744.986C296.329 747.298 295.909 749.4 295.068 751.502C294.227 753.605 292.861 755.286 290.968 756.863C292.861 758.334 294.122 760.121 294.963 762.223C295.804 764.325 296.224 766.533 296.224 768.845C296.224 771.157 295.804 773.259 294.963 775.256C294.122 777.253 292.861 779.04 291.389 780.512C289.917 781.983 288.13 783.244 286.133 784.085C284.136 784.926 281.928 785.346 279.721 785.346H247.449L247.554 785.452ZM279.51 775.256C281.403 775.256 282.874 774.626 284.241 773.259C285.502 771.893 286.238 770.421 286.238 768.53C286.238 766.638 285.607 765.166 284.241 763.905C282.979 762.539 281.403 761.908 279.51 761.908H257.751V775.256H279.51Z" fill="black"/>
<path d="M344.474 785.346L318.825 737.418V785.346H308.629V728.484H325.343L351.097 776.413V728.484H361.293V785.346H344.474Z" fill="black"/>
<path d="M375.063 785.347V728.38H385.26V785.347H375.063ZM389.254 711.668L391.357 720.812L370.648 724.806L368.861 717.344L389.149 711.773L389.254 711.668Z" fill="black"/>
<path d="M465.361 738.574H432.038V751.818H464.52V761.908H432.038V785.346H421.842V728.484H465.361V738.574Z" fill="black"/>
<path d="M510.878 711.668L512.98 720.812L492.272 724.806L490.485 717.344L510.773 711.773L510.878 711.668ZM473.561 756.863C473.561 752.554 474.296 748.665 475.768 744.986C477.24 741.308 479.132 738.26 481.655 735.632C484.178 733.004 487.121 730.902 490.59 729.431C494.059 727.959 497.738 727.224 501.732 727.224C505.727 727.224 509.511 727.959 512.875 729.431C516.239 730.902 519.287 733.004 521.81 735.632C524.333 738.26 526.33 741.413 527.697 744.986C529.168 748.665 529.799 752.554 529.799 756.863C529.799 761.173 529.063 765.062 527.697 768.74C526.225 772.419 524.333 775.467 521.81 778.095C519.287 780.722 516.344 782.824 512.875 784.296C509.406 785.767 505.727 786.503 501.732 786.503C497.738 786.503 493.954 785.767 490.59 784.296C487.121 782.824 484.178 780.722 481.655 778.095C479.132 775.467 477.135 772.314 475.768 768.74C474.296 765.062 473.561 761.173 473.561 756.863ZM519.813 756.863C519.813 751.083 518.131 746.353 514.872 742.779C511.614 739.206 507.199 737.419 501.732 737.419C496.266 737.419 491.851 739.206 488.593 742.779C485.334 746.353 483.652 751.083 483.652 756.863C483.652 762.644 485.334 767.374 488.593 770.947C491.851 774.521 496.266 776.308 501.732 776.308C507.199 776.308 511.614 774.521 514.872 770.947C518.131 767.374 519.813 762.644 519.813 756.863Z" fill="black"/>
<path d="M570.48 738.576H551.138V754.342H570.48C573.528 754.342 575.841 753.606 577.312 752.03C578.784 750.453 579.625 748.666 579.625 746.459C579.625 744.252 578.889 742.465 577.312 740.888C575.841 739.312 573.528 738.576 570.48 738.576ZM579.31 785.348L568.693 764.432H551.138V785.348H540.941V728.381H570.69C573.423 728.381 575.946 728.801 578.259 729.747C580.571 730.693 582.568 731.954 584.25 733.531C585.932 735.108 587.299 736.999 588.245 739.207C589.191 741.414 589.717 743.726 589.717 746.249C589.717 749.822 588.77 753.081 586.878 756.024C584.986 758.967 582.358 761.174 579.205 762.645L591.504 785.453H579.415L579.31 785.348Z" fill="black"/>
<path d="M649.95 728.484V762.539C649.95 766.217 649.32 769.581 648.058 772.524C646.797 775.467 645.01 778.094 642.802 780.091C640.595 782.193 638.072 783.77 635.129 784.926C632.185 786.082 629.137 786.608 625.773 786.608C622.409 786.608 619.361 786.082 616.417 784.926C613.474 783.77 610.951 782.193 608.744 780.091C606.536 777.989 604.854 775.467 603.488 772.524C602.226 769.581 601.596 766.217 601.596 762.539V728.484H611.792V762.539C611.792 764.746 612.213 766.743 612.949 768.424C613.684 770.106 614.736 771.578 615.997 772.839C617.258 774.1 618.73 774.941 620.412 775.572C622.094 776.202 623.881 776.518 625.668 776.518C627.455 776.518 629.242 776.202 630.924 775.572C632.606 774.941 634.077 773.995 635.339 772.839C636.6 771.683 637.651 770.211 638.387 768.424C639.123 766.743 639.544 764.746 639.544 762.539V728.484H649.74H649.95Z" fill="black"/>
<path d="M720.064 785.346V737.839L704.401 785.346H688.738L673.181 737.839V785.346H662.984V728.484H680.749L696.517 776.728L712.39 728.484H730.26V785.346H720.064Z" fill="black"/>
<path d="M41.1014 887.09V863.441H10.1965V887.09H0V830.123H10.1965V853.246H41.1014V830.123H51.298V887.09H41.1014Z" fill="black"/>
<path d="M112.583 830.123V864.177C112.583 867.856 111.952 871.219 110.691 874.162C109.43 877.105 107.643 879.733 105.435 881.73C103.228 883.832 100.705 885.408 97.7614 886.565C94.8181 887.721 91.7696 888.246 88.4058 888.246C85.042 888.246 81.9936 887.721 79.0503 886.565C76.1069 885.408 73.5841 883.832 71.3766 881.73C69.1691 879.628 67.4872 877.105 66.1207 874.162C64.8592 871.219 64.2285 867.856 64.2285 864.177V830.123H74.425V864.177C74.425 866.384 74.8455 868.381 75.5813 870.063C76.3172 871.745 77.3684 873.216 78.6298 874.477C79.8912 875.739 81.3629 876.58 83.0448 877.21C84.7267 877.841 86.5137 878.156 88.3007 878.156C90.0877 878.156 91.8747 877.841 93.5566 877.21C95.2385 876.58 96.7102 875.634 97.9716 874.477C99.2331 873.321 100.284 871.85 101.02 870.063C101.756 868.381 102.176 866.384 102.176 864.177V830.123H112.373H112.583Z" fill="black"/>
<path d="M135.814 840.318V876.895H148.638C154.104 876.895 158.519 875.213 161.778 871.955C165.037 868.697 166.719 864.177 166.719 858.607C166.719 853.036 165.037 848.622 161.778 845.258C158.519 842 154.104 840.318 148.638 840.318H135.814ZM148.638 830.123C152.633 830.123 156.417 830.859 159.781 832.225C163.25 833.591 166.193 835.588 168.716 838.111C171.239 840.634 173.236 843.576 174.603 847.045C176.074 850.513 176.81 854.402 176.81 858.607C176.81 862.811 176.074 866.595 174.603 870.168C173.131 873.742 171.239 876.685 168.716 879.207C166.193 881.73 163.25 883.622 159.781 885.093C156.312 886.46 152.633 887.195 148.638 887.195H125.617V830.228H148.638V830.123Z" fill="black"/>
<path d="M234.205 840.318H197.939V853.456H233.364V863.547H197.939V876.895H234.625V887.09H187.848V830.123H234.205V840.318Z" fill="black"/>
<path d="M279.616 853.456C281.508 853.456 282.979 852.826 284.346 851.459C285.607 850.198 286.238 848.622 286.238 846.835C286.238 845.048 285.607 843.471 284.346 842.21C283.084 840.949 281.508 840.213 279.616 840.213H257.751V853.351H279.616V853.456ZM247.554 887.09V830.123H279.826C282.138 830.123 284.241 830.543 286.238 831.384C288.235 832.225 290.022 833.381 291.494 834.958C292.966 836.429 294.122 838.216 295.068 840.213C296.014 842.21 296.329 844.312 296.329 846.625C296.329 848.937 295.909 851.039 295.068 853.141C294.227 855.243 292.861 856.925 290.968 858.501C292.861 859.973 294.122 861.76 294.963 863.862C295.804 865.964 296.224 868.171 296.224 870.483C296.224 872.796 295.804 874.898 294.963 876.895C294.122 878.892 292.861 880.679 291.389 882.15C289.917 883.622 288.13 884.883 286.133 885.724C284.136 886.565 281.928 886.985 279.721 886.985H247.449L247.554 887.09ZM279.51 876.895C281.403 876.895 282.874 876.264 284.241 874.898C285.502 873.532 286.238 872.06 286.238 870.168C286.238 868.276 285.607 866.805 284.241 865.544C282.979 864.177 281.403 863.547 279.51 863.547H257.751V876.895H279.51Z" fill="black"/>
<path d="M344.474 887.09L318.825 839.057V887.09H308.629V830.123H325.343L351.097 878.156V830.123H361.293V887.09H344.474Z" fill="black"/>
<path d="M375.063 887.089V830.122H385.26V887.089H375.063ZM389.254 813.41L391.357 822.554L370.648 826.548L368.861 819.086L389.149 813.515L389.254 813.41Z" fill="black"/>
<path d="M465.361 840.318H432.038V853.456H464.52V863.547H432.038V887.09H421.842V830.123H465.361V840.318Z" fill="black"/>
<path d="M510.878 813.41L512.98 822.554L492.272 826.548L490.485 819.086L510.773 813.515L510.878 813.41ZM473.561 858.606C473.561 854.296 474.296 850.407 475.768 846.729C477.24 843.05 479.132 840.002 481.655 837.374C484.178 834.747 487.121 832.644 490.59 831.173C494.059 829.702 497.738 828.966 501.732 828.966C505.727 828.966 509.511 829.702 512.875 831.173C516.239 832.644 519.287 834.747 521.81 837.374C524.333 840.002 526.33 843.155 527.697 846.729C529.168 850.407 529.799 854.296 529.799 858.606C529.799 862.915 529.063 866.804 527.697 870.482C526.225 874.161 524.333 877.209 521.81 879.837C519.287 882.464 516.344 884.567 512.875 886.038C509.406 887.51 505.727 888.245 501.732 888.245C497.738 888.245 493.954 887.51 490.59 886.038C487.121 884.567 484.178 882.464 481.655 879.837C479.132 877.209 477.135 874.056 475.768 870.482C474.296 866.804 473.561 862.915 473.561 858.606ZM519.813 858.606C519.813 852.825 518.131 848.095 514.872 844.521C511.614 840.948 507.199 839.161 501.732 839.161C496.266 839.161 491.851 840.948 488.593 844.521C485.334 848.095 483.652 852.825 483.652 858.606C483.652 864.386 485.334 869.116 488.593 872.69C491.851 876.263 496.266 878.05 501.732 878.05C507.199 878.05 511.614 876.263 514.872 872.69C518.131 869.116 519.813 864.386 519.813 858.606Z" fill="black"/>
<path d="M570.48 840.318H551.138V856.084H570.48C573.528 856.084 575.841 855.348 577.312 853.772C578.784 852.195 579.625 850.408 579.625 848.201C579.625 845.994 578.889 844.207 577.312 842.631C575.841 841.054 573.528 840.318 570.48 840.318ZM579.31 887.09L568.693 866.174H551.138V887.09H540.941V830.123H570.69C573.423 830.123 575.946 830.543 578.259 831.489C580.571 832.435 582.568 833.697 584.25 835.273C585.932 836.85 587.299 838.742 588.245 840.949C589.191 843.156 589.717 845.468 589.717 847.991C589.717 851.565 588.77 854.823 586.878 857.766C584.986 860.709 582.358 862.916 579.205 864.387L591.504 887.195H579.415L579.31 887.09Z" fill="black"/>
<path d="M649.95 830.123V864.177C649.95 867.856 649.32 871.219 648.058 874.162C646.797 877.105 645.01 879.733 642.802 881.73C640.595 883.832 638.072 885.408 635.129 886.565C632.185 887.721 629.137 888.246 625.773 888.246C622.409 888.246 619.361 887.721 616.417 886.565C613.474 885.408 610.951 883.832 608.744 881.73C606.536 879.628 604.854 877.105 603.488 874.162C602.226 871.219 601.596 867.856 601.596 864.177V830.123H611.792V864.177C611.792 866.384 612.213 868.381 612.949 870.063C613.684 871.745 614.736 873.216 615.997 874.477C617.258 875.739 618.73 876.58 620.412 877.21C622.094 877.841 623.881 878.156 625.668 878.156C627.455 878.156 629.242 877.841 630.924 877.21C632.606 876.58 634.077 875.634 635.339 874.477C636.6 873.321 637.651 871.85 638.387 870.063C639.123 868.381 639.544 866.384 639.544 864.177V830.123H649.74H649.95Z" fill="black"/>
<path d="M720.064 887.09V839.582L704.401 887.09H688.738L673.181 839.582V887.09H662.984V830.123H680.749L696.517 878.366L712.39 830.123H730.26V887.09H720.064Z" fill="black"/>
<path d="M41.1014 988.727V965.183H10.1965V988.727H0V931.76H10.1965V954.988H41.1014V931.76H51.298V988.727H41.1014Z" fill="black"/>
<path d="M112.583 931.76V965.814C112.583 969.493 111.952 972.856 110.691 975.799C109.43 978.742 107.643 981.369 105.435 983.366C103.228 985.469 100.705 987.045 97.7614 988.201C94.8181 989.357 91.7696 989.883 88.4058 989.883C85.042 989.883 81.9936 989.357 79.0503 988.201C76.1069 987.045 73.5841 985.469 71.3766 983.366C69.1691 981.264 67.4872 978.742 66.1207 975.799C64.8592 972.856 64.2285 969.493 64.2285 965.814V931.76H74.425V965.814C74.425 968.021 74.8455 970.018 75.5813 971.7C76.3172 973.381 77.3684 974.853 78.6298 976.114C79.8912 977.376 81.3629 978.216 83.0448 978.847C84.7267 979.478 86.5137 979.793 88.3007 979.793C90.0877 979.793 91.8747 979.478 93.5566 978.847C95.2385 978.216 96.7102 977.27 97.9716 976.114C99.2331 974.958 100.284 973.487 101.02 971.7C101.756 970.018 102.176 968.021 102.176 965.814V931.76H112.373H112.583Z" fill="black"/>
<path d="M135.814 941.955V978.532H148.638C154.104 978.532 158.519 976.85 161.778 973.592C165.037 970.333 166.719 965.814 166.719 960.243C166.719 954.673 165.037 950.258 161.778 946.895C158.519 943.637 154.104 941.955 148.638 941.955H135.814ZM148.638 931.76C152.633 931.76 156.417 932.495 159.781 933.862C163.25 935.228 166.193 937.225 168.716 939.748C171.239 942.27 173.236 945.213 174.603 948.682C176.074 952.15 176.81 956.039 176.81 960.243C176.81 964.448 176.074 968.231 174.603 971.805C173.131 975.378 171.239 978.321 168.716 980.844C166.193 983.367 163.25 985.258 159.781 986.73C156.312 988.096 152.633 988.832 148.638 988.832H125.617V931.865H148.638V931.76Z" fill="black"/>
<path d="M234.205 941.955H197.939V955.093H233.364V965.183H197.939V978.532H234.625V988.727H187.848V931.76H234.205V941.955Z" fill="black"/>
<path d="M279.616 955.093C281.508 955.093 282.979 954.463 284.346 953.096C285.607 951.835 286.238 950.258 286.238 948.471C286.238 946.685 285.607 945.108 284.346 943.847C283.084 942.586 281.508 941.85 279.616 941.85H257.751V954.988H279.616V955.093ZM247.554 988.727V931.76H279.826C282.138 931.76 284.241 932.18 286.238 933.021C288.235 933.862 290.022 935.018 291.494 936.595C292.966 938.066 294.122 939.853 295.068 941.85C296.014 943.847 296.329 945.949 296.329 948.261C296.329 950.574 295.909 952.676 295.068 954.778C294.227 956.88 292.861 958.562 290.968 960.138C292.861 961.61 294.122 963.396 294.963 965.499C295.804 967.601 296.224 969.808 296.224 972.12C296.224 974.433 295.804 976.535 294.963 978.532C294.122 980.529 292.861 982.315 291.389 983.787C289.917 985.258 288.13 986.52 286.133 987.361C284.136 988.201 281.928 988.622 279.721 988.622H247.449L247.554 988.727ZM279.51 978.532C281.403 978.532 282.874 977.901 284.241 976.535C285.502 975.168 286.238 973.697 286.238 971.805C286.238 969.913 285.607 968.442 284.241 967.18C282.979 965.814 281.403 965.183 279.51 965.183H257.751V978.532H279.51Z" fill="black"/>
<path d="M344.474 988.727L318.825 940.694V988.727H308.629V931.76H325.343L351.097 979.793V931.76H361.293V988.727H344.474Z" fill="black"/>
<path d="M375.063 988.726V931.759H385.26V988.726H375.063ZM389.254 915.047L391.357 924.191L370.648 928.185L368.861 920.723L389.149 915.152L389.254 915.047Z" fill="black"/>
<path d="M465.361 941.955H432.038V955.093H464.52V965.183H432.038V988.727H421.842V931.76H465.361V941.955Z" fill="black"/>
<path d="M510.878 915.047L512.98 924.191L492.272 928.185L490.485 920.723L510.773 915.152L510.878 915.047ZM473.561 960.242C473.561 955.933 474.296 952.044 475.768 948.365C477.24 944.687 479.132 941.639 481.655 939.011C484.178 936.383 487.121 934.281 490.59 932.81C494.059 931.338 497.738 930.603 501.732 930.603C505.727 930.603 509.511 931.338 512.875 932.81C516.239 934.281 519.287 936.383 521.81 939.011C524.333 941.639 526.33 944.792 527.697 948.365C529.168 952.044 529.799 955.933 529.799 960.242C529.799 964.552 529.063 968.44 527.697 972.119C526.225 975.798 524.333 978.846 521.81 981.474C519.287 984.101 516.344 986.203 512.875 987.675C509.406 989.146 505.727 989.882 501.732 989.882C497.738 989.882 493.954 989.146 490.59 987.675C487.121 986.203 484.178 984.101 481.655 981.474C479.132 978.846 477.135 975.693 475.768 972.119C474.296 968.44 473.561 964.552 473.561 960.242ZM519.813 960.242C519.813 954.461 518.131 949.732 514.872 946.158C511.614 942.584 507.199 940.798 501.732 940.798C496.266 940.798 491.851 942.584 488.593 946.158C485.334 949.732 483.652 954.461 483.652 960.242C483.652 966.023 485.334 970.753 488.593 974.326C491.851 977.9 496.266 979.687 501.732 979.687C507.199 979.687 511.614 977.9 514.872 974.326C518.131 970.753 519.813 966.023 519.813 960.242Z" fill="black"/>
<path d="M570.48 941.955H551.138V957.721H570.48C573.528 957.721 575.841 956.985 577.312 955.408C578.784 953.832 579.625 952.045 579.625 949.838C579.625 947.631 578.889 945.844 577.312 944.267C575.841 942.691 573.528 941.955 570.48 941.955ZM579.31 988.727L568.693 967.811H551.138V988.727H540.941V931.76H570.69C573.423 931.76 575.946 932.18 578.259 933.126C580.571 934.072 582.568 935.333 584.25 936.91C585.932 938.486 587.299 940.378 588.245 942.586C589.191 944.793 589.717 947.105 589.717 949.628C589.717 953.201 588.77 956.46 586.878 959.402C584.986 962.345 582.358 964.553 579.205 966.024L591.504 988.832H579.415L579.31 988.727Z" fill="black"/>
<path d="M649.95 931.76V965.814C649.95 969.493 649.32 972.856 648.058 975.799C646.797 978.742 645.01 981.369 642.802 983.366C640.595 985.469 638.072 987.045 635.129 988.201C632.185 989.357 629.137 989.883 625.773 989.883C622.409 989.883 619.361 989.357 616.417 988.201C613.474 987.045 610.951 985.469 608.744 983.366C606.536 981.264 604.854 978.742 603.488 975.799C602.226 972.856 601.596 969.493 601.596 965.814V931.76H611.792V965.814C611.792 968.021 612.213 970.018 612.949 971.7C613.684 973.381 614.736 974.853 615.997 976.114C617.258 977.376 618.73 978.216 620.412 978.847C622.094 979.478 623.881 979.793 625.668 979.793C627.455 979.793 629.242 979.478 630.924 978.847C632.606 978.216 634.077 977.27 635.339 976.114C636.6 974.958 637.651 973.487 638.387 971.7C639.123 970.018 639.544 968.021 639.544 965.814V931.76H649.74H649.95Z" fill="black"/>
<path d="M720.064 988.727V941.219L704.401 988.727H688.738L673.181 941.219V988.727H662.984V931.76H680.749L696.517 980.003L712.39 931.76H730.26V988.727H720.064Z" fill="black"/>
<path d="M41.1014 1090.36V1066.82H10.1965V1090.36H0V1033.5H10.1965V1056.63H41.1014V1033.5H51.298V1090.36H41.1014Z" fill="black"/>
<path d="M112.583 1033.5V1067.56C112.583 1071.23 111.952 1074.6 110.691 1077.54C109.43 1080.48 107.643 1083.11 105.435 1085.11C103.228 1087.21 100.705 1088.79 97.7614 1089.94C94.8181 1091.1 91.7696 1091.63 88.4058 1091.63C85.042 1091.63 81.9936 1091.1 79.0503 1089.94C76.1069 1088.79 73.5841 1087.21 71.3766 1085.11C69.1691 1083.01 67.4872 1080.48 66.1207 1077.54C64.8592 1074.6 64.2285 1071.23 64.2285 1067.56V1033.5H74.425V1067.56C74.425 1069.76 74.8455 1071.76 75.5813 1073.44C76.3172 1075.12 77.3684 1076.6 78.6298 1077.86C79.8912 1079.12 81.3629 1079.96 83.0448 1080.59C84.7267 1081.22 86.5137 1081.54 88.3007 1081.54C90.0877 1081.54 91.8747 1081.22 93.5566 1080.59C95.2385 1079.96 96.7102 1079.01 97.9716 1077.86C99.2331 1076.7 100.284 1075.23 101.02 1073.44C101.756 1071.76 102.176 1069.76 102.176 1067.56V1033.5H112.373H112.583Z" fill="black"/>
<path d="M135.814 1043.59V1080.17H148.638C154.104 1080.17 158.519 1078.49 161.778 1075.23C165.037 1071.97 166.719 1067.45 166.719 1061.88C166.719 1056.31 165.037 1051.9 161.778 1048.53C158.519 1045.27 154.104 1043.59 148.638 1043.59H135.814ZM148.638 1033.4C152.633 1033.4 156.417 1034.13 159.781 1035.5C163.25 1036.86 166.193 1038.86 168.716 1041.38C171.239 1043.91 173.236 1046.85 174.603 1050.32C176.074 1053.79 176.81 1057.68 176.81 1061.88C176.81 1066.08 176.074 1069.87 174.603 1073.44C173.131 1077.02 171.239 1079.96 168.716 1082.48C166.193 1085 163.25 1086.9 159.781 1088.37C156.312 1089.73 152.633 1090.47 148.638 1090.47H125.617V1033.5H148.638V1033.4Z" fill="black"/>
<path d="M234.205 1043.59H197.939V1056.84H233.364V1066.93H197.939V1080.27H234.625V1090.36H187.848V1033.5H234.205V1043.59Z" fill="black"/>
<path d="M279.616 1056.84C281.508 1056.84 282.979 1056.2 284.346 1054.84C285.607 1053.58 286.238 1052 286.238 1050.21C286.238 1048.43 285.607 1046.85 284.346 1045.59C283.084 1044.33 281.508 1043.59 279.616 1043.59H257.751V1056.73H279.616V1056.84ZM247.554 1090.47V1033.5H279.826C282.138 1033.5 284.241 1033.92 286.238 1034.76C288.235 1035.6 290.022 1036.76 291.494 1038.34C292.966 1039.81 294.122 1041.6 295.068 1043.59C296.014 1045.59 296.329 1047.69 296.329 1050C296.329 1052.32 295.909 1054.42 295.068 1056.52C294.227 1058.62 292.861 1060.3 290.968 1061.88C292.861 1063.35 294.122 1065.14 294.963 1067.24C295.804 1069.34 296.224 1071.55 296.224 1073.86C296.224 1076.17 295.804 1078.28 294.963 1080.27C294.122 1082.27 292.861 1084.06 291.389 1085.53C289.917 1087 288.13 1088.26 286.133 1089.1C284.136 1089.94 281.928 1090.36 279.721 1090.36H247.449L247.554 1090.47ZM279.51 1080.27C281.403 1080.27 282.874 1079.64 284.241 1078.28C285.502 1076.91 286.238 1075.44 286.238 1073.55C286.238 1071.66 285.607 1070.18 284.241 1068.92C282.979 1067.56 281.403 1066.93 279.51 1066.93H257.751V1080.27H279.51Z" fill="black"/>
<path d="M344.474 1090.36L318.825 1042.44V1090.36H308.629V1033.5H325.343L351.097 1081.43V1033.5H361.293V1090.36H344.474Z" fill="black"/>
<path d="M375.063 1090.36V1033.4H385.26V1090.36H375.063ZM389.254 1016.68L391.357 1025.83L370.648 1029.82L368.861 1022.36L389.149 1016.79L389.254 1016.68Z" fill="black"/>
<path d="M465.361 1043.59H432.038V1056.84H464.52V1066.93H432.038V1090.36H421.842V1033.5H465.361V1043.59Z" fill="black"/>
<path d="M510.878 1016.68L512.98 1025.83L492.272 1029.82L490.485 1022.36L510.773 1016.79L510.878 1016.68ZM473.561 1061.88C473.561 1057.57 474.296 1053.68 475.768 1050C477.24 1046.32 479.132 1043.28 481.655 1040.65C484.178 1038.02 487.121 1035.92 490.59 1034.45C494.059 1032.97 497.738 1032.24 501.732 1032.24C505.727 1032.24 509.511 1032.97 512.875 1034.45C516.239 1035.92 519.287 1038.02 521.81 1040.65C524.333 1043.28 526.33 1046.43 527.697 1050C529.168 1053.68 529.799 1057.57 529.799 1061.88C529.799 1066.19 529.063 1070.08 527.697 1073.76C526.225 1077.43 524.333 1080.48 521.81 1083.11C519.287 1085.74 516.344 1087.84 512.875 1089.31C509.406 1090.78 505.727 1091.52 501.732 1091.52C497.738 1091.52 493.954 1090.78 490.59 1089.31C487.121 1087.84 484.178 1085.74 481.655 1083.11C479.132 1080.48 477.135 1077.33 475.768 1073.76C474.296 1070.08 473.561 1066.19 473.561 1061.88ZM519.813 1061.88C519.813 1056.1 518.131 1051.37 514.872 1047.79C511.614 1044.22 507.199 1042.43 501.732 1042.43C496.266 1042.43 491.851 1044.22 488.593 1047.79C485.334 1051.37 483.652 1056.1 483.652 1061.88C483.652 1067.66 485.334 1072.39 488.593 1075.96C491.851 1079.54 496.266 1081.32 501.732 1081.32C507.199 1081.32 511.614 1079.54 514.872 1075.96C518.131 1072.39 519.813 1067.66 519.813 1061.88Z" fill="black"/>
<path d="M570.48 1043.59H551.138V1059.36H570.48C573.528 1059.36 575.841 1058.62 577.312 1057.05C578.784 1055.47 579.625 1053.68 579.625 1051.47C579.625 1049.27 578.889 1047.48 577.312 1045.9C575.841 1044.33 573.528 1043.59 570.48 1043.59ZM579.31 1090.36L568.693 1069.45H551.138V1090.36H540.941V1033.4H570.69C573.423 1033.4 575.946 1033.82 578.259 1034.76C580.571 1035.71 582.568 1036.97 584.25 1038.55C585.932 1040.12 587.299 1042.02 588.245 1044.22C589.191 1046.43 589.717 1048.74 589.717 1051.26C589.717 1054.84 588.77 1058.1 586.878 1061.04C584.986 1063.98 582.358 1066.19 579.205 1067.66L591.504 1090.47H579.415L579.31 1090.36Z" fill="black"/>
<path d="M649.95 1033.5V1067.56C649.95 1071.23 649.32 1074.6 648.058 1077.54C646.797 1080.48 645.01 1083.11 642.802 1085.11C640.595 1087.21 638.072 1088.79 635.129 1089.94C632.185 1091.1 629.137 1091.63 625.773 1091.63C622.409 1091.63 619.361 1091.1 616.417 1089.94C613.474 1088.79 610.951 1087.21 608.744 1085.11C606.536 1083.01 604.854 1080.48 603.488 1077.54C602.226 1074.6 601.596 1071.23 601.596 1067.56V1033.5H611.792V1067.56C611.792 1069.76 612.213 1071.76 612.949 1073.44C613.684 1075.12 614.736 1076.6 615.997 1077.86C617.258 1079.12 618.73 1079.96 620.412 1080.59C622.094 1081.22 623.881 1081.54 625.668 1081.54C627.455 1081.54 629.242 1081.22 630.924 1080.59C632.606 1079.96 634.077 1079.01 635.339 1077.86C636.6 1076.7 637.651 1075.23 638.387 1073.44C639.123 1071.76 639.544 1069.76 639.544 1067.56V1033.5H649.74H649.95Z" fill="black"/>
<path d="M720.064 1090.36V1042.86L704.401 1090.36H688.738L673.181 1042.86V1090.36H662.984V1033.5H680.749L696.517 1081.64L712.39 1033.5H730.26V1090.36H720.064Z" fill="black"/>
<path d="M41.1014 1192.11V1168.46H10.1965V1192.11H0V1135.14H10.1965V1158.26H41.1014V1135.14H51.298V1192.11H41.1014Z" fill="black"/>
<path d="M112.583 1135.14V1169.19C112.583 1172.87 111.952 1176.23 110.691 1179.18C109.43 1182.12 107.643 1184.75 105.435 1186.75C103.228 1188.85 100.705 1190.42 97.7614 1191.58C94.8181 1192.74 91.7696 1193.26 88.4058 1193.26C85.042 1193.26 81.9936 1192.74 79.0503 1191.58C76.1069 1190.42 73.5841 1188.85 71.3766 1186.75C69.1691 1184.64 67.4872 1182.12 66.1207 1179.18C64.8592 1176.23 64.2285 1172.87 64.2285 1169.19V1135.14H74.425V1169.19C74.425 1171.4 74.8455 1173.4 75.5813 1175.08C76.3172 1176.76 77.3684 1178.23 78.6298 1179.49C79.8912 1180.75 81.3629 1181.6 83.0448 1182.23C84.7267 1182.86 86.5137 1183.17 88.3007 1183.17C90.0877 1183.17 91.8747 1182.86 93.5566 1182.23C95.2385 1181.6 96.7102 1180.65 97.9716 1179.49C99.2331 1178.34 100.284 1176.87 101.02 1175.08C101.756 1173.4 102.176 1171.4 102.176 1169.19V1135.14H112.373H112.583Z" fill="black"/>
<path d="M135.814 1145.33V1181.91H148.638C154.104 1181.91 158.519 1180.23 161.778 1176.97C165.037 1173.71 166.719 1169.19 166.719 1163.62C166.719 1158.05 165.037 1153.64 161.778 1150.27C158.519 1147.02 154.104 1145.33 148.638 1145.33H135.814ZM148.638 1135.14C152.633 1135.14 156.417 1135.87 159.781 1137.24C163.25 1138.61 166.193 1140.6 168.716 1143.13C171.239 1145.65 173.236 1148.59 174.603 1152.06C176.074 1155.53 176.81 1159.42 176.81 1163.62C176.81 1167.83 176.074 1171.61 174.603 1175.18C173.131 1178.76 171.239 1181.7 168.716 1184.22C166.193 1186.75 163.25 1188.64 159.781 1190.11C156.312 1191.48 152.633 1192.21 148.638 1192.21H125.617V1135.24H148.638V1135.14Z" fill="black"/>
<path d="M234.205 1145.33H197.939V1158.47H233.364V1168.56H197.939V1181.91H234.625V1192.11H187.848V1135.14H234.205V1145.33Z" fill="black"/>
<path d="M279.616 1158.47C281.508 1158.47 282.979 1157.84 284.346 1156.48C285.607 1155.21 286.238 1153.64 286.238 1151.85C286.238 1150.06 285.607 1148.49 284.346 1147.23C283.084 1145.96 281.508 1145.23 279.616 1145.23H257.751V1158.37H279.616V1158.47ZM247.554 1192.11V1135.14H279.826C282.138 1135.14 284.241 1135.56 286.238 1136.4C288.235 1137.24 290.022 1138.4 291.494 1139.97C292.966 1141.44 294.122 1143.23 295.068 1145.23C296.014 1147.23 296.329 1149.33 296.329 1151.64C296.329 1153.95 295.909 1156.05 295.068 1158.16C294.227 1160.26 292.861 1161.94 290.968 1163.52C292.861 1164.99 294.122 1166.78 294.963 1168.88C295.804 1170.98 296.224 1173.19 296.224 1175.5C296.224 1177.81 295.804 1179.91 294.963 1181.91C294.122 1183.91 292.861 1185.69 291.389 1187.17C289.917 1188.64 288.13 1189.9 286.133 1190.74C284.136 1191.58 281.928 1192 279.721 1192H247.449L247.554 1192.11ZM279.51 1181.91C281.403 1181.91 282.874 1181.28 284.241 1179.91C285.502 1178.55 286.238 1177.08 286.238 1175.18C286.238 1173.29 285.607 1171.82 284.241 1170.56C282.979 1169.19 281.403 1168.56 279.51 1168.56H257.751V1181.91H279.51Z" fill="black"/>
<path d="M344.474 1192.11L318.825 1144.07V1192.11H308.629V1135.14H325.343L351.097 1183.07V1135.14H361.293V1192.11H344.474Z" fill="black"/>
<path d="M375.063 1192.1V1135.14H385.26V1192.1H375.063ZM389.254 1118.43L391.357 1127.57L370.648 1131.56L368.861 1124.1L389.149 1118.53L389.254 1118.43Z" fill="black"/>
<path d="M465.361 1145.33H432.038V1158.47H464.52V1168.56H432.038V1192.11H421.842V1135.14H465.361V1145.33Z" fill="black"/>
<path d="M510.878 1118.32L512.98 1127.47L492.272 1131.46L490.485 1124L510.773 1118.43L510.878 1118.32ZM473.561 1163.52C473.561 1159.21 474.296 1155.32 475.768 1151.64C477.24 1147.96 479.132 1144.91 481.655 1142.29C484.178 1139.66 487.121 1137.56 490.59 1136.09C494.059 1134.61 497.738 1133.88 501.732 1133.88C505.727 1133.88 509.511 1134.61 512.875 1136.09C516.239 1137.56 519.287 1139.66 521.81 1142.29C524.333 1144.91 526.33 1148.07 527.697 1151.64C529.168 1155.32 529.799 1159.21 529.799 1163.52C529.799 1167.83 529.063 1171.72 527.697 1175.39C526.225 1179.07 524.333 1182.12 521.81 1184.75C519.287 1187.38 516.344 1189.48 512.875 1190.95C509.406 1192.42 505.727 1193.16 501.732 1193.16C497.738 1193.16 493.954 1192.42 490.59 1190.95C487.121 1189.48 484.178 1187.38 481.655 1184.75C479.132 1182.12 477.135 1178.97 475.768 1175.39C474.296 1171.72 473.561 1167.83 473.561 1163.52ZM519.813 1163.52C519.813 1157.74 518.131 1153.01 514.872 1149.43C511.614 1145.86 507.199 1144.07 501.732 1144.07C496.266 1144.07 491.851 1145.86 488.593 1149.43C485.334 1153.01 483.652 1157.74 483.652 1163.52C483.652 1169.3 485.334 1174.03 488.593 1177.6C491.851 1181.18 496.266 1182.96 501.732 1182.96C507.199 1182.96 511.614 1181.18 514.872 1177.6C518.131 1174.03 519.813 1169.3 519.813 1163.52Z" fill="black"/>
<path d="M570.48 1145.33H551.138V1161.1H570.48C573.528 1161.1 575.841 1160.36 577.312 1158.79C578.784 1157.21 579.625 1155.42 579.625 1153.22C579.625 1151.01 578.889 1149.22 577.312 1147.65C575.841 1146.07 573.528 1145.33 570.48 1145.33ZM579.31 1192.11L568.693 1171.19H551.138V1192.11H540.941V1135.14H570.69C573.423 1135.14 575.946 1135.56 578.259 1136.51C580.571 1137.45 582.568 1138.71 584.25 1140.29C585.932 1141.87 587.299 1143.76 588.245 1145.96C589.191 1148.17 589.717 1150.48 589.717 1153.01C589.717 1156.58 588.77 1159.84 586.878 1162.78C584.986 1165.72 582.358 1167.93 579.205 1169.4L591.504 1192.21H579.415L579.31 1192.11Z" fill="black"/>
<path d="M649.95 1135.14V1169.19C649.95 1172.87 649.32 1176.23 648.058 1179.18C646.797 1182.12 645.01 1184.75 642.802 1186.75C640.595 1188.85 638.072 1190.42 635.129 1191.58C632.185 1192.74 629.137 1193.26 625.773 1193.26C622.409 1193.26 619.361 1192.74 616.417 1191.58C613.474 1190.42 610.951 1188.85 608.744 1186.75C606.536 1184.64 604.854 1182.12 603.488 1179.18C602.226 1176.23 601.596 1172.87 601.596 1169.19V1135.14H611.792V1169.19C611.792 1171.4 612.213 1173.4 612.949 1175.08C613.684 1176.76 614.736 1178.23 615.997 1179.49C617.258 1180.75 618.73 1181.6 620.412 1182.23C622.094 1182.86 623.881 1183.17 625.668 1183.17C627.455 1183.17 629.242 1182.86 630.924 1182.23C632.606 1181.6 634.077 1180.65 635.339 1179.49C636.6 1178.34 637.651 1176.87 638.387 1175.08C639.123 1173.4 639.544 1171.4 639.544 1169.19V1135.14H649.74H649.95Z" fill="black"/>
<path d="M720.064 1192.11V1144.6L704.401 1192.11H688.738L673.181 1144.6V1192.11H662.984V1135.14H680.749L696.517 1183.38L712.39 1135.14H730.26V1192.11H720.064Z" fill="black"/>
</svg>
