<svg width="1571" height="75" viewBox="0 0 1571 75" fill="none" xmlns="http://www.w3.org/2000/svg">
<path d="M41.1014 73.6781V50.1345H10.1965V73.6781H0V16.7109H10.1965V39.9392H41.1014V16.7109H51.298V73.6781H41.1014Z" fill="black"/>
<path d="M112.583 16.7109V50.7651C112.583 54.4438 111.952 57.8072 110.691 60.7501C109.43 63.6931 107.643 66.3207 105.435 68.3177C103.228 70.4198 100.705 71.9964 97.7614 73.1526C94.8181 74.3087 91.7696 74.8342 88.4058 74.8342C85.042 74.8342 81.9936 74.3087 79.0503 73.1526C76.1069 71.9964 73.5841 70.4198 71.3766 68.3177C69.1691 66.2156 67.4872 63.6931 66.1207 60.7501C64.8592 57.8072 64.2285 54.4438 64.2285 50.7651V16.7109H74.425V50.7651C74.425 52.9723 74.8455 54.9693 75.5813 56.651C76.3172 58.3327 77.3684 59.8042 78.6298 61.0654C79.8912 62.3267 81.3629 63.1675 83.0448 63.7982C84.7267 64.4288 86.5137 64.7441 88.3007 64.7441C90.0877 64.7441 91.8747 64.4288 93.5566 63.7982C95.2385 63.1675 96.7102 62.2216 97.9716 61.0654C99.2331 59.9093 100.284 58.4378 101.02 56.651C101.756 54.9693 102.176 52.9723 102.176 50.7651V16.7109H112.373H112.583Z" fill="black"/>
<path d="M135.814 26.9062V63.4829H148.638C154.104 63.4829 158.519 61.8012 161.778 58.5429C165.037 55.2846 166.719 50.7651 166.719 45.1945C166.719 39.6239 165.037 35.2095 161.778 31.8461C158.519 28.5879 154.104 26.9062 148.638 26.9062H135.814ZM148.638 16.7109C152.633 16.7109 156.417 17.4467 159.781 18.813C163.25 20.1794 166.193 22.1764 168.716 24.6989C171.239 27.2215 173.236 30.1644 174.603 33.6329C176.074 37.1014 176.81 40.9903 176.81 45.1945C176.81 49.3987 176.074 53.1825 174.603 56.7561C173.131 60.3297 171.239 63.2726 168.716 65.7952C166.193 68.3177 163.25 70.2096 159.781 71.6811C156.312 73.0475 152.633 73.7832 148.638 73.7832H125.617V16.7109H148.638Z" fill="black"/>
<path d="M234.205 26.9062H197.939V40.1495H233.364V50.1345H197.939V63.4829H234.625V73.6781H187.848V16.7109H234.205V26.9062Z" fill="black"/>
<path d="M279.616 40.1495C281.508 40.1495 282.979 39.5188 284.346 38.1524C285.607 36.8912 286.238 35.3146 286.238 33.5278C286.238 31.741 285.607 30.1644 284.346 28.9032C283.084 27.6419 281.508 26.9062 279.616 26.9062H257.751V40.0443H279.616V40.1495ZM247.554 73.7832V16.7109H279.826C282.138 16.7109 284.241 17.1314 286.238 17.9722C288.235 18.813 290.022 19.9692 291.494 21.5458C292.966 23.0173 294.122 24.8041 295.068 26.8011C296.014 28.7981 296.329 30.9002 296.329 33.2125C296.329 35.5248 295.909 37.6269 295.068 39.729C294.227 41.8311 292.861 43.5128 290.968 45.0894C292.861 46.5609 294.122 48.3477 294.963 50.4498C295.804 52.5519 296.224 54.7591 296.224 57.0714C296.224 59.3837 295.804 61.4859 294.963 63.4829C294.122 65.4799 292.861 67.2667 291.389 68.7381C289.917 70.2096 288.13 71.4709 286.133 72.3117C284.136 73.1526 281.928 73.573 279.721 73.573H247.449L247.554 73.7832ZM279.51 63.588C281.403 63.588 282.874 62.9573 284.241 61.591C285.502 60.2246 286.238 58.7531 286.238 56.8612C286.238 54.9693 285.607 53.4978 284.241 52.2366C282.979 50.8702 281.403 50.2396 279.51 50.2396H257.751V63.588H279.51Z" fill="black"/>
<path d="M344.474 73.6781L318.825 25.75V73.6781H308.629V16.7109H325.343L351.097 64.7441V16.7109H361.293V73.6781H344.474Z" fill="black"/>
<path d="M375.063 73.6789V16.7118H385.26V73.6789H375.063ZM389.254 0L391.357 9.14417L370.648 13.1382L368.861 5.67569L389.149 0.105105L389.254 0Z" fill="black"/>
<path d="M465.361 26.9062H432.038V40.1495H464.52V50.1345H432.038V73.6781H421.842V16.7109H465.361V26.9062Z" fill="black"/>
<path d="M510.878 0L512.98 9.14417L492.272 13.1382L490.485 5.67569L510.773 0.105105L510.878 0ZM473.561 45.1953C473.561 40.886 474.296 36.9971 475.768 33.3184C477.24 29.6397 479.132 26.5917 481.655 23.964C484.178 21.3364 487.121 19.2343 490.59 17.7628C494.059 16.2913 497.738 15.5556 501.732 15.5556C505.727 15.5556 509.511 16.2913 512.875 17.7628C516.239 19.2343 519.287 21.3364 521.81 23.964C524.333 26.5917 526.33 29.7448 527.697 33.3184C529.168 36.9971 529.799 40.886 529.799 45.1953C529.799 49.5047 529.063 53.3936 527.697 57.0723C526.225 60.7509 524.333 63.799 521.81 66.4266C519.287 69.0543 516.344 71.1564 512.875 72.6279C509.406 74.0993 505.727 74.8351 501.732 74.8351C497.738 74.8351 493.954 74.0993 490.59 72.6279C487.121 71.1564 484.178 69.0543 481.655 66.4266C479.132 63.799 477.135 60.6458 475.768 57.0723C474.296 53.3936 473.561 49.5047 473.561 45.1953ZM519.813 45.1953C519.813 39.4145 518.131 34.6848 514.872 31.1112C511.614 27.5376 507.199 25.7508 501.732 25.7508C496.266 25.7508 491.851 27.5376 488.593 31.1112C485.334 34.6848 483.652 39.4145 483.652 45.1953C483.652 50.9761 485.334 55.7059 488.593 59.2795C491.851 62.8531 496.266 64.6398 501.732 64.6398C507.199 64.6398 511.614 62.8531 514.872 59.2795C518.131 55.7059 519.813 50.9761 519.813 45.1953Z" fill="black"/>
<path d="M570.48 26.9062H551.138V42.672H570.48C573.528 42.672 575.841 41.9362 577.312 40.3597C578.784 38.7831 579.625 36.9963 579.625 34.7891C579.625 32.5819 578.889 30.7951 577.312 29.2185C575.841 27.6419 573.528 26.9062 570.48 26.9062ZM579.31 73.6781L568.693 52.7621H551.138V73.6781H540.941V16.7109H570.69C573.423 16.7109 575.946 17.1314 578.259 18.0773C580.571 19.0233 582.568 20.2845 584.25 21.8611C585.932 23.4377 587.299 25.3296 588.245 27.5368C589.191 29.744 589.717 32.0563 589.717 34.5789C589.717 38.1524 588.77 41.4107 586.878 44.3537C584.986 47.2966 582.358 49.5038 579.205 50.9753L591.504 73.7832H579.415L579.31 73.6781Z" fill="black"/>
<path d="M649.948 16.7109V50.7651C649.948 54.4438 649.318 57.8072 648.056 60.7501C646.795 63.6931 645.008 66.3207 642.8 68.3177C640.593 70.4198 638.07 71.9964 635.127 73.1526C632.183 74.3087 629.135 74.8342 625.771 74.8342C622.407 74.8342 619.359 74.3087 616.415 73.1526C613.472 71.9964 610.949 70.4198 608.742 68.3177C606.534 66.2156 604.852 63.6931 603.486 60.7501C602.224 57.8072 601.594 54.4438 601.594 50.7651V16.7109H611.79V50.7651C611.79 52.9723 612.211 54.9693 612.947 56.651C613.682 58.3327 614.734 59.8042 615.995 61.0654C617.256 62.3267 618.728 63.1675 620.41 63.7982C622.092 64.4288 623.879 64.7441 625.666 64.7441C627.453 64.7441 629.24 64.4288 630.922 63.7982C632.604 63.1675 634.075 62.2216 635.337 61.0654C636.598 59.9093 637.649 58.4378 638.385 56.651C639.121 54.9693 639.542 52.9723 639.542 50.7651V16.7109H649.738H649.948Z" fill="black"/>
<path d="M720.064 73.6781V26.1704L704.401 73.6781H688.738L673.181 26.1704V73.6781H662.984V16.7109H680.749L696.517 64.9543L712.39 16.7109H730.26V73.6781H720.064Z" fill="black"/>
<path d="M807.943 73.6781V50.1345H777.038V73.6781H766.842V16.7109H777.038V39.9392H807.943V16.7109H818.14V73.6781H807.943Z" fill="black"/>
<path d="M861.449 26.9062H842.107V42.672H861.449C864.497 42.672 866.81 41.9362 868.281 40.3597C869.753 38.7831 870.594 36.9963 870.594 34.7891C870.594 32.5819 869.858 30.7951 868.281 29.2185C866.81 27.6419 864.497 26.9062 861.449 26.9062ZM870.279 73.6781L859.662 52.7621H842.107V73.6781H831.91V16.7109H861.659C864.392 16.7109 866.915 17.1314 869.227 18.0773C871.54 19.0233 873.537 20.2845 875.219 21.8611C876.901 23.4377 878.268 25.3296 879.214 27.5368C880.16 29.744 880.685 32.0563 880.685 34.5789C880.685 38.1524 879.739 41.4107 877.847 44.3537C875.955 47.2966 873.327 49.5038 870.173 50.9753L882.472 73.7832H870.384L870.279 73.6781Z" fill="black"/>
<path d="M908.647 48.8732H927.568L918.108 24.3836L908.542 48.8732H908.647ZM937.239 73.6781L931.563 59.0684H904.758L899.186 73.6781H888.254L910.224 16.7109H926.307L948.277 73.6781H937.344H937.239Z" fill="black"/>
<path d="M966.882 26.9062V63.4829H979.707C985.173 63.4829 989.588 61.8012 992.846 58.5429C996.105 55.2846 997.787 50.7651 997.787 45.1945C997.787 39.6239 996.105 35.2095 992.846 31.8461C989.588 28.5879 985.173 26.9062 979.707 26.9062H966.882ZM979.707 16.7109C983.701 16.7109 987.485 17.4467 990.849 18.813C994.318 20.1794 997.261 22.1764 999.784 24.6989C1002.31 27.2215 1004.3 30.1644 1005.67 33.6329C1007.14 37.1014 1007.88 40.9903 1007.88 45.1945C1007.88 49.3987 1007.14 53.1825 1005.67 56.7561C1004.2 60.3297 1002.31 63.2726 999.784 65.7952C997.261 68.3177 994.318 70.2096 990.849 71.6811C987.38 73.0475 983.701 73.7832 979.707 73.7832H956.686V16.7109H979.707Z" fill="black"/>
<path d="M1065.27 26.9062H1029.11V40.1495H1064.54V50.1345H1029.11V63.4829H1065.69V73.6781H1018.92V16.7109H1065.27V26.9062Z" fill="black"/>
<path d="M1130.03 56.9662C1128.24 62.6419 1124.98 66.9512 1120.36 70.1044C1115.63 73.2576 1110.26 74.8342 1104.17 74.8342C1100.17 74.8342 1096.39 74.0984 1093.03 72.6269C1089.56 71.1555 1086.61 69.0534 1084.09 66.4257C1081.57 63.7981 1079.57 60.6449 1078.2 57.0713C1076.73 53.3926 1076 49.5037 1076 45.1944C1076 40.8851 1076.73 36.9962 1078.2 33.3175C1079.68 29.6388 1081.57 26.5908 1084.09 23.9631C1086.61 21.3355 1089.56 19.2334 1093.03 17.7619C1096.49 16.2904 1100.17 15.5547 1104.17 15.5547C1110.26 15.5547 1115.63 17.0262 1120.15 20.0742C1124.67 23.1223 1128.03 27.4316 1130.03 33.2124L1120.88 37.4166C1119.73 34.0532 1117.73 31.2154 1114.89 29.0082C1112.05 26.801 1108.48 25.7499 1104.27 25.7499C1098.81 25.7499 1094.39 27.5367 1091.13 31.1103C1087.87 34.6839 1086.19 39.4136 1086.19 45.1944C1086.19 50.9752 1087.87 55.705 1091.13 59.2785C1094.39 62.8521 1098.81 64.6389 1104.27 64.6389C1108.58 64.6389 1112.26 63.4828 1115.1 61.2756C1117.94 59.0683 1119.94 56.2305 1120.99 52.6569L1130.13 56.8611L1130.03 56.9662Z" fill="black"/>
<path d="M1203.4 73.6781L1185.32 44.2486L1173.12 55.7051V73.6781H1163.03V16.7109H1173.12V41.9362L1199.61 16.7109H1214.23L1193.2 36.7861L1216.75 73.6781H1203.4Z" fill="black"/>
<path d="M1255.64 26.9062H1236.3V42.672H1255.64C1258.69 42.672 1261 41.9362 1262.48 40.3597C1263.95 38.7831 1264.79 36.9963 1264.79 34.7891C1264.79 32.5819 1264.05 30.7951 1262.48 29.2185C1261 27.6419 1258.69 26.9062 1255.64 26.9062ZM1264.47 73.6781L1253.86 52.7621H1236.3V73.6781H1226.11V16.7109H1255.85C1258.59 16.7109 1261.11 17.1314 1263.42 18.0773C1265.74 19.0233 1267.73 20.2845 1269.41 21.8611C1271.1 23.4377 1272.46 25.3296 1273.41 27.5368C1274.35 29.744 1274.88 32.0563 1274.88 34.5789C1274.88 38.1524 1273.93 41.4107 1272.04 44.3537C1270.15 47.2966 1267.52 49.5038 1264.37 50.9753L1276.67 73.7832H1264.58L1264.47 73.6781Z" fill="black"/>
<path d="M1302.84 48.874H1321.76L1312.3 24.3845L1302.74 48.874H1302.84ZM1331.43 73.6789L1325.76 59.0692H1298.95L1293.38 73.6789H1282.45L1304.42 16.7118H1320.5L1342.47 73.6789H1331.54H1331.43ZM1321.55 0L1323.66 9.14417L1302.95 13.1382L1301.16 5.67569L1321.45 0.105105L1321.55 0Z" fill="black"/>
<path d="M1361.08 63.4829H1394.4V73.6781H1350.88V16.7109H1361.08V63.4829Z" fill="black"/>
<path d="M1445.59 45.1944C1445.59 39.4136 1443.91 34.6839 1440.65 31.1103C1437.39 27.5367 1432.98 25.7499 1427.51 25.7499C1422.05 25.7499 1417.63 27.5367 1414.37 31.1103C1411.12 34.6839 1409.43 39.4136 1409.43 45.1944C1409.43 50.9752 1411.12 55.705 1414.37 59.2785C1417.63 62.8521 1422.05 64.6389 1427.51 64.6389C1432.98 64.6389 1437.39 62.8521 1440.65 59.2785C1443.91 55.705 1445.59 50.9752 1445.59 45.1944ZM1399.34 45.1944C1399.34 40.8851 1400.08 36.9962 1401.55 33.3175C1403.02 29.6388 1404.91 26.5908 1407.44 23.9631C1409.96 21.3355 1412.9 19.2334 1416.37 17.7619C1419.84 16.2904 1423.52 15.5547 1427.51 15.5547C1431.51 15.5547 1435.29 16.2904 1438.66 17.7619C1442.02 19.2334 1445.07 21.3355 1447.59 23.9631C1450.11 26.5908 1452.11 29.7439 1453.48 33.3175C1454.95 36.9962 1455.58 40.8851 1455.58 45.1944C1455.58 49.5037 1454.84 53.3926 1453.48 57.0713C1452.01 60.75 1450.11 63.7981 1447.59 66.4257C1445.07 69.0534 1442.13 71.1555 1438.66 72.6269C1435.19 74.0984 1431.51 74.8342 1427.51 74.8342C1423.52 74.8342 1419.73 74.0984 1416.37 72.6269C1412.9 71.1555 1409.96 69.0534 1407.44 66.4257C1404.91 63.7981 1402.92 60.6449 1401.55 57.0713C1400.08 53.3926 1399.34 49.5037 1399.34 45.1944Z" fill="black"/>
<path d="M1471.66 16.7109L1487.96 64.4288L1504.35 16.7109H1515.29L1495.84 73.6781H1480.18L1460.62 16.7109H1471.66Z" fill="black"/>
<path d="M1557.12 0L1559.23 9.14417L1538.52 13.1382L1536.73 5.67569L1557.02 0.105105L1557.12 0ZM1570.58 26.907H1534.42V40.0452H1569.84V50.1353H1534.42V63.4837H1571V73.6789H1524.22V16.7118H1570.58V26.907Z" fill="black"/>
</svg>
