<svg width="805" height="380" viewBox="0 0 805 380" fill="none" xmlns="http://www.w3.org/2000/svg">
<path d="M41.1015 73.6781V50.1345H10.1965V73.6781H0V16.7109H10.1965V39.9392H41.1015V16.7109H51.298V73.6781H41.1015Z" fill="black"/>
<path d="M94.6067 26.9062H75.2649V42.672H94.6067C97.6552 42.672 99.9678 41.9362 101.439 40.3597C102.911 38.7831 103.752 36.9963 103.752 34.7891C103.752 32.5819 103.016 30.7951 101.439 29.2185C99.9678 27.6419 97.6552 26.9062 94.6067 26.9062ZM103.437 73.6781L92.8197 52.7621H75.2649V73.6781H65.0684V16.7109H94.817C97.5501 16.7109 100.073 17.1314 102.386 18.0773C104.698 19.0233 106.695 20.2845 108.377 21.8611C110.059 23.4377 111.426 25.3296 112.372 27.5368C113.318 29.744 113.843 32.0563 113.843 34.5789C113.843 38.1524 112.897 41.4107 111.005 44.3537C109.113 47.2966 106.485 49.5038 103.332 50.9753L115.63 73.7832H103.542L103.437 73.6781Z" fill="black"/>
<path d="M141.805 48.8732H160.727L151.266 24.3836L141.7 48.8732H141.805ZM170.397 73.6781L164.721 59.0684H137.916L132.344 73.6781H121.412L143.382 16.7109H159.465L181.435 73.6781H170.503H170.397Z" fill="black"/>
<path d="M200.04 26.9062V63.4829H212.865C218.331 63.4829 222.746 61.8012 226.005 58.5429C229.263 55.2846 230.945 50.7651 230.945 45.1945C230.945 39.6239 229.263 35.2095 226.005 31.8461C222.746 28.5879 218.331 26.9062 212.865 26.9062H200.04ZM212.865 16.7109C216.859 16.7109 220.644 17.4467 224.007 18.813C227.476 20.1794 230.42 22.1764 232.942 24.6989C235.465 27.2215 237.463 30.1644 238.829 33.6329C240.301 37.1014 241.037 40.9903 241.037 45.1945C241.037 49.3987 240.301 53.1825 238.829 56.7561C237.357 60.3297 235.465 63.2726 232.942 65.7952C230.42 68.3177 227.476 70.2096 224.007 71.6811C220.538 73.0475 216.859 73.7832 212.865 73.7832H189.844V16.7109H212.865Z" fill="black"/>
<path d="M298.432 26.9062H262.271V40.1495H297.696V50.1345H262.271V63.4829H298.852V73.6781H252.074V16.7109H298.432V26.9062Z" fill="black"/>
<path d="M363.185 56.9662C361.398 62.6419 358.14 66.9512 353.514 70.1044C348.784 73.2576 343.423 74.8342 337.326 74.8342C333.332 74.8342 329.547 74.0984 326.184 72.6269C322.715 71.1555 319.771 69.0534 317.248 66.4257C314.726 63.7981 312.728 60.6449 311.362 57.0713C309.89 53.3926 309.154 49.5037 309.154 45.1944C309.154 40.8851 309.89 36.9962 311.362 33.3175C312.833 29.6388 314.726 26.5908 317.248 23.9631C319.771 21.3355 322.715 19.2334 326.184 17.7619C329.652 16.2904 333.332 15.5547 337.326 15.5547C343.423 15.5547 348.784 17.0262 353.304 20.0742C357.824 23.1223 361.188 27.4316 363.185 33.2124L354.04 37.4166C352.884 34.0532 350.886 31.2154 348.048 29.0082C345.21 26.801 341.636 25.7499 337.431 25.7499C331.965 25.7499 327.55 27.5367 324.291 31.1103C321.033 34.6839 319.351 39.4136 319.351 45.1944C319.351 50.9752 321.033 55.705 324.291 59.2785C327.55 62.8521 331.965 64.6389 337.431 64.6389C341.741 64.6389 345.42 63.4828 348.258 61.2756C351.097 59.0683 353.094 56.2305 354.145 52.6569L363.29 56.8611L363.185 56.9662Z" fill="black"/>
<path d="M436.557 73.6781L418.477 44.2486L406.283 55.7051V73.6781H396.191V16.7109H406.283V41.9362L432.773 16.7109H447.384L426.361 36.7861L449.907 73.6781H436.557Z" fill="black"/>
<path d="M488.802 26.9062H469.46V42.672H488.802C491.85 42.672 494.163 41.9362 495.635 40.3597C497.106 38.7831 497.947 36.9963 497.947 34.7891C497.947 32.5819 497.212 30.7951 495.635 29.2185C494.163 27.6419 491.85 26.9062 488.802 26.9062ZM497.632 73.6781L487.015 52.7621H469.46V73.6781H459.264V16.7109H489.012C491.745 16.7109 494.268 17.1314 496.581 18.0773C498.893 19.0233 500.891 20.2845 502.573 21.8611C504.255 23.4377 505.621 25.3296 506.567 27.5368C507.513 29.744 508.039 32.0563 508.039 34.5789C508.039 38.1524 507.093 41.4107 505.201 44.3537C503.308 47.2966 500.68 49.5038 497.527 50.9753L509.826 73.7832H497.737L497.632 73.6781Z" fill="black"/>
<path d="M536 48.874H554.922L545.461 24.3845L535.895 48.874H536ZM564.593 73.6789L558.916 59.0692H532.111L526.54 73.6789H515.607L537.577 16.7118H553.66L575.63 73.6789H564.698H564.593ZM554.712 0L556.814 9.14417L536.106 13.1382L534.319 5.67569L554.606 0.105105L554.712 0Z" fill="black"/>
<path d="M594.236 63.4829H627.558V73.6781H584.039V16.7109H594.236V63.4829Z" fill="black"/>
<path d="M678.752 45.1944C678.752 39.4136 677.07 34.6839 673.812 31.1103C670.553 27.5367 666.138 25.7499 660.672 25.7499C655.206 25.7499 650.791 27.5367 647.532 31.1103C644.273 34.6839 642.591 39.4136 642.591 45.1944C642.591 50.9752 644.273 55.705 647.532 59.2785C650.791 62.8521 655.206 64.6389 660.672 64.6389C666.138 64.6389 670.553 62.8521 673.812 59.2785C677.07 55.705 678.752 50.9752 678.752 45.1944ZM632.5 45.1944C632.5 40.8851 633.236 36.9962 634.708 33.3175C636.179 29.6388 638.071 26.5908 640.594 23.9631C643.117 21.3355 646.06 19.2334 649.529 17.7619C652.998 16.2904 656.677 15.5547 660.672 15.5547C664.666 15.5547 668.451 16.2904 671.814 17.7619C675.178 19.2334 678.227 21.3355 680.75 23.9631C683.272 26.5908 685.27 29.7439 686.636 33.3175C688.108 36.9962 688.739 40.8851 688.739 45.1944C688.739 49.5037 688.003 53.3926 686.636 57.0713C685.165 60.75 683.272 63.7981 680.75 66.4257C678.227 69.0534 675.283 71.1555 671.814 72.6269C668.346 74.0984 664.666 74.8342 660.672 74.8342C656.677 74.8342 652.893 74.0984 649.529 72.6269C646.06 71.1555 643.117 69.0534 640.594 66.4257C638.071 63.7981 636.074 60.6449 634.708 57.0713C633.236 53.3926 632.5 49.5037 632.5 45.1944Z" fill="black"/>
<path d="M704.821 16.7109L721.114 64.4288L737.513 16.7109H748.445L728.998 73.6781H713.335L693.783 16.7109H704.821Z" fill="black"/>
<path d="M790.281 0L792.383 9.14417L771.675 13.1382L769.888 5.67569L790.176 0.105105L790.281 0ZM803.736 26.907H767.575V40.0452H803V50.1353H767.575V63.4837H804.157V73.6789H757.379V16.7118H803.736V26.907Z" fill="black"/>
<path d="M41.1015 175.315V151.772H10.1965V175.315H0V118.453H10.1965V141.576H41.1015V118.453H51.298V175.315H41.1015Z" fill="black"/>
<path d="M94.6067 128.543H75.2649V144.309H94.6067C97.6552 144.309 99.9678 143.573 101.439 141.996C102.911 140.42 103.752 138.633 103.752 136.426C103.752 134.219 103.016 132.432 101.439 130.855C99.9678 129.279 97.6552 128.543 94.6067 128.543ZM103.437 175.315L92.8197 154.399H75.2649V175.315H65.0684V118.348H94.817C97.5501 118.348 100.073 118.768 102.386 119.714C104.698 120.66 106.695 121.921 108.377 123.498C110.059 125.074 111.426 126.966 112.372 129.174C113.318 131.381 113.843 133.693 113.843 136.216C113.843 139.789 112.897 143.047 111.005 145.99C109.113 148.933 106.485 151.141 103.332 152.612L115.63 175.42H103.542L103.437 175.315Z" fill="black"/>
<path d="M141.805 150.51H160.727L151.266 126.02L141.7 150.51H141.805ZM170.397 175.315L164.721 160.705H137.916L132.344 175.315H121.412L143.382 118.348H159.465L181.435 175.315H170.503H170.397Z" fill="black"/>
<path d="M200.04 128.543V165.12H212.865C218.331 165.12 222.746 163.438 226.005 160.18C229.263 156.921 230.945 152.402 230.945 146.831C230.945 141.261 229.263 136.846 226.005 133.483C222.746 130.225 218.331 128.543 212.865 128.543H200.04ZM212.865 118.348C216.859 118.348 220.644 119.083 224.007 120.45C227.476 121.816 230.42 123.813 232.942 126.336C235.465 128.858 237.463 131.801 238.829 135.27C240.301 138.738 241.037 142.627 241.037 146.831C241.037 151.035 240.301 154.819 238.829 158.393C237.357 161.966 235.465 164.909 232.942 167.432C230.42 169.954 227.476 171.846 224.007 173.318C220.538 174.684 216.859 175.42 212.865 175.42H189.844V118.453H212.865V118.348Z" fill="black"/>
<path d="M298.432 128.543H262.271V141.787H297.696V151.877H262.271V165.225H298.852V175.315H252.074V118.453H298.432V128.543Z" fill="black"/>
<path d="M363.185 158.708C361.398 164.384 358.14 168.693 353.514 171.847C348.784 175 343.423 176.576 337.326 176.576C333.332 176.576 329.547 175.841 326.184 174.369C322.715 172.898 319.771 170.796 317.248 168.168C314.726 165.54 312.728 162.387 311.362 158.814C309.89 155.135 309.154 151.246 309.154 146.937C309.154 142.627 309.89 138.738 311.362 135.06C312.833 131.381 314.726 128.333 317.248 125.705C319.771 123.078 322.715 120.976 326.184 119.504C329.652 118.033 333.332 117.297 337.326 117.297C343.423 117.297 348.784 118.768 353.304 121.816C357.824 124.864 361.188 129.174 363.185 134.955L354.04 139.159C352.884 135.795 350.886 132.958 348.048 130.75C345.21 128.543 341.636 127.492 337.431 127.492C331.965 127.492 327.55 129.279 324.291 132.852C321.033 136.426 319.351 141.156 319.351 146.937C319.351 152.717 321.033 157.447 324.291 161.021C327.55 164.594 331.965 166.381 337.431 166.381C341.741 166.381 345.42 165.225 348.258 163.018C351.097 160.811 353.094 157.973 354.145 154.399L363.29 158.603L363.185 158.708Z" fill="black"/>
<path d="M436.557 175.315L418.477 145.886L406.283 157.342V175.315H396.191V118.453H406.283V143.678L432.773 118.453H447.384L426.361 138.423L449.907 175.315H436.557Z" fill="black"/>
<path d="M488.802 128.543H469.46V144.309H488.802C491.85 144.309 494.163 143.573 495.635 141.996C497.106 140.42 497.947 138.633 497.947 136.426C497.947 134.219 497.212 132.432 495.635 130.855C494.163 129.279 491.85 128.543 488.802 128.543ZM497.632 175.315L487.015 154.399H469.46V175.315H459.264V118.348H489.012C491.745 118.348 494.268 118.768 496.581 119.714C498.893 120.66 500.891 121.921 502.573 123.498C504.255 125.074 505.621 126.966 506.567 129.174C507.513 131.381 508.039 133.693 508.039 136.216C508.039 139.789 507.093 143.047 505.201 145.99C503.308 148.933 500.68 151.141 497.527 152.612L509.826 175.42H497.737L497.632 175.315Z" fill="black"/>
<path d="M536 150.511H554.922L545.461 126.021L535.895 150.511H536ZM564.593 175.316L558.916 160.706H532.111L526.54 175.316H515.607L537.577 118.348H553.66L575.63 175.316H564.698H564.593ZM554.712 101.637L556.814 110.781L536.106 114.775L534.319 107.312L554.606 101.742L554.712 101.637Z" fill="black"/>
<path d="M594.236 165.225H627.558V175.315H584.039V118.453H594.236V165.225Z" fill="black"/>
<path d="M678.752 146.937C678.752 141.156 677.07 136.426 673.812 132.852C670.553 129.279 666.138 127.492 660.672 127.492C655.206 127.492 650.791 129.279 647.532 132.852C644.273 136.426 642.591 141.156 642.591 146.937C642.591 152.717 644.273 157.447 647.532 161.021C650.791 164.594 655.206 166.381 660.672 166.381C666.138 166.381 670.553 164.594 673.812 161.021C677.07 157.447 678.752 152.717 678.752 146.937ZM632.5 146.937C632.5 142.627 633.236 138.738 634.708 135.06C636.179 131.381 638.071 128.333 640.594 125.705C643.117 123.078 646.06 120.976 649.529 119.504C652.998 118.033 656.677 117.297 660.672 117.297C664.666 117.297 668.451 118.033 671.814 119.504C675.178 120.976 678.227 123.078 680.75 125.705C683.272 128.333 685.27 131.486 686.636 135.06C688.108 138.738 688.739 142.627 688.739 146.937C688.739 151.246 688.003 155.135 686.636 158.814C685.165 162.492 683.272 165.54 680.75 168.168C678.227 170.796 675.283 172.898 671.814 174.369C668.346 175.841 664.666 176.576 660.672 176.576C656.677 176.576 652.893 175.841 649.529 174.369C646.06 172.898 643.117 170.796 640.594 168.168C638.071 165.54 636.074 162.387 634.708 158.814C633.236 155.135 632.5 151.246 632.5 146.937Z" fill="black"/>
<path d="M704.821 118.453L721.114 166.066L737.513 118.453H748.445L728.998 175.315H713.335L693.783 118.453H704.821Z" fill="black"/>
<path d="M790.281 101.637L792.383 110.781L771.675 114.775L769.888 107.312L790.176 101.742L790.281 101.637ZM803.736 128.544H767.575V141.682H803V151.772H767.575V165.12H804.157V175.316H757.379V118.348H803.736V128.544Z" fill="black"/>
<path d="M41.1015 277.057V253.408H10.1965V277.057H0V220.09H10.1965V243.318H41.1015V220.09H51.298V277.057H41.1015Z" fill="black"/>
<path d="M94.6067 230.285H75.2649V246.051H94.6067C97.6552 246.051 99.9678 245.315 101.439 243.739C102.911 242.162 103.752 240.375 103.752 238.168C103.752 235.961 103.016 234.174 101.439 232.597C99.9678 231.021 97.6552 230.285 94.6067 230.285ZM103.437 277.057L92.8197 256.141H75.2649V277.057H65.0684V220.09H94.817C97.5501 220.09 100.073 220.51 102.386 221.456C104.698 222.402 106.695 223.663 108.377 225.24C110.059 226.817 111.426 228.708 112.372 230.916C113.318 233.123 113.843 235.435 113.843 237.958C113.843 241.531 112.897 244.79 111.005 247.733C109.113 250.676 106.485 252.883 103.332 254.354L115.63 277.162H103.542L103.437 277.057Z" fill="black"/>
<path d="M141.805 252.252H160.727L151.266 227.763L141.7 252.252H141.805ZM170.397 277.057L164.721 262.447H137.916L132.344 277.057H121.412L143.382 220.09H159.465L181.435 277.057H170.503H170.397Z" fill="black"/>
<path d="M200.04 230.285V266.862H212.865C218.331 266.862 222.746 265.18 226.005 261.922C229.263 258.664 230.945 254.144 230.945 248.573C230.945 243.003 229.263 238.588 226.005 235.225C222.746 231.967 218.331 230.285 212.865 230.285H200.04ZM212.865 220.09C216.859 220.09 220.644 220.826 224.007 222.192C227.476 223.558 230.42 225.555 232.942 228.078C235.465 230.6 237.463 233.543 238.829 237.012C240.301 240.48 241.037 244.369 241.037 248.573C241.037 252.778 240.301 256.561 238.829 260.135C237.357 263.709 235.465 266.652 232.942 269.174C230.42 271.697 227.476 273.589 224.007 275.06C220.538 276.426 216.859 277.162 212.865 277.162H189.844V220.195H212.865V220.09Z" fill="black"/>
<path d="M298.432 230.285H262.271V243.423H297.696V253.513H262.271V266.862H298.852V277.057H252.074V220.09H298.432V230.285Z" fill="black"/>
<path d="M363.185 260.345C361.398 266.021 358.14 270.33 353.514 273.483C348.784 276.636 343.423 278.213 337.326 278.213C333.332 278.213 329.547 277.477 326.184 276.006C322.715 274.534 319.771 272.432 317.248 269.805C314.726 267.177 312.728 264.024 311.362 260.45C309.89 256.772 309.154 252.883 309.154 248.573C309.154 244.264 309.89 240.375 311.362 236.696C312.833 233.018 314.726 229.97 317.248 227.342C319.771 224.714 322.715 222.612 326.184 221.141C329.652 219.669 333.332 218.934 337.326 218.934C343.423 218.934 348.784 220.405 353.304 223.453C357.824 226.501 361.188 230.811 363.185 236.591L354.04 240.796C352.884 237.432 350.886 234.594 348.048 232.387C345.21 230.18 341.636 229.129 337.431 229.129C331.965 229.129 327.55 230.916 324.291 234.489C321.033 238.063 319.351 242.793 319.351 248.573C319.351 254.354 321.033 259.084 324.291 262.657C327.55 266.231 331.965 268.018 337.431 268.018C341.741 268.018 345.42 266.862 348.258 264.654C351.097 262.447 353.094 259.609 354.145 256.036L363.29 260.24L363.185 260.345Z" fill="black"/>
<path d="M436.557 277.057L418.477 247.627L406.283 259.084V277.057H396.191V220.09H406.283V245.315L432.773 220.09H447.384L426.361 240.06L449.907 277.057H436.557Z" fill="black"/>
<path d="M488.802 230.285H469.46V246.051H488.802C491.85 246.051 494.163 245.315 495.635 243.739C497.106 242.162 497.947 240.375 497.947 238.168C497.947 235.961 497.212 234.174 495.635 232.597C494.163 231.021 491.85 230.285 488.802 230.285ZM497.632 277.057L487.015 256.141H469.46V277.057H459.264V220.09H489.012C491.745 220.09 494.268 220.51 496.581 221.456C498.893 222.402 500.891 223.663 502.573 225.24C504.255 226.817 505.621 228.708 506.567 230.916C507.513 233.123 508.039 235.435 508.039 237.958C508.039 241.531 507.093 244.79 505.201 247.733C503.308 250.676 500.68 252.883 497.527 254.354L509.826 277.162H497.737L497.632 277.057Z" fill="black"/>
<path d="M536 252.253H554.922L545.461 227.763L535.895 252.253H536ZM564.593 277.058L558.916 262.448H532.111L526.54 277.058H515.607L537.577 220.091H553.66L575.63 277.058H564.698H564.593ZM554.712 203.379L556.814 212.523L536.106 216.517L534.319 209.055L554.606 203.484L554.712 203.379Z" fill="black"/>
<path d="M594.236 266.862H627.558V277.057H584.039V220.09H594.236V266.862Z" fill="black"/>
<path d="M678.752 248.573C678.752 242.793 677.07 238.063 673.812 234.489C670.553 230.916 666.138 229.129 660.672 229.129C655.206 229.129 650.791 230.916 647.532 234.489C644.273 238.063 642.591 242.793 642.591 248.573C642.591 254.354 644.273 259.084 647.532 262.657C650.791 266.231 655.206 268.018 660.672 268.018C666.138 268.018 670.553 266.231 673.812 262.657C677.07 259.084 678.752 254.354 678.752 248.573ZM632.5 248.573C632.5 244.264 633.236 240.375 634.708 236.696C636.179 233.018 638.071 229.97 640.594 227.342C643.117 224.714 646.06 222.612 649.529 221.141C652.998 219.669 656.677 218.934 660.672 218.934C664.666 218.934 668.451 219.669 671.814 221.141C675.178 222.612 678.227 224.714 680.75 227.342C683.272 229.97 685.27 233.123 686.636 236.696C688.108 240.375 688.739 244.264 688.739 248.573C688.739 252.883 688.003 256.772 686.636 260.45C685.165 264.129 683.272 267.177 680.75 269.805C678.227 272.432 675.283 274.534 671.814 276.006C668.346 277.477 664.666 278.213 660.672 278.213C656.677 278.213 652.893 277.477 649.529 276.006C646.06 274.534 643.117 272.432 640.594 269.805C638.071 267.177 636.074 264.024 634.708 260.45C633.236 256.772 632.5 252.883 632.5 248.573Z" fill="black"/>
<path d="M704.821 220.09L721.114 267.808L737.513 220.09H748.445L728.998 277.057H713.335L693.783 220.09H704.821Z" fill="black"/>
<path d="M790.281 203.379L792.383 212.523L771.675 216.517L769.888 209.055L790.176 203.484L790.281 203.379ZM803.736 230.286H767.575V243.424H803V253.514H767.575V266.863H804.157V277.058H757.379V220.091H803.736V230.286Z" fill="black"/>
<path d="M41.1015 378.694V355.15H10.1965V378.694H0V321.727H10.1965V344.955H41.1015V321.727H51.298V378.694H41.1015Z" fill="black"/>
<path d="M94.6067 331.922H75.2649V347.688H94.6067C97.6552 347.688 99.9678 346.952 101.439 345.375C102.911 343.799 103.752 342.012 103.752 339.805C103.752 337.597 103.016 335.811 101.439 334.234C99.9678 332.658 97.6552 331.922 94.6067 331.922ZM103.437 378.694L92.8197 357.778H75.2649V378.694H65.0684V321.727H94.817C97.5501 321.727 100.073 322.147 102.386 323.093C104.698 324.039 106.695 325.3 108.377 326.877C110.059 328.453 111.426 330.345 112.372 332.552C113.318 334.76 113.843 337.072 113.843 339.594C113.843 343.168 112.897 346.426 111.005 349.369C109.113 352.312 106.485 354.519 103.332 355.991L115.63 378.799H103.542L103.437 378.694Z" fill="black"/>
<path d="M141.805 353.889H160.727L151.266 329.399L141.7 353.889H141.805ZM170.397 378.694L164.721 364.084H137.916L132.344 378.694H121.412L143.382 321.727H159.465L181.435 378.694H170.503H170.397Z" fill="black"/>
<path d="M200.04 331.922V368.498H212.865C218.331 368.498 222.746 366.817 226.005 363.559C229.263 360.3 230.945 355.781 230.945 350.21C230.945 344.64 229.263 340.225 226.005 336.862C222.746 333.603 218.331 331.922 212.865 331.922H200.04ZM212.865 321.727C216.859 321.727 220.644 322.462 224.007 323.829C227.476 325.195 230.42 327.192 232.942 329.715C235.465 332.237 237.463 335.18 238.829 338.649C240.301 342.117 241.037 346.006 241.037 350.21C241.037 354.414 240.301 358.198 238.829 361.772C237.357 365.345 235.465 368.288 232.942 370.811C230.42 373.333 227.476 375.225 224.007 376.697C220.538 378.063 216.859 378.799 212.865 378.799H189.844V321.832H212.865V321.727Z" fill="black"/>
<path d="M298.432 331.922H262.271V345.06H297.696V355.15H262.271V368.498H298.852V378.694H252.074V321.727H298.432V331.922Z" fill="black"/>
<path d="M363.185 361.982C361.398 367.658 358.14 371.967 353.514 375.12C348.784 378.273 343.423 379.85 337.326 379.85C333.332 379.85 329.547 379.114 326.184 377.643C322.715 376.171 319.771 374.069 317.248 371.441C314.726 368.814 312.728 365.661 311.362 362.087C309.89 358.408 309.154 354.519 309.154 350.21C309.154 345.901 309.89 342.012 311.362 338.333C312.833 334.654 314.726 331.606 317.248 328.979C319.771 326.351 322.715 324.249 326.184 322.778C329.652 321.306 333.332 320.57 337.326 320.57C343.423 320.57 348.784 322.042 353.304 325.09C357.824 328.138 361.188 332.447 363.185 338.228L354.04 342.432C352.884 339.069 350.886 336.231 348.048 334.024C345.21 331.817 341.636 330.766 337.431 330.766C331.965 330.766 327.55 332.552 324.291 336.126C321.033 339.699 319.351 344.429 319.351 350.21C319.351 355.991 321.033 360.721 324.291 364.294C327.55 367.868 331.965 369.655 337.431 369.655C341.741 369.655 345.42 368.498 348.258 366.291C351.097 364.084 353.094 361.246 354.145 357.673L363.29 361.877L363.185 361.982Z" fill="black"/>
<path d="M436.557 378.694L418.477 349.264L406.283 360.721V378.694H396.191V321.727H406.283V346.952L432.773 321.727H447.384L426.361 341.802L449.907 378.694H436.557Z" fill="black"/>
<path d="M488.802 331.922H469.46V347.688H488.802C491.85 347.688 494.163 346.952 495.635 345.375C497.106 343.799 497.947 342.012 497.947 339.805C497.947 337.597 497.212 335.811 495.635 334.234C494.163 332.658 491.85 331.922 488.802 331.922ZM497.632 378.694L487.015 357.778H469.46V378.694H459.264V321.727H489.012C491.745 321.727 494.268 322.147 496.581 323.093C498.893 324.039 500.891 325.3 502.573 326.877C504.255 328.453 505.621 330.345 506.567 332.552C507.513 334.76 508.039 337.072 508.039 339.594C508.039 343.168 507.093 346.426 505.201 349.369C503.308 352.312 500.68 354.519 497.527 355.991L509.826 378.799H497.737L497.632 378.694Z" fill="black"/>
<path d="M536 353.89H554.922L545.461 329.4L535.895 353.89H536ZM564.593 378.695L558.916 364.085H532.111L526.54 378.695H515.607L537.577 321.727H553.66L575.63 378.695H564.698H564.593ZM554.712 305.016L556.814 314.16L536.106 318.154L534.319 310.691L554.606 305.121L554.712 305.016Z" fill="black"/>
<path d="M594.236 368.498H627.558V378.694H584.039V321.727H594.236V368.498Z" fill="black"/>
<path d="M678.752 350.21C678.752 344.429 677.07 339.699 673.812 336.126C670.553 332.552 666.138 330.766 660.672 330.766C655.206 330.766 650.791 332.552 647.532 336.126C644.273 339.699 642.591 344.429 642.591 350.21C642.591 355.991 644.273 360.721 647.532 364.294C650.791 367.868 655.206 369.655 660.672 369.655C666.138 369.655 670.553 367.868 673.812 364.294C677.07 360.721 678.752 355.991 678.752 350.21ZM632.5 350.21C632.5 345.901 633.236 342.012 634.708 338.333C636.179 334.654 638.071 331.606 640.594 328.979C643.117 326.351 646.06 324.249 649.529 322.778C652.998 321.306 656.677 320.57 660.672 320.57C664.666 320.57 668.451 321.306 671.814 322.778C675.178 324.249 678.227 326.351 680.75 328.979C683.272 331.606 685.27 334.76 686.636 338.333C688.108 342.012 688.739 345.901 688.739 350.21C688.739 354.519 688.003 358.408 686.636 362.087C685.165 365.766 683.272 368.814 680.75 371.441C678.227 374.069 675.283 376.171 671.814 377.643C668.346 379.114 664.666 379.85 660.672 379.85C656.677 379.85 652.893 379.114 649.529 377.643C646.06 376.171 643.117 374.069 640.594 371.441C638.071 368.814 636.074 365.661 634.708 362.087C633.236 358.408 632.5 354.519 632.5 350.21Z" fill="black"/>
<path d="M704.821 321.727L721.114 369.444L737.513 321.727H748.445L728.998 378.694H713.335L693.783 321.727H704.821Z" fill="black"/>
<path d="M790.281 305.016L792.383 314.16L771.675 318.154L769.888 310.691L790.176 305.121L790.281 305.016ZM803.736 331.923H767.575V345.061H803V355.151H767.575V368.499H804.157V378.695H757.379V321.727H803.736V331.923Z" fill="black"/>
</svg>
