<?xml version="1.0" encoding="UTF-8"?>
<svg id="uuid-956272a2-a8b6-4ed6-aedf-bd5001207eaa" xmlns="http://www.w3.org/2000/svg" version="1.1" viewBox="0 0 401 79.3">
  <!-- Generator: Adobe Illustrator 29.5.1, SVG Export Plug-In . SVG Version: 2.1.0 Build 141)  -->
  <path d="M108.8,78.8c-.6-.3-1-.7-1.3-1.3-.3-.6-.5-1.2-.5-1.9s.2-1.4.5-1.9c.3-.6.7-1,1.3-1.3.6-.3,1.2-.5,1.9-.5s1.4.2,1.9.5c.6.3,1,.7,1.3,1.3.3.6.5,1.2.5,1.9s-.2,1.4-.5,1.9c-.3.6-.7,1-1.3,1.3-.6.3-1.2.5-1.9.5s-1.4-.2-1.9-.5Z"/>
  <path d="M1.8,7.8c-.6-.3-1-.7-1.3-1.3-.3-.6-.5-1.3-.5-2s.2-1.4.5-1.9c.3-.6.7-1,1.3-1.3.6-.3,1.2-.5,1.9-.5s1.4.2,1.9.5c.6.3,1,.7,1.3,1.3.3.6.5,1.2.5,1.9s-.2,1.4-.5,1.9c-.3.6-.7,1-1.3,1.3-.6.3-1.2.5-1.9.5s-1.4-.2-1.9-.5h0Z"/>
  <path d="M35.5,29.4c-.6-.3-1-.7-1.3-1.3-.3-.6-.5-1.2-.5-1.9s.2-1.4.5-1.9c.3-.6.7-1,1.3-1.3s1.2-.5,1.9-.5,1.4.2,1.9.5c.6.3,1,.7,1.3,1.3.3.6.5,1.2.5,1.9s-.2,1.4-.5,1.9c-.3.6-.7,1-1.3,1.3s-1.2.5-1.9.5-1.4-.2-1.9-.5Z"/>
  <path d="M71,53.6c-.6-.3-1-.7-1.3-1.3s-.5-1.2-.5-1.9.2-1.4.5-1.9c.3-.6.7-1,1.3-1.3.6-.3,1.2-.5,1.9-.5s1.4.2,1.9.5c.6.3,1,.7,1.3,1.3s.5,1.2.5,1.9-.2,1.4-.5,1.9c-.3.6-.7,1-1.3,1.3-.6.3-1.2.5-1.9.5s-1.4-.2-1.9-.5Z"/>
  <path d="M198.5,41.3c-.6-.3-1-.7-1.3-1.3s-.5-1.2-.5-1.9.2-1.4.5-1.9c.3-.6.7-1,1.3-1.3s1.2-.5,1.9-.5,1.4.2,1.9.5c.6.3,1,.7,1.3,1.3s.5,1.2.5,1.9-.2,1.4-.5,1.9c-.3.6-.7,1-1.3,1.3s-1.2.5-1.9.5-1.4-.2-1.9-.5Z"/>
  <path d="M290.2,78.5c-.7,0-1.4-.2-1.9-.5-.6-.3-1-.7-1.3-1.3-.3-.6-.5-1.2-.5-1.9s.2-1.4.5-1.9c.3-.6.7-1,1.3-1.3.6-.3,1.2-.5,1.9-.5s1.4.2,1.9.5c.6.3,1,.7,1.3,1.3.3.6.5,1.2.5,1.9s-.2,1.4-.5,1.9c-.3.6-.7,1-1.3,1.3-.6.3-1.2.5-1.9.5Z"/>
  <path d="M248.2,69.2c-.7,0-1.4-.2-1.9-.5-.6-.3-1-.8-1.3-1.4-.3-.6-.5-1.2-.5-1.9s.2-1.3.5-1.9c.3-.6.7-1,1.3-1.3s1.2-.5,1.9-.5,1.4.2,1.9.5c.6.3,1,.8,1.3,1.3.3.6.5,1.2.5,1.9s-.2,1.4-.5,1.9c-.3.6-.7,1-1.3,1.4-.6.3-1.2.5-1.9.5Z"/>
  <path d="M397.2,7.5c-.7,0-1.4-.2-1.9-.5-.6-.3-1-.7-1.3-1.3-.3-.6-.5-1.2-.5-1.9s.2-1.4.5-1.9c.3-.6.7-1,1.3-1.3.6-.3,1.2-.5,1.9-.5s1.4.2,1.9.5c.6.3,1,.7,1.3,1.3s.5,1.2.5,1.9-.2,1.4-.5,1.9c-.3.6-.7,1-1.3,1.3-.6.3-1.2.5-1.9.5Z"/>
  <path d="M363.5,29.1c-.7,0-1.4-.2-1.9-.5-.6-.3-1-.7-1.3-1.3-.3-.6-.5-1.2-.5-1.9s.2-1.4.5-1.9c.3-.6.7-1,1.3-1.3.6-.3,1.2-.5,1.9-.5s1.4.2,1.9.5c.6.3,1,.7,1.3,1.3.3.6.5,1.2.5,1.9s-.2,1.4-.5,1.9c-.3.6-.7,1-1.3,1.3-.6.3-1.2.5-1.9.5Z"/>
  <path d="M328,53.3c-.7,0-1.4-.2-1.9-.5-.6-.3-1-.7-1.3-1.3s-.5-1.2-.5-1.9.2-1.4.5-1.9c.3-.6.7-1,1.3-1.3.6-.3,1.2-.5,1.9-.5s1.4.2,1.9.5c.6.3,1,.7,1.3,1.3s.5,1.2.5,1.9-.2,1.4-.5,1.9c-.3.6-.7,1-1.3,1.3-.6.3-1.2.5-1.9.5Z"/>
  <path d="M150.9,68.7c-.6-.3-1-.8-1.3-1.4-.3-.6-.5-1.2-.5-1.9s.2-1.3.5-1.9c.3-.6.7-1,1.3-1.3s1.2-.5,1.9-.5,1.4.2,1.9.5c.6.3,1,.8,1.3,1.3.3.6.5,1.2.5,1.9s-.2,1.4-.5,1.9c-.3.6-.7,1-1.3,1.4-.6.3-1.2.5-1.9.5s-1.4-.2-1.9-.5Z"/>
</svg>