<?xml version="1.0" encoding="UTF-8"?>
<svg id="uuid-392825b3-80e3-4d90-a8b0-908359d8ebba" data-name="uuid-956272a2-a8b6-4ed6-aedf-bd5001207eaa" xmlns="http://www.w3.org/2000/svg" viewBox="0 0 400.9 50.6">
  <path d="M108.8,50.1c-.6-.3-1-.7-1.3-1.3-.3-.6-.5-1.2-.5-1.9s.2-1.4.5-1.9c.3-.6.7-1,1.3-1.3.6-.3,1.2-.5,1.9-.5s1.4.2,1.9.5c.6.3,1,.7,1.3,1.3.3.6.5,1.2.5,1.9s-.2,1.4-.5,1.9c-.3.6-.7,1-1.3,1.3-.6.3-1.2.5-1.9.5s-1.4-.2-1.9-.5Z"/>
  <path d="M1.8,24.1c-.6-.3-1-.7-1.3-1.3-.3-.6-.5-1.3-.5-2s.2-1.4.5-1.9c.3-.6.7-1,1.3-1.3.6-.3,1.2-.5,1.9-.5s1.4.2,1.9.5c.6.3,1,.7,1.3,1.3.3.6.5,1.2.5,1.9s-.2,1.4-.5,1.9c-.3.6-.7,1-1.3,1.3-.6.3-1.2.5-1.9.5s-1.4-.2-1.9-.5h0v.1Z"/>
  <path d="M35.5,45.7c-.6-.3-1-.7-1.3-1.3-.3-.6-.5-1.2-.5-1.9s.2-1.4.5-1.9c.3-.6.7-1,1.3-1.3s1.2-.5,1.9-.5,1.4.2,1.9.5c.6.3,1,.7,1.3,1.3.3.6.5,1.2.5,1.9s-.2,1.4-.5,1.9c-.3.6-.7,1-1.3,1.3s-1.2.5-1.9.5-1.4-.2-1.9-.5Z"/>
  <path d="M71,25.9c-.6-.3-1-.7-1.3-1.3s-.5-1.2-.5-1.9.2-1.4.5-1.9c.3-.6.7-1,1.3-1.3.6-.3,1.2-.5,1.9-.5s1.4.2,1.9.5c.6.3,1,.7,1.3,1.3s.5,1.2.5,1.9-.2,1.4-.5,1.9c-.3.6-.7,1-1.3,1.3-.6.3-1.2.5-1.9.5s-1.4-.2-1.9-.5Z"/>
  <path d="M198.5,12.6c-.6-.3-1-.7-1.3-1.3s-.5-1.2-.5-1.9.2-1.4.5-1.9c.3-.6.7-1,1.3-1.3s1.2-.5,1.9-.5,1.4.2,1.9.5c.6.3,1,.7,1.3,1.3s.5,1.2.5,1.9-.2,1.4-.5,1.9c-.3.6-.7,1-1.3,1.3s-1.2.5-1.9.5-1.4-.2-1.9-.5Z"/>
  <path d="M290.2,49.8c-.7,0-1.4-.2-1.9-.5-.6-.3-1-.7-1.3-1.3-.3-.6-.5-1.2-.5-1.9s.2-1.4.5-1.9c.3-.6.7-1,1.3-1.3.6-.3,1.2-.5,1.9-.5s1.4.2,1.9.5c.6.3,1,.7,1.3,1.3.3.6.5,1.2.5,1.9s-.2,1.4-.5,1.9c-.3.6-.7,1-1.3,1.3-.6.3-1.2.5-1.9.5Z"/>
  <path d="M248.2,7.5c-.7,0-1.4-.2-1.9-.5-.6-.3-1-.8-1.3-1.4s-.5-1.2-.5-1.9.2-1.3.5-1.9.7-1,1.3-1.3,1.2-.5,1.9-.5,1.4.2,1.9.5c.6.3,1,.8,1.3,1.3.3.6.5,1.2.5,1.9s-.2,1.4-.5,1.9c-.3.6-.7,1-1.3,1.4-.6.3-1.2.5-1.9.5Z"/>
  <path d="M397.2,23.8c-.7,0-1.4-.2-1.9-.5-.6-.3-1-.7-1.3-1.3-.3-.6-.5-1.2-.5-1.9s.2-1.4.5-1.9c.3-.6.7-1,1.3-1.3.6-.3,1.2-.5,1.9-.5s1.4.2,1.9.5c.6.3,1,.7,1.3,1.3s.5,1.2.5,1.9-.2,1.4-.5,1.9c-.3.6-.7,1-1.3,1.3-.6.3-1.2.5-1.9.5Z"/>
  <path d="M363.5,45.4c-.7,0-1.4-.2-1.9-.5-.6-.3-1-.7-1.3-1.3-.3-.6-.5-1.2-.5-1.9s.2-1.4.5-1.9c.3-.6.7-1,1.3-1.3.6-.3,1.2-.5,1.9-.5s1.4.2,1.9.5c.6.3,1,.7,1.3,1.3.3.6.5,1.2.5,1.9s-.2,1.4-.5,1.9c-.3.6-.7,1-1.3,1.3-.6.3-1.2.5-1.9.5Z"/>
  <path d="M328,25.6c-.7,0-1.4-.2-1.9-.5-.6-.3-1-.7-1.3-1.3s-.5-1.2-.5-1.9.2-1.4.5-1.9c.3-.6.7-1,1.3-1.3.6-.3,1.2-.5,1.9-.5s1.4.2,1.9.5c.6.3,1,.7,1.3,1.3s.5,1.2.5,1.9-.2,1.4-.5,1.9c-.3.6-.7,1-1.3,1.3-.6.3-1.2.5-1.9.5Z"/>
  <path d="M150.9,7c-.6-.3-1-.8-1.3-1.4s-.5-1.2-.5-1.9.2-1.3.5-1.9.7-1,1.3-1.3,1.2-.5,1.9-.5,1.4.2,1.9.5c.6.3,1,.8,1.3,1.3.3.6.5,1.2.5,1.9s-.2,1.4-.5,1.9c-.3.6-.7,1-1.3,1.4-.6.3-1.2.5-1.9.5s-1.4-.2-1.9-.5Z"/>
</svg>