<?xml version="1.0" encoding="UTF-8"?>
<svg id="uuid-956272a2-a8b6-4ed6-aedf-bd5001207eaa" data-name="a" xmlns="http://www.w3.org/2000/svg" viewBox="0 0 400.953 79.267">
  <path d="M108.774,78.81c-.584-.304-1.027-.748-1.332-1.332-.304-.583-.457-1.23-.457-1.94s.152-1.356.457-1.94c.304-.583.748-1.027,1.332-1.332.583-.304,1.229-.457,1.94-.457s1.356.152,1.94.457c.583.304,1.027.749,1.332,1.332.304.584.457,1.231.457,1.94s-.152,1.357-.457,1.94c-.304.584-.749,1.027-1.332,1.332-.584.304-1.231.457-1.94.457s-1.358-.152-1.94-.457Z"/>
  <path d="M150.851,51.342c-.584-.329-1.027-.786-1.332-1.37-.304-.583-.457-1.23-.457-1.94s.152-1.344.457-1.902c.304-.557.748-1.002,1.332-1.332.583-.329,1.229-.495,1.94-.495s1.356.165,1.94.495c.583.33,1.027.774,1.332,1.332.304.558.457,1.193.457,1.902s-.152,1.357-.457,1.94c-.304.584-.749,1.041-1.332,1.37-.584.33-1.231.495-1.94.495s-1.358-.165-1.94-.495Z"/>
  <path d="M1.788,7.811c-.584-.304-1.027-.748-1.332-1.332-.304-.583-.457-1.23-.457-1.94s.152-1.356.457-1.94c.304-.583.748-1.027,1.332-1.332.583-.304,1.229-.457,1.94-.457s1.356.152,1.94.457c.583.304,1.027.749,1.332,1.332.304.584.457,1.231.457,1.94s-.152,1.357-.457,1.94c-.304.584-.749,1.027-1.332,1.332-.584.304-1.231.457-1.94.457s-1.358-.152-1.94-.457Z"/>
  <path d="M35.464,29.43c-.584-.304-1.027-.748-1.332-1.332-.304-.583-.457-1.23-.457-1.94s.152-1.356.457-1.94c.304-.583.748-1.027,1.332-1.332.583-.304,1.229-.457,1.94-.457s1.356.152,1.94.457c.583.304,1.027.749,1.332,1.332.304.584.457,1.231.457,1.94s-.152,1.357-.457,1.94c-.304.584-.749,1.027-1.332,1.332-.584.304-1.231.457-1.94.457s-1.358-.152-1.94-.457Z"/>
  <path d="M70.986,53.605c-.584-.304-1.027-.748-1.332-1.332-.304-.582-.457-1.229-.457-1.94s.152-1.356.457-1.94c.304-.582.748-1.027,1.332-1.332.583-.304,1.229-.457,1.94-.457s1.356.152,1.94.457c.583.304,1.027.749,1.332,1.332.304.584.457,1.231.457,1.94s-.152,1.358-.457,1.94c-.304.584-.749,1.027-1.332,1.332-.584.304-1.231.457-1.94.457s-1.358-.152-1.94-.457Z"/>
  <path d="M198.462,41.295c-.584-.304-1.027-.748-1.332-1.332-.304-.583-.457-1.23-.457-1.94s.152-1.356.457-1.94c.304-.583.748-1.027,1.332-1.332.582-.304,1.229-.457,1.94-.457s1.356.152,1.94.457c.582.304,1.027.749,1.332,1.332.304.584.457,1.231.457,1.94s-.152,1.357-.457,1.94c-.304.584-.749,1.027-1.332,1.332-.584.304-1.231.457-1.94.457s-1.358-.152-1.94-.457Z"/>
  <path d="M290.237,78.457c-.71,0-1.356-.152-1.94-.457-.582-.304-1.027-.748-1.332-1.332-.304-.582-.457-1.229-.457-1.94s.152-1.356.457-1.94c.304-.582.749-1.027,1.332-1.332.584-.304,1.231-.457,1.94-.457s1.358.152,1.94.457c.584.304,1.027.749,1.332,1.332.304.584.457,1.231.457,1.94s-.152,1.358-.457,1.94c-.304.584-.748,1.027-1.332,1.332-.582.304-1.229.457-1.94.457Z"/>
  <path d="M248.162,51.026c-.71,0-1.356-.164-1.94-.495-.583-.329-1.027-.786-1.332-1.37-.304-.582-.457-1.229-.457-1.94s.152-1.343.457-1.902c.304-.557.749-1.001,1.332-1.332.584-.329,1.231-.495,1.94-.495s1.357.165,1.94.495c.584.331,1.027.774,1.332,1.332.304.559.457,1.193.457,1.902s-.152,1.358-.457,1.94c-.304.584-.748,1.041-1.332,1.37-.583.331-1.23.495-1.94.495Z"/>
  <path d="M397.224,7.457c-.71,0-1.356-.152-1.94-.457-.583-.304-1.027-.748-1.332-1.332-.304-.582-.457-1.229-.457-1.94s.152-1.356.457-1.94c.304-.582.749-1.027,1.332-1.332.584-.304,1.231-.457,1.94-.457s1.357.152,1.94.457c.584.304,1.027.749,1.332,1.332.304.584.457,1.231.457,1.94s-.152,1.358-.457,1.94c-.304.584-.748,1.027-1.332,1.332-.583.304-1.23.457-1.94.457Z"/>
  <path d="M363.547,29.077c-.71,0-1.356-.152-1.94-.457-.582-.304-1.027-.748-1.332-1.332-.304-.582-.457-1.229-.457-1.94s.152-1.356.457-1.94c.304-.582.749-1.027,1.332-1.332.584-.304,1.231-.457,1.94-.457s1.358.152,1.94.457c.584.304,1.027.749,1.332,1.332.304.584.457,1.231.457,1.94s-.152,1.358-.457,1.94c-.304.584-.748,1.027-1.332,1.332-.582.304-1.229.457-1.94.457Z"/>
  <path d="M328.026,53.252c-.71,0-1.356-.152-1.94-.457-.583-.304-1.027-.748-1.332-1.332-.304-.583-.457-1.23-.457-1.94s.152-1.356.457-1.94c.304-.583.749-1.027,1.332-1.332.584-.304,1.231-.457,1.94-.457s1.357.152,1.94.457c.584.304,1.027.749,1.332,1.332.304.584.457,1.231.457,1.94s-.152,1.357-.457,1.94c-.304.584-.748,1.027-1.332,1.332-.583.304-1.23.457-1.94.457Z"/>
</svg>
